<?xml version="1.0" standalone="no"?>
<!DOCTYPE svg PUBLIC "-//W3C//DTD SVG 1.1//EN" "http://www.w3.org/Graphics/SVG/1.1/DTD/svg11.dtd" >
<svg>
<metadata>
Created by FontForge 20090914 at Sun Mar 13 17:47:38 2022
 By www-data
Copyright &#194;&#169; 2015 by Wei Huang. All rights reserved.
</metadata>
<defs>
<font id="WorkSans-Light" horiz-adv-x="604" >
  <font-face 
    font-family="Work Sans Light"
    font-weight="300"
    font-stretch="normal"
    units-per-em="1000"
    panose-1="0 0 4 0 0 0 0 0 0 0"
    ascent="800"
    descent="-200"
    x-height="500"
    cap-height="660"
    bbox="-325 -332.993 1184 930"
    underline-thickness="50"
    underline-position="-100"
    unicode-range="U+0020-U+FB02"
  />
<missing-glyph horiz-adv-x="500" 
d="M50 660h400v-660h-400v660zM370 80v500h-240v-500h240z" />
    <glyph glyph-name="fi" unicode="fi" horiz-adv-x="587" 
d="M173 500h176v-43h-176v-457h-50v457h-100v43h100v84c0 46.667 13 83.5 39 110.5s62.667 40.5 110 40.5c36 0 63 -9 81 -27l-14 -40c-16.667 14.667 -37.667 22 -63 22c-32.667 0 -58 -9.5 -76 -28.5s-27 -46.5 -27 -82.5v-79zM442.5 608.5
c-7.66699 7.66699 -11.5 17.834 -11.5 30.501s3.83301 22.834 11.5 30.501s17.834 11.5 30.501 11.5s22.834 -3.83301 30.501 -11.5s11.5 -17.834 11.5 -30.501s-3.83301 -22.834 -11.5 -30.501s-17.834 -11.5 -30.501 -11.5s-22.834 3.83301 -30.501 11.5zM498 0h-50v500
h50v-500z" />
    <glyph glyph-name="fl" unicode="fl" horiz-adv-x="632" 
d="M173 500h176v-43h-176v-457h-50v457h-100v43h100v84c0 46.667 13 83.5 39 110.5s62.667 40.5 110 40.5c36 0 63 -9 81 -27l-14 -40c-16.667 14.667 -37.667 22 -63 22c-32.667 0 -58 -9.5 -76 -28.5s-27 -46.5 -27 -82.5v-79zM494 121
c0 -30.667 4.83301 -52.332 14.5 -64.999s25.834 -19 48.501 -19c13.333 0 24.666 1 33.999 3s20 5.66699 32 11l-7 -48c-18.667 -8.66699 -40.667 -13 -66 -13c-36 0 -62.667 10.167 -80 30.5s-26 52.166 -26 95.499v614h50v-609z" />
    <glyph glyph-name=".notdef" horiz-adv-x="500" 
d="M50 660h400v-660h-400v660zM370 80v500h-240v-500h240z" />
    <glyph glyph-name="space" unicode=" " horiz-adv-x="313" 
 />
    <glyph glyph-name="exclam" unicode="!" horiz-adv-x="230" 
d="M141 340l-6 -150h-40l-6 150v320h52v-320zM147.5 69.5c8.33301 -8.33301 12.5 -19.166 12.5 -32.499s-4.16699 -24.166 -12.5 -32.499s-19.166 -12.5 -32.499 -12.5s-24.166 4.16699 -32.499 12.5s-12.5 19.166 -12.5 32.499s4.16699 24.166 12.5 32.499
s19.166 12.5 32.499 12.5s24.166 -4.16699 32.499 -12.5z" />
    <glyph glyph-name="quotedbl" unicode="&#x22;" horiz-adv-x="327" 
d="M248 480h-40v205h54zM115 480h-40v205h54z" />
    <glyph glyph-name="numbersign" unicode="#" horiz-adv-x="636" 
d="M466 429l-30 -191h132v-39h-139l-31 -199h-44l32 199h-181l-31 -199h-44l32 199h-131v39h137l30 191h-130v39h137l30 192h44l-31 -192h181l30 192h44l-31 -192h133v-39h-139zM423 429h-181l-30 -191h180z" />
    <glyph glyph-name="dollar" unicode="$" horiz-adv-x="599" 
d="M285 1c-59.333 3.33301 -109.332 19.6699 -149.999 49.0029s-68.334 69.666 -83.001 120.999l46 24c8.66699 -42.667 30 -77.334 64 -104.001s75 -42.667 123 -48v266c-45.333 9.33301 -82.5 19.333 -111.5 30s-53.167 27 -72.5 49s-29 51.667 -29 89
c0 32 8.5 61.667 25.5 89s41.667 49.333 74 66s70.166 25.667 113.499 27v101h43v-101c52 -2.66699 94.833 -15.834 128.5 -39.501s59.834 -58.167 78.501 -103.5l-40 -32c-14.667 42.667 -35.5 74.5 -62.5 95.5s-61.833 33.167 -104.5 36.5v-272
c45.333 -9.33301 82.333 -19.333 111 -30s52.667 -27 72 -49s29 -52 29 -90c0 -50.667 -19.167 -91.667 -57.5 -123s-89.833 -48.333 -154.5 -51v-101h-43v101zM285.001 617.004c-51.333 -2 -91.668 -15.3311 -121.001 -39.998s-44 -56.667 -44 -96
c0 -26.667 7.33301 -48.334 22 -65.001s33.334 -29.334 56.001 -38.001s51.667 -17 87 -25v264zM447.499 78.5059c30.333 22.333 45.502 53.167 45.502 92.5c0 26.667 -7.33301 48.5 -22 65.5s-33.334 30 -56.001 39s-51.667 17.167 -87 24.5v-258
c49.333 2 89.166 14.167 119.499 36.5z" />
    <glyph glyph-name="percent" unicode="%" horiz-adv-x="809" 
d="M299 616c26 -32.667 39 -74.6689 39 -126.002s-13 -93.166 -39 -125.499s-62.667 -48.5 -110 -48.5c-46.667 0 -83.167 16.333 -109.5 49s-39.5 74.334 -39.5 125.001c0 51.333 13 93.333 39 126s62.667 49 110 49s84 -16.333 110 -49zM596 659.998h49l-433 -660h-49z
M111.5 587.498c-17.667 -25 -26.5 -57.5 -26.5 -97.5s8.83301 -72.333 26.5 -97s43.5 -37 77.5 -37s59.833 12.333 77.5 37s26.5 57 26.5 97s-8.83301 72.5 -26.5 97.5s-43.5 37.5 -77.5 37.5s-59.833 -12.5 -77.5 -37.5zM729.5 294.498
c26.333 -33 39.5 -74.833 39.5 -125.5s-13.167 -92.334 -39.5 -125.001s-62.833 -49 -109.5 -49c-47.333 0 -84.166 16.333 -110.499 49s-39.5 74.334 -39.5 125.001c0 51.333 13.167 93.333 39.5 126s63.166 49 110.499 49c46.667 0 83.167 -16.5 109.5 -49.5zM542 266.998
c-18 -24.667 -27 -57.334 -27 -98.001c0 -40 9 -72.333 27 -97s44 -37 78 -37s59.833 12.333 77.5 37s26.5 57 26.5 97c0 40.667 -8.83301 73.334 -26.5 98.001s-43.5 37 -77.5 37s-60 -12.333 -78 -37z" />
    <glyph glyph-name="ampersand" unicode="&#x26;" horiz-adv-x="599" 
d="M542.5 44.5c19 -11 39.832 -16.4971 62.499 -16.4971l-12 -38c-24.667 0 -47.667 6 -69 18s-47.333 34.333 -78 67c-51.333 -56.667 -117.666 -85 -198.999 -85c-38.667 0 -73.167 6.83301 -103.5 20.5s-54 32.667 -71 57s-25.5 52.166 -25.5 83.499
c0 43.333 13.333 81.166 40 113.499s69 64.5 127 96.5c-31.333 40.667 -52.833 72.5 -64.5 95.5s-17.5 46.833 -17.5 71.5c0 39.333 13.333 72.5 40 99.5s62.667 40.5 108 40.5c42 0 76.5 -10.833 103.5 -32.5s40.5 -53.167 40.5 -94.5c0 -38 -10 -71.5 -30 -100.5
s-58.333 -59.5 -115 -91.5l68 -88l97 -121c18 28.667 31.5 61.667 40.5 99s12.833 77.666 11.5 120.999l41 -4c1.33301 -46 -3.5 -90.5 -14.5 -133.5s-27.833 -81.167 -50.5 -114.5c28 -31.333 51.5 -52.5 70.5 -63.5zM205.999 598.003c-18 -18 -27 -41 -27 -69
c0 -20.667 4.5 -40 13.5 -58s29.167 -47.667 60.5 -89c50 26.667 83.5 52.167 100.5 76.5s25.5 51.5 25.5 81.5c0 27.333 -8.83301 48.333 -26.5 63s-42.167 22 -73.5 22c-30.667 0 -55 -9 -73 -27zM341.999 50.5029c29.333 13 54.667 31.501 76 55.501l-104 127l-74 94
c-53.333 -30.667 -91 -58.5 -113 -83.5s-33 -54.833 -33 -89.5c0 -36.667 14.5 -66.334 43.5 -89.001s64.5 -34 106.5 -34c36 0 68.667 6.5 98 19.5z" />
    <glyph glyph-name="quotesingle" unicode="'" horiz-adv-x="194" 
d="M115 480h-40v205h54z" />
    <glyph glyph-name="parenleft" unicode="(" horiz-adv-x="305" 
d="M285 717c-62.667 -55.333 -107.834 -117.499 -135.501 -186.499s-41.5 -151.5 -41.5 -247.5s13.833 -178.5 41.5 -247.5s72.834 -131.167 135.501 -186.5l-28 -29c-67.333 57.333 -117.5 124.166 -150.5 200.499s-49.5 163.833 -49.5 262.5c0 98 16.5 185.333 49.5 262
s83.167 143.667 150.5 201z" />
    <glyph glyph-name="parenright" unicode=")" horiz-adv-x="305" 
d="M197.5 545c33 -76.667 49.5 -164 49.5 -262s-16.5 -185.333 -49.5 -262s-82.833 -143.667 -149.5 -201l-28 29c62.667 55.333 107.834 117.5 135.501 186.5s41.5 151.5 41.5 247.5s-13.833 178.5 -41.5 247.5s-72.834 131.167 -135.501 186.5l28 29
c66.667 -57.333 116.5 -124.333 149.5 -201z" />
    <glyph glyph-name="asterisk" unicode="*" horiz-adv-x="543" 
d="M347 436l74 -104l-33 -24l-76 102l-41 69l-40 -69l-76 -102l-33 24l74 104l52 60l-78 18l-120 40l12 39l121 -38l74 -31l-7 79v127h43v-127l-7 -79l73 31l122 38l12 -39l-120 -40l-78 -18z" />
    <glyph glyph-name="plus" unicode="+" 
d="M540 293h-214v-220h-47v220h-215v46h215v216h47v-216h214v-46z" />
    <glyph glyph-name="comma" unicode="," horiz-adv-x="220" 
d="M151.5 62c9.66699 -13.333 14.501 -31.001 14.501 -53.001c0 -28 -7.33301 -54.333 -22 -79s-36 -44 -64 -58l-28 25c23.333 8.66699 42.5 23.334 57.5 44.001s21.833 40.667 20.5 60l-3 1c-4.66699 -6.66699 -12.334 -10 -23.001 -10c-10 0 -19 4 -27 12
s-12 18.667 -12 32c0 12.667 4.5 23.5 13.5 32.5s19.833 13.5 32.5 13.5c17.333 0 30.833 -6.66699 40.5 -20z" />
    <glyph glyph-name="hyphen" unicode="-" horiz-adv-x="466" 
d="M387 240h-307v51h307v-51z" />
    <glyph glyph-name="period" unicode="." horiz-adv-x="220" 
d="M142.5 69.5c8.33301 -8.33301 12.5 -19.166 12.5 -32.499s-4.16699 -24.166 -12.5 -32.499s-19.166 -12.5 -32.499 -12.5s-24.166 4.16699 -32.499 12.5s-12.5 19.166 -12.5 32.499s4.16699 24.166 12.5 32.499s19.166 12.5 32.499 12.5s24.166 -4.16699 32.499 -12.5z
" />
    <glyph glyph-name="slash" unicode="/" horiz-adv-x="396" 
d="M79 -70h-48l285 800h48z" />
    <glyph glyph-name="zero" unicode="0" horiz-adv-x="607" 
d="M125 77.5c-41.333 58.333 -62 142.5 -62 252.5s20.667 194.167 62 252.5s101 87.5 179 87.5c77.333 0 136.666 -29.167 177.999 -87.5s62 -142.5 62 -252.5s-20.667 -194.167 -62 -252.5s-100.666 -87.5 -177.999 -87.5c-78 0 -137.667 29.167 -179 87.5zM444.5 111
c32.333 50.667 48.5 123.667 48.5 219s-16.167 168.333 -48.5 219s-79.166 76 -140.499 76s-108.333 -25.333 -141 -76s-49 -123.667 -49 -219s16.333 -168.333 49 -219s79.667 -76 141 -76s108.166 25.333 140.499 76z" />
    <glyph glyph-name="one" unicode="1" horiz-adv-x="365" 
d="M268 660l0.000976562 -659.999h-50v500c0 19.333 0.666992 49.666 2 90.999c-22 -25.333 -48.333 -47.5 -79 -66.5s-62.334 -32.833 -95.001 -41.5l-13 45c32 8 67.5 25 106.5 51s66.833 53 83.5 81h45z" />
    <glyph glyph-name="two" unicode="2" horiz-adv-x="560" 
d="M65 41c94 73.333 166 132.666 216 177.999s87.833 88 113.5 128s38.5 80.667 38.5 122c0 47.333 -14.5 85 -43.5 113s-68.5 42 -118.5 42c-51.333 0 -92.666 -16.167 -123.999 -48.5s-49 -76.166 -53 -131.499l-44 25c6 61.333 28.5 110.166 67.5 146.499
s90.5 54.5 154.5 54.5c65.333 0 117.166 -18.167 155.499 -54.5s57.5 -85.166 57.5 -146.499c0 -44 -12.333 -86.833 -37 -128.5s-61.5 -85.5 -110.5 -131.5s-115.5 -100.333 -199.5 -163v-1l66 1h302v-46h-441v41z" />
    <glyph glyph-name="three" unicode="3" horiz-adv-x="554" 
d="M420.5 622c35 -32 52.501 -73.335 52.501 -124.002c0 -44 -11.833 -81.5 -35.5 -112.5s-53.834 -48.167 -90.501 -51.5v-1c42 -1.33301 76.167 -17.166 102.5 -47.499s39.5 -67.5 39.5 -111.5c0 -36 -9.33301 -67.833 -28 -95.5s-44.5 -49.334 -77.5 -65.001
s-70.5 -23.5 -112.5 -23.5c-57.333 0 -104.833 13.333 -142.5 40s-64.5 65 -80.5 115l46 25c23.333 -89.333 83.333 -134 180 -134c48.667 0 88 13 118 39s45 60.333 45 103s-13.5 75.334 -40.5 98.001s-66.833 34 -119.5 34h-37v46h37c46.667 0 82.334 12 107.001 36
s37 56.667 37 98c0 42.667 -12.833 75.667 -38.5 99s-61.5 35 -107.5 35c-40.667 0 -74.5 -10.167 -101.5 -30.5s-45.5 -48.5 -55.5 -84.5l-47 23c15.333 42.667 41.166 76.334 77.499 101.001s78.5 37 126.5 37c62 0 110.5 -16 145.5 -48z" />
    <glyph glyph-name="four" unicode="4" horiz-adv-x="582" 
d="M546 188h-127v-188h-50v188h-328v38l314 434h64v-429h127v-43zM95 231h274v302l2 85h-2c-12.667 -22 -31 -51 -55 -87z" />
    <glyph glyph-name="five" unicode="5" horiz-adv-x="560" 
d="M404.5 386c31.667 -17.333 56.166 -41.832 73.499 -73.499s26 -68.167 26 -109.5c0 -64.667 -19.833 -116.334 -59.5 -155.001s-92.834 -58 -159.501 -58c-122 0 -198 51.667 -228 155l48 24c19.333 -88.667 78.666 -133 177.999 -133c50.667 0 91.5 15.167 122.5 45.5
s46.5 70.166 46.5 119.499c-0.666992 50.667 -15.667 90.834 -45 120.501s-68.666 44.5 -117.999 44.5c-78 0 -134.667 -24.667 -170 -74h-44l36 368h365v-46h-323l-26 -256l-2 -13h1c38.667 44.667 95.334 67 170.001 67c40.667 0 76.834 -8.66699 108.501 -26z" />
    <glyph glyph-name="six" unicode="6" horiz-adv-x="581" 
d="M437.5 637.5c31 -21.667 54.834 -54.167 71.501 -97.5l-46 -22c-10 32.667 -27.333 58.5 -52 77.5s-57 28.5 -97 28.5c-44 0 -81.333 -14 -112 -42s-53.667 -65.333 -69 -112s-23 -98 -23 -154c0 -18 1.66699 -40.333 5 -67h3c2.66699 32.667 13.667 61 33 85
s43.166 42.167 71.499 54.5s57.5 18.5 87.5 18.5c66 0 118.167 -18.833 156.5 -56.5s57.5 -88.5 57.5 -152.5c0 -63.333 -19.667 -113.833 -59 -151.5s-92.333 -56.5 -159 -56.5c-78 0 -137.833 30.167 -179.5 90.5s-62.5 143.5 -62.5 249.5
c0 72.667 10.833 134.5 32.5 185.5s51.667 89.5 90 115.5s81.833 39 130.5 39c49.333 0 89.5 -10.833 120.5 -32.5zM220.501 338c-25 -14.667 -44.499 -34.167 -58.499 -58.5s-21 -50.833 -21 -79.5c0 -48 15.167 -87.167 45.5 -117.5s69.833 -45.5 118.5 -45.5
c52 0 92.833 14.667 122.5 44s44.5 69 44.5 119c0 48.667 -14.833 87.5 -44.5 116.5s-69.834 43.5 -120.501 43.5c-32.667 0 -61.5 -7.33301 -86.5 -22z" />
    <glyph glyph-name="seven" unicode="7" horiz-adv-x="530" 
d="M507 660l-0.00292969 -46c-81.333 -86 -142.166 -179.167 -182.499 -279.5s-63.166 -211.833 -68.499 -334.5h-52c10.667 242 93.334 446.667 248.001 614h-420v46h475z" />
    <glyph glyph-name="eight" unicode="8" horiz-adv-x="591" 
d="M444 623.5c37.333 -30.333 56.001 -70.833 56.001 -121.5c0 -38 -10.333 -70.333 -31 -97s-49.334 -45.667 -86.001 -57v-1c44.667 -11.333 80.167 -32.333 106.5 -63s39.5 -67.334 39.5 -110.001c0 -36.667 -9.66699 -68.834 -29 -96.501s-46.833 -49.167 -82.5 -64.5
s-76.5 -23 -122.5 -23c-45.333 0 -85.666 7.66699 -120.999 23s-62.833 36.833 -82.5 64.5s-29.5 59.834 -29.5 96.501c0 42.667 13.167 79.334 39.5 110.001s61.833 51.667 106.5 63v1c-36.667 11.333 -65.334 30.333 -86.001 57s-31 59 -31 97
c0 50.667 18.5 91.167 55.5 121.5s86.5 45.5 148.5 45.5s111.667 -15.167 149 -45.5zM184.001 589c-27.333 -22.667 -40.999 -53.334 -40.999 -92.001s13.833 -69.5 41.5 -92.5s64.5 -34.5 110.5 -34.5s83 11.5 111 34.5s42 53.833 42 92.5s-13.833 69.334 -41.5 92.001
s-64.834 34 -111.501 34s-83.667 -11.333 -111 -34zM427.002 75c33.333 26 50 60.333 50 103c0 43.333 -16.667 78.333 -50 105s-77.333 40 -132 40c-54 0 -97.667 -13.333 -131 -40s-50 -61.667 -50 -105c0 -42.667 16.5 -77 49.5 -103s76.833 -39 131.5 -39
s98.667 13 132 39z" />
    <glyph glyph-name="nine" unicode="9" horiz-adv-x="596" 
d="M466.5 579c42.333 -60.667 63.4971 -143.668 63.4971 -249.001c0 -110.667 -21.5 -195 -64.5 -253s-102.833 -87 -179.5 -87c-57.333 0 -104.666 12.667 -141.999 38s-63.333 61 -78 107l50 26c9.33301 -39.333 27.5 -70 54.5 -92s65.167 -33 114.5 -33
c70.667 0 121.667 28.333 153 85s47 131.667 47 225c0 16.667 -2 39.667 -6 69h-3c-2.66699 -35.333 -13.667 -65.166 -33 -89.499s-43.666 -42.5 -72.999 -54.5s-59.333 -18 -90 -18c-65.333 0 -117.666 18.833 -156.999 56.5s-59 88.5 -59 152.5
c0 63.333 20 113.833 60 151.5s93.667 56.5 161 56.5c78.667 0 139.167 -30.333 181.5 -91zM161.497 578.999c-30.333 -29.333 -45.501 -69 -45.501 -119c0 -48.667 15 -87.5 45 -116.5s71 -43.5 123 -43.5c32.667 0 61.834 7.33301 87.501 22s45.667 34.167 60 58.5
s21.5 50.833 21.5 79.5c0 48 -15.5 87.167 -46.5 117.5s-71.167 45.5 -120.5 45.5c-52.667 0 -94.167 -14.667 -124.5 -44z" />
    <glyph glyph-name="colon" unicode=":" horiz-adv-x="247" 
d="M156.5 492.5c8.33301 -8.33301 12.5 -19.166 12.5 -32.499s-4.16699 -24.166 -12.5 -32.499s-19.166 -12.5 -32.499 -12.5s-24.166 4.16699 -32.499 12.5s-12.5 19.166 -12.5 32.499s4.16699 24.166 12.5 32.499s19.166 12.5 32.499 12.5s24.166 -4.16699 32.499 -12.5z
M156.5 69.5c8.33301 -8.33301 12.5 -19.166 12.5 -32.499s-4.16699 -24.166 -12.5 -32.499s-19.166 -12.5 -32.499 -12.5s-24.166 4.16699 -32.499 12.5s-12.5 19.166 -12.5 32.499s4.16699 24.166 12.5 32.499s19.166 12.5 32.499 12.5s24.166 -4.16699 32.499 -12.5z" />
    <glyph glyph-name="semicolon" unicode=";" horiz-adv-x="247" 
d="M95.5 428c-8.33301 8 -12.5 18.667 -12.5 32s4.16699 24.166 12.5 32.499s19.166 12.5 32.499 12.5s24.166 -4.16699 32.499 -12.5s12.5 -19.166 12.5 -32.499s-4.16699 -24 -12.5 -32s-19.166 -12 -32.499 -12s-24.166 4 -32.499 12zM165.5 62
c9.66699 -13.333 14.501 -31.001 14.501 -53.001c0 -28 -7.33301 -54.333 -22 -79s-36 -44 -64 -58l-27 25c22.667 8.66699 41.5 23.334 56.5 44.001s21.833 40.667 20.5 60l-3 1c-4.66699 -6.66699 -12.334 -10 -23.001 -10c-10 0 -19 4 -27 12s-12 18.667 -12 32
c0 12.667 4.5 23.5 13.5 32.5s19.833 13.5 32.5 13.5c17.333 0 30.833 -6.66699 40.5 -20z" />
    <glyph glyph-name="less" unicode="&#x3c;" 
d="M540 504l-420 -204l420 -205v-53l-460 228v59l460 228v-53z" />
    <glyph glyph-name="equal" unicode="=" 
d="M529 386h-454v46h454v-46zM529 184h-454v46h454v-46z" />
    <glyph glyph-name="greater" unicode="&#x3e;" 
d="M524 329v-59l-460 -228v53l420 205l-420 204v53z" />
    <glyph glyph-name="question" unicode="?" horiz-adv-x="510" 
d="M407 624c38 -30.667 57 -72 57 -124c0 -107.333 -64.333 -174.333 -193 -201v-118h-51v145c70 16 119.5 36.833 148.5 62.5s43.5 61.167 43.5 106.5c0 40 -14 71.5 -42 94.5s-66.333 34.5 -115 34.5c-52 0 -92.833 -12.833 -122.5 -38.5s-47.5 -62.167 -53.5 -109.5
l-44 24c10 53.333 33.833 95 71.5 125s88.167 45 151.5 45c61.333 0 111 -15.333 149 -46zM277 69.5c8 -8.33301 12 -19.166 12 -32.499s-4 -24.166 -12 -32.499s-18.667 -12.5 -32 -12.5s-24.166 4.16699 -32.499 12.5s-12.5 19.166 -12.5 32.499
s4.16699 24.166 12.5 32.499s19.166 12.5 32.499 12.5s24 -4.16699 32 -12.5z" />
    <glyph glyph-name="at" unicode="@" horiz-adv-x="966" 
d="M723 609.5c61.333 -37 106.335 -86.6621 135.002 -148.995s43 -131.5 43 -207.5c0 -80.667 -14 -144.167 -42 -190.5s-66 -69.5 -114 -69.5c-66 0 -101.667 39.667 -107 119c-16 -36.667 -39.833 -65.334 -71.5 -86.001s-69.5 -31 -113.5 -31
c-37.333 0 -70.833 9 -100.5 27s-52.667 43.833 -69 77.5s-24.5 73.167 -24.5 118.5c0 50.667 10 95.167 30 133.5s47.333 67.666 82 87.999s72.667 30.5 114 30.5c45.333 0 82.166 -10.167 110.499 -30.5s48.166 -48.166 59.499 -83.499l11 102h34l-21 -317
c-3.33301 -74.667 21.334 -112 74.001 -112c34.667 0 61.334 19.333 80.001 58s28 94 28 166c0 70.667 -13.167 134.167 -39.5 190.5s-67 101 -122 134s-124.167 49.5 -207.5 49.5c-78.667 0 -147.334 -16.333 -206.001 -49s-103.834 -79 -135.501 -139
s-47.5 -130.333 -47.5 -211c0 -78.667 16.333 -146.834 49 -204.501s78 -101.834 136 -132.501s124.333 -46 199 -46c48 0 90.833 6.5 128.5 19.5s69.834 30.5 96.501 52.5l23 -31c-69.333 -52.667 -152 -79 -248 -79c-84.667 0 -159.334 17.167 -224.001 51.5
s-114.667 83.166 -150 146.499s-53 137.666 -53 222.999c0 86.667 17.833 163 53.5 229s86.167 117.167 151.5 153.5s141 54.5 227 54.5c92.667 0 169.667 -18.5 231 -55.5zM354.502 375.005c-33.667 -38 -50.499 -89.668 -50.499 -155.001
c0 -57.333 14.5 -102.666 43.5 -135.999s68.5 -50 118.5 -50c48.667 0 89.167 16.333 121.5 49s50.166 76 53.499 130l3 40c2.66699 52.667 -9.16602 95.667 -35.499 129s-65.833 50 -118.5 50c-56.667 0 -101.834 -19 -135.501 -57z" />
    <glyph glyph-name="A" unicode="A" horiz-adv-x="625" 
d="M470 207h-316l-82 -207h-53l264 660h59l264 -660h-53zM452 253l-115 288l-24 70h-1l-24 -68l-115 -290h279z" />
    <glyph glyph-name="B" unicode="B" horiz-adv-x="632" 
d="M104 660l233 0.000976562c72 0 125.833 -15 161.5 -45s53.5 -73.333 53.5 -130c0 -38.667 -10.5 -71.334 -31.5 -98.001s-50.833 -44 -89.5 -52v-1c42.667 -6.66699 76.5 -24 101.5 -52s37.5 -62.667 37.5 -104c0 -56.667 -20.167 -100.5 -60.5 -131.5
s-97.833 -46.5 -172.5 -46.5h-233v660zM338 356.001c107.333 0 161 43 161 129s-53.667 129 -161 129h-184v-258h184zM347 46.001c56 0 98.333 11.333 127 34s43 55.334 43 98.001c0 43.333 -14.333 76.166 -43 98.499s-71 33.5 -127 33.5h-193v-264h193z" />
    <glyph glyph-name="C" unicode="C" horiz-adv-x="669" 
d="M528.5 36.5c-46.333 -31 -101.83 -46.5 -166.497 -46.5c-60 0 -112.667 13.833 -158 41.5s-80.333 67.167 -105 118.5s-37 111.333 -37 180s12.333 128.667 37 180s59.667 90.833 105 118.5s97.666 41.5 156.999 41.5c132 0 217.333 -54.333 256 -163l-49 -23
c-15.333 46.667 -39.833 81.667 -73.5 105s-77.167 35 -130.5 35c-49.333 0 -92.833 -11.833 -130.5 -35.5s-66.834 -57.667 -87.501 -102s-31 -96.5 -31 -156.5s10.167 -112.167 30.5 -156.5s49 -78.333 86 -102s80.5 -35.5 130.5 -35.5c53.333 0 98.666 13 135.999 39
s63.333 63 78 111l50 -19c-18.667 -56 -51.167 -99.5 -97.5 -130.5z" />
    <glyph glyph-name="D" unicode="D" horiz-adv-x="704" 
d="M555.5 576.5c57 -55.667 85.5 -136.167 85.5 -241.5c0 -108 -28.5 -190.833 -85.5 -248.5s-138.167 -86.5 -243.5 -86.5h-208v660h208c105.333 0 186.5 -27.833 243.5 -83.5zM518.5 120.5c47 49.667 70.5 121.168 70.5 214.501c0 89.333 -23.5 158.166 -70.5 206.499
s-114.5 72.5 -202.5 72.5h-162v-568h162c88 0 155.5 24.833 202.5 74.5z" />
    <glyph glyph-name="E" unicode="E" horiz-adv-x="612" 
d="M571 46v-46h-467v660h451v-46h-401v-255h317v-47h-317v-266h417z" />
    <glyph glyph-name="F" unicode="F" horiz-adv-x="584" 
d="M154 614v-255h317v-47h-317v-312h-50v660h450v-46h-400z" />
    <glyph glyph-name="G" unicode="G" horiz-adv-x="702" 
d="M629 323l-0.00292969 -323h-40l-2 115c-18 -40 -46.167 -70.833 -84.5 -92.5s-85.833 -32.5 -142.5 -32.5c-60 0 -112.5 13.833 -157.5 41.5s-79.667 67.167 -104 118.5s-36.5 111.333 -36.5 180s12.5 128.667 37.5 180s60.167 90.833 105.5 118.5s98 41.5 158 41.5
c67.333 0 122.333 -13.333 165 -40s74.667 -67.334 96 -122.001l-46 -24c-15.333 46 -41.166 80.833 -77.499 104.5s-82.166 35.5 -137.499 35.5c-49.333 0 -92.666 -11.833 -129.999 -35.5s-66.333 -57.667 -87 -102s-31 -96.5 -31 -156.5
c0 -91.333 21.833 -163.166 65.5 -215.499s104.167 -78.5 181.5 -78.5c48 0 88.667 9.5 122 28.5s58 44 74 75s24 64.167 24 99.5v37h-224v47h271z" />
    <glyph glyph-name="H" unicode="H" horiz-adv-x="716" 
d="M612 660v-660h-50v312h-408v-312h-50v660h50v-301h408v301h50z" />
    <glyph glyph-name="I" unicode="I" horiz-adv-x="258" 
d="M154 0h-50v660h50v-660z" />
    <glyph glyph-name="J" unicode="J" horiz-adv-x="534" 
d="M437 218c0 -71.333 -18.332 -127.167 -54.999 -167.5s-88.334 -60.5 -155.001 -60.5c-60.667 0 -107.667 15.5 -141 46.5s-50 73.167 -50 126.5c0 17.333 1.33301 33 4 47l47 11c-2 -16 -3 -31.333 -3 -46c0 -92.667 47.333 -139 142 -139c56 0 96.833 16.333 122.5 49
s38.5 80.667 38.5 144v431h50v-442z" />
    <glyph glyph-name="K" unicode="K" horiz-adv-x="610" 
d="M286 356l-132 -134v-222h-50v660h50v-370l362 370h66l-261 -267l268 -393h-61z" />
    <glyph glyph-name="L" unicode="L" horiz-adv-x="572" 
d="M550 46v-46h-446v660h50v-614h396z" />
    <glyph glyph-name="M" unicode="M" horiz-adv-x="822" 
d="M718 0h-48v492l6 120h-1l-241 -612h-46l-241 612h-1l6 -120v-492h-48v660h75l199 -500l33 -101h1l32 100l199 501h75v-660z" />
    <glyph glyph-name="N" unicode="N" horiz-adv-x="715" 
d="M611 0h-62l-350 518l-49 88h-1l3 -83v-523h-48v660h63l349 -517l50 -89l-2 83v523h47v-660z" />
    <glyph glyph-name="O" unicode="O" horiz-adv-x="732" 
d="M527.5 628.5c45.667 -27.667 80.834 -67 105.501 -118s37 -111.167 37 -180.5s-12.333 -129.5 -37 -180.5s-59.834 -90.333 -105.501 -118s-99.5 -41.5 -161.5 -41.5s-115.833 13.833 -161.5 41.5s-80.834 67 -105.501 118s-37 111.167 -37 180.5s12.333 129.5 37 180.5
s59.834 90.333 105.501 118s99.5 41.5 161.5 41.5s115.833 -13.833 161.5 -41.5zM232.5 588.5c-37.667 -23.667 -66.667 -57.667 -87 -102s-30.5 -96.5 -30.5 -156.5s10.167 -112.167 30.5 -156.5s49.333 -78.333 87 -102s82.167 -35.5 133.5 -35.5s96 11.833 134 35.5
s67.167 57.667 87.5 102s30.5 96.5 30.5 156.5s-10.167 112.167 -30.5 156.5s-49.5 78.333 -87.5 102s-82.667 35.5 -134 35.5s-95.833 -11.833 -133.5 -35.5z" />
    <glyph glyph-name="P" unicode="P" horiz-adv-x="587" 
d="M486.5 608.5c40.333 -34.333 60.5 -81.5 60.5 -141.5s-20.167 -107.333 -60.5 -142s-94.833 -52 -163.5 -52h-169v-273h-50v660h219c68.667 0 123.167 -17.167 163.5 -51.5zM448.5 358c30.333 25.333 45.5 61.666 45.5 108.999c0 46.667 -15.167 82.834 -45.5 108.501
s-74.166 38.5 -131.499 38.5h-163v-294h163c57.333 0 101.166 12.667 131.499 38z" />
    <glyph glyph-name="Q" unicode="Q" horiz-adv-x="732" 
d="M599.5 -135.5c19.667 6.33301 35.5 15.5 47.5 27.5l18 -46c-14 -12.667 -32.833 -22.667 -56.5 -30s-48.167 -11 -73.5 -11c-52.667 0 -96.334 15.333 -131.001 46s-54 77.334 -58 140.001c-58 2.66699 -108.333 18.167 -151 46.5s-75.5 67.5 -98.5 117.5
s-34.5 108.333 -34.5 175c0 69.333 12.333 129.5 37 180.5s59.834 90.333 105.501 118s99.5 41.5 161.5 41.5s115.833 -13.833 161.5 -41.5s80.834 -67 105.501 -118s37 -111.167 37 -180.5c0 -66 -11.333 -123.833 -34 -173.5s-54.834 -88.834 -96.501 -117.501
s-91.167 -44.667 -148.5 -48c7.33301 -90.667 55.666 -136 144.999 -136c22.667 0 43.834 3.16699 63.501 9.5zM145.5 173.5c20.333 -44.333 49.333 -78.333 87 -102s82.167 -35.5 133.5 -35.5s96 11.833 134 35.5s67.167 57.667 87.5 102s30.5 96.5 30.5 156.5
s-10.167 112.167 -30.5 156.5s-49.5 78.333 -87.5 102s-82.667 35.5 -134 35.5s-95.833 -11.833 -133.5 -35.5s-66.667 -57.667 -87 -102s-30.5 -96.5 -30.5 -156.5s10.167 -112.167 30.5 -156.5z" />
    <glyph glyph-name="R" unicode="R" horiz-adv-x="640" 
d="M541 0l-189 286h-3h-195v-286h-50v660h245c66 0 118.5 -16.667 157.5 -50s58.5 -79 58.5 -137c0 -48 -14 -87.833 -42 -119.5s-66.333 -52.167 -115 -61.5l192 -292h-59zM154 333l194 0.000976562c53.333 0 94.166 12 122.499 36s42.5 58.667 42.5 104
s-14.167 80.166 -42.5 104.499s-69.166 36.5 -122.499 36.5h-194v-281z" />
    <glyph glyph-name="S" unicode="S" horiz-adv-x="619" 
d="M557 524l-42.9932 -35c-16.667 47.333 -41.5 81.666 -74.5 102.999s-76.5 32 -130.5 32c-38.667 0 -72.334 -6 -101.001 -18s-50.5 -28.333 -65.5 -49s-22.5 -44 -22.5 -70c0 -25.333 6.33301 -46.333 19 -63s34.167 -30.834 64.5 -42.501s72.166 -22.167 125.499 -31.5
c86 -14.667 147 -36 183 -64s54 -66.667 54 -116c0 -35.333 -10.333 -66.666 -31 -93.999s-49.834 -48.5 -87.501 -63.5s-80.834 -22.5 -129.501 -22.5c-69.333 0 -127.833 13.833 -175.5 41.5s-80.167 66.5 -97.5 116.5l44 34c13.333 -47.333 40.166 -83.5 80.499 -108.5
s90.166 -37.5 149.499 -37.5c57.333 0 104.166 11.667 140.499 35s54.5 55.333 54.5 96c0 35.333 -14.833 63.333 -44.5 84s-81.167 37.334 -154.5 50.001c-62 10.667 -111 23.667 -147 39s-61.833 34.333 -77.5 57s-23.5 51 -23.5 85s9.83301 65.333 29.5 94
s47.667 51.5 84 68.5s78.833 25.5 127.5 25.5c124 0 207 -48.667 249 -146z" />
    <glyph glyph-name="T" unicode="T" horiz-adv-x="576" 
d="M554 614h-241v-614h-50v614h-241v46h532v-46z" />
    <glyph glyph-name="U" unicode="U" horiz-adv-x="701" 
d="M605 241c0 -81.333 -22.002 -143.5 -66.002 -186.5s-106.667 -64.5 -188 -64.5s-144.166 21.5 -188.499 64.5s-66.5 105.167 -66.5 186.5v419h50v-409c0 -70.667 17.333 -124.167 52 -160.5s85.667 -54.5 153 -54.5c66.667 0 117.334 18.167 152.001 54.5
s52 89.833 52 160.5v409h50v-419z" />
    <glyph glyph-name="V" unicode="V" horiz-adv-x="614" 
d="M337 0h-59l-255 660h54l195 -511l35 -102l35 102l196 511h53z" />
    <glyph glyph-name="W" unicode="W" horiz-adv-x="937" 
d="M298 0h-62l-206 660h54l183 -619l173 619h58l173 -620l185 620h51l-206 -660h-62l-133 463l-37 143h-1l-37 -143z" />
    <glyph glyph-name="X" unicode="X" horiz-adv-x="566" 
d="M482 0l-201 299l-203 -299h-59l236 339l-216 321h60l188 -280l190 280h56l-219 -320l227 -340h-59z" />
    <glyph glyph-name="Y" unicode="Y" horiz-adv-x="544" 
d="M297 257v-257h-50v257l-234 403h59l200 -351l200 351h59z" />
    <glyph glyph-name="Z" unicode="Z" horiz-adv-x="593" 
d="M553 46v-46h-510v44l435 570h-426v46h485v-44l-435 -570h451z" />
    <glyph glyph-name="bracketleft" unicode="[" horiz-adv-x="311" 
d="M129 686v-810h159v-44h-206v898h206v-44h-159z" />
    <glyph glyph-name="backslash" unicode="\" horiz-adv-x="396" 
d="M80 730l285 -800h-48l-285 800h48z" />
    <glyph glyph-name="bracketright" unicode="]" horiz-adv-x="311" 
d="M229 -168h-206v44h159v810h-159v44h206v-898z" />
    <glyph glyph-name="asciicircum" unicode="^" horiz-adv-x="547" 
d="M464 355l-190 332l-190 -332h-52l217 375h49l218 -375h-52z" />
    <glyph glyph-name="underscore" unicode="_" horiz-adv-x="520" 
d="M520 -143h-520v46h520v-46z" />
    <glyph glyph-name="grave" unicode="`" horiz-adv-x="523" 
d="M275 583h-42l-93 158h54z" />
    <glyph glyph-name="a" unicode="a" horiz-adv-x="543" 
d="M530 40l-3.00098 -40c-12 -6.66699 -28.333 -10 -49 -10c-23.333 0 -42.333 6.33301 -57 19s-23 34.667 -25 66c-15.333 -26.667 -40 -47.5 -74 -62.5s-69.667 -22.5 -107 -22.5c-49.333 0 -88.833 11 -118.5 33s-44.5 53.333 -44.5 94c0 77.333 63.333 127.333 190 150
l153 27v44c0 40 -11.833 71.333 -35.5 94s-57.167 34 -100.5 34c-79.333 0 -132.666 -35.333 -159.999 -106l-38 28c14.667 39.333 39 69.5 73 90.5s75.667 31.5 125 31.5c58 0 103.5 -14.167 136.5 -42.5s49.5 -69.5 49.5 -123.5v-258c0 -35.333 15.333 -53 46 -53
c16.667 0 29.667 2.33301 39 7zM301.999 48.5c26.667 9.66699 48.832 24 66.499 43s26.5 41.833 26.5 68.5v93l-137 -25c-54 -10 -93.333 -24 -118 -42s-37 -41 -37 -69c0 -26.667 10.333 -47.167 31 -61.5s49.334 -21.5 86.001 -21.5c28 0 55.333 4.83301 82 14.5z" />
    <glyph glyph-name="b" unicode="b" horiz-adv-x="609" 
d="M490.5 441c41 -46 61.502 -109.667 61.502 -191s-20.5 -145 -61.5 -191s-96.833 -69 -167.5 -69c-44.667 0 -83.334 10.833 -116.001 32.5s-56 51.5 -70 89.5l-3 -112h-45v730h50v-336c15.333 36 39.166 64.333 71.499 85s69.833 31 112.5 31
c70.667 0 126.5 -23 167.5 -69zM453.002 91.5c32.667 38.333 49 91.166 49 158.499s-16.333 120.166 -49 158.499s-78 57.5 -136 57.5c-52 0 -94 -17.667 -126 -53s-49.333 -83.666 -52 -144.999v-36c2.66699 -61.333 20 -109.666 52 -144.999s74 -53 126 -53
c58 0 103.333 19.167 136 57.5z" />
    <glyph glyph-name="c" unicode="c" horiz-adv-x="545" 
d="M420.5 474.5c35 -23.667 60.165 -56.835 75.498 -99.502l-47 -22c-11.333 36.667 -30.333 64.667 -57 84s-60 29 -100 29c-58 0 -103.333 -19.167 -136 -57.5s-49 -91.166 -49 -158.499c0 -68 16.167 -121 48.5 -159s77.5 -57 135.5 -57
c42.667 0 78.834 10.5 108.501 31.5s47.834 50.167 54.501 87.5l46 -16c-13.333 -45.333 -38.5 -81.166 -75.5 -107.499s-81.167 -39.5 -132.5 -39.5c-74 0 -131.667 23 -173 69s-62 109.667 -62 191s20.833 145 62.5 191s99.5 69 173.5 69c50 0 92.5 -11.833 127.5 -35.5z
" />
    <glyph glyph-name="d" unicode="d" horiz-adv-x="609" 
d="M520 730l0.000976562 -730h-45l-3 112c-14 -38 -37.333 -67.833 -70 -89.5s-71.334 -32.5 -116.001 -32.5c-70.667 0 -126.5 23 -167.5 69s-61.5 109.667 -61.5 191s20.5 145 61.5 191s96.833 69 167.5 69c43.333 0 81 -10.333 113 -31s55.667 -49 71 -85v336h50z
M418.001 86.5c32 35 49.333 82.498 52 142.498v42c-3.33301 60 -20.833 107.5 -52.5 142.5s-73.5 52.5 -125.5 52.5c-58 0 -103.333 -19.167 -136 -57.5s-49 -91.166 -49 -158.499s16.333 -120.166 49 -158.499s78 -57.5 136 -57.5c52 0 94 17.5 126 52.5z" />
    <glyph glyph-name="e" unicode="e" horiz-adv-x="559" 
d="M503 229h-396.997c3.33301 -61.333 21.5 -109.166 54.5 -143.499s77.167 -51.5 132.5 -51.5c39.333 0 73.166 8 101.499 24s48.833 38.667 61.5 68l42 -22c-18.667 -36.667 -45.334 -64.834 -80.001 -84.501s-76.334 -29.5 -125.001 -29.5c-74 0 -131.833 23 -173.5 69
s-62.5 109.667 -62.5 191s20.167 145 60.5 191s96.833 69 169.5 69c68 0 121.333 -22.667 160 -68s58 -105.333 58 -180c0 -11.333 -0.666992 -22.333 -2 -33zM159.003 415.5c-31.333 -33.667 -49 -80.833 -53 -141.5h352c-3.33301 60 -19.833 107 -49.5 141
s-70.167 51 -121.5 51c-54 0 -96.667 -16.833 -128 -50.5z" />
    <glyph glyph-name="f" unicode="f" horiz-adv-x="359" 
d="M173 500h176v-43h-176v-457h-50v457h-100v43h100v84c0 46.667 13 83.5 39 110.5s62.667 40.5 110 40.5c36 0 63 -9 81 -27l-14 -40c-16.667 14.667 -37.667 22 -63 22c-32.667 0 -58 -9.5 -76 -28.5s-27 -46.5 -27 -82.5v-79z" />
    <glyph glyph-name="g" unicode="g" horiz-adv-x="515" 
d="M463 20c28.667 -20.667 42.999 -48.334 42.999 -83.001c0 -30 -10.167 -56.5 -30.5 -79.5s-48.5 -40.833 -84.5 -53.5s-77 -19 -123 -19c-75.333 0 -133 12.167 -173 36.5s-60 56.5 -60 96.5c0 26 8 48.333 24 67s38 32 66 40c-20 8.66699 -35.833 20.667 -47.5 36
s-17.5 32.333 -17.5 51c0 24 7.83301 44.333 23.5 61s36.834 28.667 63.501 36c-27.333 14 -48.333 32.833 -63 56.5s-22 50.834 -22 81.501c0 49.333 18.5 88.833 55.5 118.5s86.167 44.5 147.5 44.5c42.667 0 80.334 -7.66699 113.001 -23c4 32 17.333 57.5 40 76.5
s51 28.5 85 28.5l12 -44c-31.333 0 -56 -7 -74 -21s-28.333 -34 -31 -60c38 -30.667 57 -70.667 57 -120s-18.5 -89 -55.5 -119s-85.833 -45 -146.5 -45c-20.667 0 -43.334 2.33301 -68.001 7c-28 -3.33301 -49.833 -11.5 -65.5 -24.5s-23.5 -28.5 -23.5 -46.5
c0 -21.333 9 -38 27 -50s45 -18 81 -18h129c50 0 89.333 -10.333 118 -31zM152.999 258c27.333 -22 64.668 -33 112.001 -33c46.667 0 83.667 11 111 33s41 51.667 41 89s-13.667 66.833 -41 88.5s-64.333 32.5 -111 32.5s-83.834 -10.833 -111.501 -32.5
s-41.5 -51.167 -41.5 -88.5s13.667 -67 41 -89zM409.501 -143.5c34.333 19.667 51.501 44.501 51.501 74.501c0 24 -10.833 42.833 -32.5 56.5s-53.167 20.5 -94.5 20.5h-129c-38 0 -68.167 -7.5 -90.5 -22.5s-33.5 -34.833 -33.5 -59.5
c0 -30.667 16.667 -54.834 50 -72.501s80.666 -26.5 141.999 -26.5c56.667 0 102.167 9.83301 136.5 29.5z" />
    <glyph glyph-name="h" unicode="h" horiz-adv-x="598" 
d="M461.5 462c35 -32 52.499 -77.667 52.499 -137v-325h-50v309c0 52.667 -13.167 92.167 -39.5 118.5s-61.833 39.5 -106.5 39.5c-32 0 -61.667 -7.5 -89 -22.5s-49.166 -36.5 -65.499 -64.5s-24.5 -60.667 -24.5 -98v-282h-50v730h50v-329
c16 35.333 40.167 62.333 72.5 81s69.5 28 111.5 28c57.333 0 103.5 -16 138.5 -48z" />
    <glyph glyph-name="i" unicode="i" horiz-adv-x="229" 
d="M83.5 608.5c-7.66699 7.66699 -11.5 17.834 -11.5 30.501s3.83301 22.834 11.5 30.501s17.834 11.5 30.501 11.5s22.834 -3.83301 30.501 -11.5s11.5 -17.834 11.5 -30.501s-3.83301 -22.834 -11.5 -30.501s-17.834 -11.5 -30.501 -11.5s-22.834 3.83301 -30.501 11.5z
M139 0h-50v500h50v-500z" />
    <glyph glyph-name="j" unicode="j" horiz-adv-x="229" 
d="M144 669c8 -8 12 -18 12 -30c0 -11.333 -4 -21.166 -12 -29.499s-18 -12.5 -30 -12.5c-11.333 0 -21.166 4.16699 -29.499 12.5s-12.5 18.166 -12.5 29.499c0 12 4.16699 22 12.5 30s18.166 12 29.499 12c12 0 22 -4 30 -12zM139 -57
c0 -52 -13.6689 -91.332 -41.002 -117.999s-61 -40 -101 -40c-17.333 0 -33.666 2.5 -48.999 7.5s-28 11.833 -38 20.5l12 47c8.66699 -8 19.5 -14.5 32.5 -19.5s26.833 -7.5 41.5 -7.5c28.667 0 51.334 9.66699 68.001 29s25 47.666 25 84.999v553h50v-557z" />
    <glyph glyph-name="k" unicode="k" horiz-adv-x="527" 
d="M257 265l-118 -114v-151h-50v730h50v-516l297 286h65l-207 -200l215 -300h-61z" />
    <glyph glyph-name="l" unicode="l" horiz-adv-x="274" 
d="M135 121c0 -30.667 4.83301 -52.332 14.5 -64.999s25.834 -19 48.501 -19c13.333 0 24.666 1 33.999 3s20 5.66699 32 11l-7 -48c-18.667 -8.66699 -40.667 -13 -66 -13c-36 0 -62.667 10.167 -80 30.5s-26 52.166 -26 95.499v614h50v-609z" />
    <glyph glyph-name="m" unicode="m" horiz-adv-x="960" 
d="M823.5 463c35 -32 52.501 -78.001 52.501 -138.001v-324h-50v319c0 48 -13 84.5 -39 109.5s-61 37.5 -105 37.5c-32 0 -61.167 -7.66699 -87.5 -23s-47.333 -36.666 -63 -63.999s-23.5 -58 -23.5 -92v-288h-50v319c0 48 -13 84.5 -39 109.5s-61 37.5 -105 37.5
c-30.667 0 -59.334 -7.33301 -86.001 -22s-48.167 -36 -64.5 -64s-24.5 -60.333 -24.5 -97v-283h-50v500h45l3 -100c16 34.667 40.333 61.667 73 81s69 29 109 29c42.667 0 80 -10 112 -30s54.333 -49 67 -87c13.333 36.667 37.833 65.5 73.5 86.5s74.5 31.5 116.5 31.5
c55.333 0 100.5 -16 135.5 -48z" />
    <glyph glyph-name="n" unicode="n" horiz-adv-x="598" 
d="M461.5 462c35 -32 52.499 -78 52.499 -138v-324h-50v308c0 53.333 -13 93 -39 119s-61.667 39 -107 39c-32 0 -61.667 -7.33301 -89 -22s-49.166 -36 -65.499 -64s-24.5 -60.667 -24.5 -98v-282h-50v500h45l2 -101c16 36 40.5 63.5 73.5 82.5s70.833 28.5 113.5 28.5
c57.333 0 103.5 -16 138.5 -48z" />
    <glyph glyph-name="o" unicode="o" horiz-adv-x="590" 
d="M469.5 440.5c42.333 -46.333 63.5 -109.833 63.5 -190.5s-21.167 -144.167 -63.5 -190.5s-100.5 -69.5 -174.5 -69.5s-132.167 23.167 -174.5 69.5s-63.5 109.833 -63.5 190.5s21.167 144.167 63.5 190.5s100.5 69.5 174.5 69.5s132.167 -23.167 174.5 -69.5zM157 409
c-33.333 -38.667 -50 -91.667 -50 -159s16.667 -120.333 50 -159s79.333 -58 138 -58s104.667 19.333 138 58s50 91.667 50 159s-16.667 120.333 -50 159s-79.333 58 -138 58s-104.667 -19.333 -138 -58z" />
    <glyph glyph-name="p" unicode="p" horiz-adv-x="609" 
d="M490.5 441c41 -46 61.5 -109.668 61.5 -191.001s-20.5 -145 -61.5 -191s-96.833 -69 -167.5 -69c-42.667 0 -80.167 10.333 -112.5 31s-56.166 49 -71.499 85v-316h-50v710h45l3 -113c14 38.667 37.167 68.834 69.5 90.501s71.166 32.5 116.499 32.5
c70.667 0 126.5 -23 167.5 -69zM453 91.499c32.667 38.333 49 91.166 49 158.499s-16.333 120.166 -49 158.499s-78 57.5 -136 57.5c-52 0 -94 -17.667 -126 -53s-49.333 -83.666 -52 -144.999v-36c2.66699 -61.333 20 -109.666 52 -144.999s74 -53 126 -53
c58 0 103.333 19.167 136 57.5z" />
    <glyph glyph-name="q" unicode="q" horiz-adv-x="610" 
d="M521 500l-0.000976562 -710h-50v316c-15.333 -36 -39 -64.333 -71 -85s-69.667 -31 -113 -31c-70.667 0 -126.5 23 -167.5 69s-61.5 109.667 -61.5 191s20.5 145 61.5 191s96.833 69 167.5 69c44.667 0 83.334 -10.833 116.001 -32.5s56 -51.5 70 -89.5l3 112h45z
M418.499 86.5c31.667 35 49.167 82.498 52.5 142.498v42c-2.66699 60 -20 107.5 -52 142.5s-74 52.5 -126 52.5c-58 0 -103.333 -19.167 -136 -57.5s-49 -91.166 -49 -158.499s16.333 -120.166 49 -158.499s78 -57.5 136 -57.5c52 0 93.833 17.5 125.5 52.5z" />
    <glyph glyph-name="r" unicode="r" horiz-adv-x="378" 
d="M362 493l-13.0029 -47c-15.333 12 -36.666 18 -63.999 18c-25.333 0 -49.166 -7.83301 -71.499 -23.5s-40.333 -37.667 -54 -66s-20.5 -59.833 -20.5 -94.5v-280h-50v500h42l6 -102c14 35.333 34.833 62.833 62.5 82.5s60.834 29.5 99.501 29.5
c26.667 0 47.667 -5.66699 63 -17z" />
    <glyph glyph-name="s" unicode="s" horiz-adv-x="505" 
d="M120 20c-37.333 20 -63 48.999 -77 86.999l41 27c10 -33.333 30.333 -58.333 61 -75s68.334 -25 113.001 -25c45.333 0 80.833 8.66699 106.5 26s38.5 40.333 38.5 69c0 24.667 -11 44.334 -33 59.001s-60.667 27 -116 37c-70 12.667 -119.333 29.667 -148 51
s-43 51.666 -43 90.999c0 26 8 50 24 72s38.667 39.333 68 52s62.666 19 99.999 19c52.667 0 94.834 -10 126.501 -30s53.5 -50.667 65.5 -92l-43 -25c-18.667 68.667 -68.334 103 -149.001 103c-26.667 0 -50.834 -4.33301 -72.501 -13s-38.667 -20.167 -51 -34.5
s-18.5 -29.833 -18.5 -46.5c0 -27.333 11.333 -48.666 34 -63.999s62.667 -28 120 -38c68 -11.333 116 -27.666 144 -48.999s42 -51.333 42 -90c0 -42.667 -18.167 -76.834 -54.5 -102.501s-85.166 -38.5 -146.499 -38.5c-50.667 0 -94.667 10 -132 30z" />
    <glyph glyph-name="t" unicode="t" horiz-adv-x="377" 
d="M365 32c-13.333 -13.333 -29.668 -23.667 -49.001 -31s-40.666 -11 -63.999 -11c-40.667 0 -72.5 11.167 -95.5 33.5s-34.5 56.166 -34.5 101.499v332h-100v43h100v125l50 14v-139h188v-43h-188v-325c0 -31.333 7.5 -55.166 22.5 -71.499s36.833 -24.5 65.5 -24.5
c33.333 0 62.333 12.333 87 37z" />
    <glyph glyph-name="u" unicode="u" horiz-adv-x="593" 
d="M504 500l-0.00195312 -499.999h-45l-2 99c-16.667 -35.333 -41.667 -62.333 -75 -81s-72.666 -28 -117.999 -28c-54.667 0 -98.334 15.167 -131.001 45.5s-49 75.166 -49 134.499v330h50v-318c0 -98.667 46 -148 138 -148c36.667 0 68.834 8 96.501 24
s48.834 37.667 63.501 65s22 57.333 22 90v287h50z" />
    <glyph glyph-name="v" unicode="v" horiz-adv-x="502" 
d="M485 500l-209 -500h-50l-209 500h56l179 -449l180 449h53z" />
    <glyph glyph-name="w" unicode="w" horiz-adv-x="820" 
d="M787 500l-171 -500h-50l-158 437l-154 -437h-50l-171 500h56l140 -441l156 441h50l155 -441l141 441h56z" />
    <glyph glyph-name="x" unicode="x" horiz-adv-x="504" 
d="M419 0l-169 219l-166 -219h-60l198 256l-188 244h64l157 -204l152 204h60l-184 -241l199 -259h-63z" />
    <glyph glyph-name="y" unicode="y" horiz-adv-x="510" 
d="M249 -92c-18.667 -45.333 -39.3311 -77.167 -61.998 -95.5s-51.334 -27.5 -86.001 -27.5c-41.333 0 -73 12.333 -95 37l19 43c16 -24 41.333 -36 76 -36c23.333 0 43.166 6.5 59.499 19.5s31.5 36.833 45.5 71.5l32 80l-52 124l-159 376h57l153 -379l25 -67l27 72
l147 374h54z" />
    <glyph glyph-name="z" unicode="z" horiz-adv-x="505" 
d="M49 39l294 361l52 58l-79 -1h-270v43h405v-39l-285 -352l-60 -67l90 1h267v-43h-414v39z" />
    <glyph glyph-name="braceleft" unicode="{" horiz-adv-x="308" 
d="M277 -139l-7.00098 -40.999c-92 0 -138 39.333 -138 118v224c0 34 -9.33301 59 -28 75s-47 24 -85 24v44c38 0 66.333 8.16699 85 24.5s28 41.166 28 74.499v223c0 38.667 11.333 68.167 34 88.5s57.334 30.5 104.001 30.5l7 -41c-32.667 0 -57.167 -6.33301 -73.5 -19
s-24.5 -31 -24.5 -55v-231c0 -30.667 -8.33301 -56 -25 -76s-40.667 -33.667 -72 -41c31.333 -7.33301 55.333 -21 72 -41s25 -45.333 25 -76v-231c0 -49.333 32.667 -74 98 -74z" />
    <glyph glyph-name="bar" unicode="|" horiz-adv-x="207" 
d="M126 -168h-44v898h44v-898z" />
    <glyph glyph-name="braceright" unicode="}" horiz-adv-x="308" 
d="M204 329.5c18.667 -16.333 46.999 -24.5 84.999 -24.5v-44c-38 0 -66.333 -8 -85 -24s-28 -41 -28 -75v-224c0 -78.667 -46 -118 -138 -118l-7 41c65.333 0 98 24.667 98 74v231c0 30.667 8.33301 56 25 76s40.334 33.667 71.001 41
c-30.667 7.33301 -54.334 21.166 -71.001 41.499s-25 45.5 -25 75.5v231c0 24 -8.16699 42.333 -24.5 55s-40.833 19 -73.5 19l7 41c46.667 0 81.334 -10.167 104.001 -30.5s34 -49.833 34 -88.5v-223c0 -33.333 9.33301 -58.166 28 -74.499z" />
    <glyph glyph-name="asciitilde" unicode="~" horiz-adv-x="511" 
d="M355 266c-21.333 0 -39.501 3.33301 -54.501 10s-33.167 16.667 -54.5 30c-17.333 11.333 -32.166 19.833 -44.499 25.5s-25.833 8.5 -40.5 8.5c-38 0 -61.333 -25.667 -70 -77h-48c8 82 46 123 114 123c20.667 0 38.834 -3.33301 54.501 -10s33.834 -16.667 54.501 -30
c17.333 -11.333 32.166 -19.833 44.499 -25.5s25.833 -8.5 40.5 -8.5c37.333 0 60.666 25.667 69.999 77h47c-8 -82 -45.667 -123 -113 -123z" />
    <glyph glyph-name="uni00A0" unicode="&#xa0;" horiz-adv-x="313" 
 />
    <glyph glyph-name="exclamdown" unicode="&#xa1;" horiz-adv-x="222" 
d="M78.5 430.5c-8.33301 8.33301 -12.5 19.166 -12.5 32.499s4.16699 24.166 12.5 32.499s19.166 12.5 32.499 12.5s24.166 -4.16699 32.499 -12.5s12.5 -19.166 12.5 -32.499s-4.16699 -24.166 -12.5 -32.499s-19.166 -12.5 -32.499 -12.5s-24.166 4.16699 -32.499 12.5z
M85 160l6 150h40l6 -150v-320h-52v320z" />
    <glyph glyph-name="cent" unicode="&#xa2;" horiz-adv-x="553" 
d="M435.5 34c-34.333 -26 -75.501 -40.666 -123.501 -43.999v-90h-42v91c-65.333 6 -116.333 31.667 -153 77s-55 106 -55 182c0 75.333 18.333 135.833 55 181.5s87.667 71.5 153 77.5v91h42v-90c46.667 -2.66699 86 -15.667 118 -39s55.333 -55.333 70 -96l-47 -22
c-10 35.333 -27.167 62.833 -51.5 82.5s-54.166 30.5 -89.499 32.5v-436c38 2.66699 70.167 14.667 96.5 36s43.5 49.666 51.5 84.999l45 -15c-12 -43.333 -35.167 -78 -69.5 -104zM151.499 98.001c27.667 -38 67.167 -60 118.5 -66v435
c-51.333 -6 -90.833 -27.833 -118.5 -65.5s-41.5 -88.167 -41.5 -151.5s13.833 -114 41.5 -152z" />
    <glyph glyph-name="sterling" unicode="&#xa3;" horiz-adv-x="601" 
d="M565 135c0 -48 -11.834 -84.1641 -35.501 -108.497s-56.167 -36.5 -97.5 -36.5c-28.667 0 -53.667 5 -75 15s-45.666 24.667 -72.999 44c-16.667 -18 -37 -32.333 -61 -43s-50.333 -16 -79 -16c-31.333 0 -56.333 7 -75 21s-28 32.667 -28 56c0 22.667 10 41.5 30 56.5
s47 22.5 81 22.5c25.333 0 47.833 -3.83301 67.5 -11.5s38.834 -18.167 57.501 -31.5c8.66699 18 13 38.333 13 61c0 20.667 -3.83301 40.5 -11.5 59.5s-20.5 41.167 -38.5 66.5h-150v41h118c-22.667 30 -38.667 55.833 -48 77.5s-14 44.5 -14 68.5
c0 37.333 8.5 70.666 25.5 99.999s40.833 52.166 71.5 68.499s65.667 24.5 105 24.5c50.667 0 92 -13 124 -39s53 -63.333 63 -112l-44 -23c-7.33301 40.667 -23.333 72.334 -48 95.001s-57 34 -97 34c-47.333 0 -84.833 -12.833 -112.5 -38.5s-41.5 -59.834 -41.5 -102.501
c0 -22 4.66699 -43.333 14 -64s26.666 -48.334 51.999 -83.001l5 -6h198v-41h-171c14 -22.667 24 -43.5 30 -62.5s9 -39.167 9 -60.5c0 -30 -7.33301 -58.667 -22 -86c22 -16.667 41.5 -29.167 58.5 -37.5s37.167 -12.5 60.5 -12.5c32.667 0 57 8.5 73 25.5
s24.333 43.167 25 78.5h41zM209.499 37.0029c18.333 8 33.834 18.999 46.501 32.999c-18 12 -35 21.333 -51 28s-33.333 10 -52 10c-20.667 0 -36.834 -3.66699 -48.501 -11s-17.5 -17.333 -17.5 -30c0 -13.333 5.66699 -23.666 17 -30.999s26.333 -11 45 -11
c22 0 42.167 4 60.5 12z" />
    <glyph glyph-name="currency" unicode="&#xa4;" horiz-adv-x="635" 
d="M473 205l96 -95.001l-32 -32l-96 94c-34 -26.667 -75 -40 -123 -40c-48.667 0 -90.334 13.667 -125.001 41l-94 -95l-33 32l95 96c-25.333 34.667 -38 76.334 -38 125.001c0 48 12.667 89 38 123l-95 94l33 33l94 -94c34.667 27.333 76.334 41 125.001 41
c50 0 92 -14 126 -42l93 95l32 -33l-94 -95c24.667 -34 37 -74.667 37 -122c0 -50 -13 -92 -39 -126zM422.5 219.499c26.333 28.333 39.5 65.5 39.5 111.5c0 45.333 -13.167 82 -39.5 110s-61.166 42 -104.499 42s-78.333 -14 -105 -42s-40 -64.667 -40 -110
c0 -46 13.333 -83.167 40 -111.5s61.667 -42.5 105 -42.5s78.166 14.167 104.499 42.5z" />
    <glyph glyph-name="yen" unicode="&#xa5;" horiz-adv-x="596" 
d="M363 284h157v-38h-200v-91h200v-36h-200v-119h-45v119h-198v36h198v91h-198v38h157l28 -2l-223 378h58l168 -299l32 -64h2l32 64l168 299h58l-224 -378z" />
    <glyph glyph-name="brokenbar" unicode="&#xa6;" horiz-adv-x="220" 
d="M132 366h-44v364h44v-364zM132 -168h-44v364h44v-364z" />
    <glyph glyph-name="section" unicode="&#xa7;" horiz-adv-x="569" 
d="M510 191c-19.333 -22 -44.333 -39.333 -75 -52c16.667 -12.667 28.834 -27.5 36.501 -44.5s11.5 -36.833 11.5 -59.5c0 -26.667 -7.83301 -51 -23.5 -73s-38.334 -39.5 -68.001 -52.5s-64.5 -19.5 -104.5 -19.5c-95.333 0 -160.666 31 -195.999 93l38 31
c12 -27.333 31.167 -47.5 57.5 -60.5s59.833 -19.5 100.5 -19.5c46 0 81.833 8.83301 107.5 26.5s38.5 41.167 38.5 70.5c0 22 -5.66699 40.333 -17 55s-30.333 26.834 -57 36.501s-63.334 17.834 -110.001 24.501c-52 7.33301 -93.167 17 -123.5 29
s-52.166 27.167 -65.499 45.5s-20 41.5 -20 69.5c0 30 9.5 56 28.5 78s43.833 39.333 74.5 52c-16 12.667 -27.833 27.5 -35.5 44.5s-11.5 36.833 -11.5 59.5c0 26.667 7.83301 51 23.5 73s38.5 39.5 68.5 52.5s65.667 19.5 107 19.5c94 0 158 -31 192 -93l-35 -30
c-26.667 52.667 -79.334 79 -158.001 79c-46.667 0 -83 -8.83301 -109 -26.5s-39 -41.167 -39 -70.5c0 -22 5.66699 -40.333 17 -55s30.333 -26.834 57 -36.501s63.334 -17.834 110.001 -24.501c52 -7.33301 93.167 -17 123.5 -29s52.166 -27.167 65.499 -45.5
s20 -41.5 20 -69.5c0 -30 -9.66699 -56 -29 -78zM489 265c0 28.667 -12.667 50.668 -38 66.001s-70 27.333 -134 36c-54.667 7.33301 -96.667 17 -126 29c-67.333 -21.333 -101 -55 -101 -101c0 -28.667 12.5 -50.667 37.5 -66s69.5 -27.333 133.5 -36
c50.667 -6.66699 92.667 -16.334 126 -29.001c68 22 102 55.667 102 101z" />
    <glyph glyph-name="dieresis" unicode="&#xa8;" horiz-adv-x="523" 
d="M198 659.5c7.33301 -7.66699 11 -17.5 11 -29.5s-3.66699 -21.667 -11 -29s-17 -11 -29 -11s-21.833 3.66699 -29.5 11s-11.5 17 -11.5 29s3.83301 21.833 11.5 29.5s17.5 11.5 29.5 11.5s21.667 -3.83301 29 -11.5zM387.5 659.5c7.66699 -7.66699 11.5 -17.5 11.5 -29.5
s-3.83301 -21.667 -11.5 -29s-17.5 -11 -29.5 -11s-21.833 3.66699 -29.5 11s-11.5 17 -11.5 29s3.83301 21.833 11.5 29.5s17.5 11.5 29.5 11.5s21.833 -3.83301 29.5 -11.5z" />
    <glyph glyph-name="copyright" unicode="&#xa9;" horiz-adv-x="809" 
d="M583.5 628c51.667 -28 91.667 -67.667 120 -119s42.5 -111 42.5 -179s-14.167 -127.667 -42.5 -179s-68.333 -91 -120 -119s-111.5 -42 -179.5 -42s-127.833 14 -179.5 42s-91.667 67.833 -120 119.5s-42.5 111.167 -42.5 178.5s14.167 126.833 42.5 178.5
s68.333 91.5 120 119.5s111.5 42 179.5 42s127.833 -14 179.5 -42zM248 592c-44.667 -24.667 -79.167 -59.667 -103.5 -105s-36.5 -97.666 -36.5 -156.999s12.167 -111.666 36.5 -156.999s58.833 -80.333 103.5 -105s96.667 -37 156 -37s111.333 12.333 156 37
s79.334 59.667 104.001 105s37 97.666 37 156.999s-12.333 111.666 -37 156.999s-59.334 80.333 -104.001 105s-96.667 37 -156 37s-111.333 -12.333 -156 -37zM509.5 488c25.667 -16.667 44.499 -40.668 56.499 -72.001l-37 -19c-18 52 -56.667 78 -116 78
c-43.333 0 -77.166 -13 -101.499 -39s-36.5 -62 -36.5 -108s12.167 -82 36.5 -108s58.166 -39 101.499 -39c30.667 0 56.667 7.33301 78 22s36 35.334 44 62.001l36 -15c-11.333 -33.333 -30.666 -59.5 -57.999 -78.5s-60.333 -28.5 -99 -28.5
c-56.667 0 -101.167 16.5 -133.5 49.5s-48.5 78.167 -48.5 135.5s16.167 102.5 48.5 135.5s76.833 49.5 133.5 49.5c38 0 69.833 -8.33301 95.5 -25z" />
    <glyph glyph-name="ordfeminine" unicode="&#xaa;" horiz-adv-x="368" 
d="M357 364l-3.00098 -30.002c-10.667 -4.66699 -21.667 -7 -33 -7c-35.333 0 -55 18.333 -59 55c-10.667 -17.333 -27.5 -30.833 -50.5 -40.5s-48.5 -14.5 -76.5 -14.5c-33.333 0 -59.833 7.16699 -79.5 21.5s-29.5 34.5 -29.5 60.5c0 26.667 10.333 48.167 31 64.5
s53 28.5 97 36.5l103 18v22c0 25.333 -7.66699 45 -23 59s-37.333 21 -66 21c-26.667 0 -48.5 -5.16699 -65.5 -15.5s-29.833 -27.166 -38.5 -50.499l-32 17c8 26.667 23.833 47.334 47.5 62.001s53.834 22 90.501 22c41.333 0 73.333 -9.66699 96 -29s34 -47.333 34 -84
v-156c0 -24.667 10.667 -37 32 -37c10 0 18.333 1.66699 25 5zM220.999 383.498c24 14.333 36.001 33.834 36.001 58.501v56l-88 -17c-34.667 -6.66699 -59.834 -15.334 -75.501 -26.001s-23.5 -25 -23.5 -43c0 -33.333 24.667 -50 74 -50c27.333 0 53 7.16699 77 21.5z
M32 245.999h309v-35h-309v35z" />
    <glyph glyph-name="guillemotleft" unicode="&#xab;" horiz-adv-x="440" 
d="M103 265l136 -196h-56l-134 196l134 196h56zM252 265l136 -196h-56l-134 196l134 196h56z" />
    <glyph glyph-name="logicalnot" unicode="&#xac;" 
d="M537 339v-187h-50v141h-420v46h470z" />
    <glyph glyph-name="uni00AD" unicode="&#xad;" horiz-adv-x="466" 
d="M387 240h-307v51h307v-51z" />
    <glyph glyph-name="registered" unicode="&#xae;" horiz-adv-x="809" 
d="M583.5 628c51.667 -28 91.667 -67.667 120 -119s42.5 -111 42.5 -179s-14.167 -127.667 -42.5 -179s-68.333 -91 -120 -119s-111.5 -42 -179.5 -42s-127.833 14 -179.5 42s-91.667 67.833 -120 119.5s-42.5 111.167 -42.5 178.5s14.167 126.833 42.5 178.5
s68.333 91.5 120 119.5s111.5 42 179.5 42s127.833 -14 179.5 -42zM560 68c44.667 24.667 79.334 59.667 104.001 105s37 97.666 37 156.999s-12.333 111.666 -37 156.999s-59.334 80.333 -104.001 105s-96.667 37 -156 37s-111.333 -12.333 -156 -37
s-79.167 -59.667 -103.5 -105s-36.5 -97.666 -36.5 -156.999s12.167 -111.666 36.5 -156.999s58.833 -80.333 103.5 -105s96.667 -37 156 -37s111.333 12.333 156 37zM537 331.5c-16.667 -18.333 -40 -30.168 -70 -35.501l102 -153h-49l-98 150h-100v-150h-43v370h153
c40.667 0 72.5 -9.66699 95.5 -29s34.5 -46.333 34.5 -81c0 -29.333 -8.33301 -53.166 -25 -71.499zM322 325.998h110c58.667 1.33301 88 27 88 77c0 50.667 -29.333 76 -88 76h-110v-153z" />
    <glyph glyph-name="macron" unicode="&#xaf;" horiz-adv-x="523" 
d="M422 600h-320v42h320v-42z" />
    <glyph glyph-name="degree" unicode="&#xb0;" horiz-adv-x="418" 
d="M98.5 410.5c-28.333 28.333 -42.498 64.5 -42.498 108.5c0 44.667 14.167 81 42.5 109s65.166 42 110.499 42s82.166 -14 110.499 -42s42.5 -64.333 42.5 -109c0 -44 -14.333 -80.167 -43 -108.5s-65.334 -42.5 -110.001 -42.5c-45.333 0 -82.166 14.167 -110.499 42.5z
M287.002 440c20 20.667 30 47 30 79s-10 58.333 -30 79s-46 31 -78 31s-58.167 -10.333 -78.5 -31s-30.5 -47 -30.5 -79s10.167 -58.333 30.5 -79s46.5 -31 78.5 -31s58 10.333 78 31z" />
    <glyph glyph-name="plusminus" unicode="&#xb1;" 
d="M537 406v-47h-211v-227h-47v227h-212v47h212v226h47v-226h211zM67 46h470v-46h-470v46z" />
    <glyph glyph-name="uni00B2" unicode="&#xb2;" horiz-adv-x="348" 
d="M38 366l102.001 80.9971c42 33.333 72.5 62.5 91.5 87.5s28.5 50.167 28.5 75.5c0 26.667 -8.16699 48 -24.5 64s-38.5 24 -66.5 24c-30 0 -53.833 -9.16699 -71.5 -27.5s-27.167 -43.166 -28.5 -74.499l-40 13c2.66699 38.667 16.5 69.334 41.5 92.001
s58.167 34 99.5 34c42.667 0 76 -11.5 100 -34.5s36 -52.5 36 -88.5c0 -55.333 -44.667 -116.666 -134 -183.999l-75 -59v-1c13.333 1.33301 28.666 2 45.999 2h175v-37h-280v33z" />
    <glyph glyph-name="uni00B3" unicode="&#xb3;" horiz-adv-x="336" 
d="M256.5 705.5c22.333 -19.667 33.501 -45.498 33.501 -77.498c0 -25.333 -7.33301 -46.5 -22 -63.5s-32.667 -27.5 -54 -31.5v-1c23.333 -1.33301 43.333 -10.5 60 -27.5s25 -38.833 25 -65.5c0 -33.333 -12.833 -60.333 -38.5 -81s-58.834 -31 -99.501 -31
c-37.333 0 -68 8 -92 24s-40.667 39.333 -50 70l42 19c10.667 -50.667 44.334 -76 101.001 -76c27.333 0 49.333 7.16699 66 21.5s25 33.833 25 58.5c0 22.667 -7.5 40.167 -22.5 52.5s-37.167 18.5 -66.5 18.5h-25v34h23c26 0 46 6.83301 60 20.5s21 31.5 21 53.5
c0 23.333 -7.16699 41.666 -21.5 54.999s-34.5 20 -60.5 20c-24 0 -43.667 -5.83301 -59 -17.5s-25.333 -27.834 -30 -48.501l-41 15c8 28 23.667 49.667 47 65s51.666 23 84.999 23c40 0 71.167 -9.83301 93.5 -29.5z" />
    <glyph glyph-name="acute" unicode="&#xb4;" horiz-adv-x="523" 
d="M384 741l-94 -158h-41l80 158h55z" />
    <glyph glyph-name="uni00B5" unicode="&#xb5;" horiz-adv-x="581" 
d="M501 500l0.000976562 -499.999h-42l-4 101c-16 -34.667 -40.667 -61.834 -74 -81.501s-73.333 -29.5 -120 -29.5c-28 0 -53.167 5.66699 -75.5 17s-40.5 28.333 -54.5 51v-268h-50v710h50v-318c0 -50 12.333 -87.167 37 -111.5s58.667 -36.5 102 -36.5
c50.667 0 92.667 14.833 126 44.5s51.666 67.167 54.999 112.5v309h50z" />
    <glyph glyph-name="paragraph" unicode="&#xb6;" horiz-adv-x="591" 
d="M505 -100h-44.999v718h-134v-718h-46v321c-48.667 0 -91.334 9.16699 -128.001 27.5s-65.167 44 -85.5 77s-30.5 71.167 -30.5 114.5c0 44 10.5 82.667 31.5 116s50.5 59 88.5 77s82.333 27 133 27h216v-760zM136.501 570c-35 -32 -52.5 -75.332 -52.5 -129.999
s17.5 -97.834 52.5 -129.501s82.833 -47.5 143.5 -47.5v355c-60.667 0 -108.5 -16 -143.5 -48z" />
    <glyph glyph-name="periodcentered" unicode="&#xb7;" horiz-adv-x="210" 
d="M137.5 389.5c8.33301 -8.33301 12.5 -19.166 12.5 -32.499s-4.16699 -24 -12.5 -32s-19.166 -12 -32.499 -12s-24.166 4 -32.499 12s-12.5 18.667 -12.5 32s4.16699 24.166 12.5 32.499s19.166 12.5 32.499 12.5s24.166 -4.16699 32.499 -12.5z" />
    <glyph glyph-name="cedilla" unicode="&#xb8;" horiz-adv-x="523" 
d="M260 17c39.333 -15.333 68.499 -34.168 87.499 -56.501s28.5 -46.833 28.5 -73.5c0 -27.333 -9.33301 -50.166 -28 -68.499s-43.667 -27.5 -75 -27.5c-22.667 0 -42.167 3 -58.5 9s-31.166 15.667 -44.499 29l20 35c19.333 -23.333 45 -35 77 -35
c18.667 0 34.167 5.83301 46.5 17.5s18.5 27.167 18.5 46.5c0 21.333 -7.33301 40 -22 56s-42.667 34 -84 54z" />
    <glyph glyph-name="uni00B9" unicode="&#xb9;" horiz-adv-x="220" 
d="M164 730l0.00195312 -397h-45v279c0 21.333 1 44 3 68c-14.667 -15.333 -31.834 -28.833 -51.501 -40.5s-39.834 -20.167 -60.501 -25.5v38c20 5.33301 41.667 15.5 65 30.5s40 30.833 50 47.5h39z" />
    <glyph glyph-name="ordmasculine" unicode="&#xba;" horiz-adv-x="357" 
d="M30 496c0 112.667 49.667 169 149 169c98.667 0 148 -56.333 148 -169s-49.333 -169 -148 -169c-99.333 0 -149 56.333 -149 169zM257 396c16.667 22 25 55.333 25 100s-8.33301 78.167 -25 100.5s-42.667 33.5 -78 33.5s-61.5 -11.167 -78.5 -33.5
s-25.5 -55.833 -25.5 -100.5s8.5 -78 25.5 -100s43.167 -33 78.5 -33s61.333 11 78 33zM40 246h277v-35h-277v35z" />
    <glyph glyph-name="guillemotright" unicode="&#xbb;" horiz-adv-x="437" 
d="M105 461l134 -196l-134 -196h-56l136 196l-136 196h56zM254 461l134 -196l-134 -196h-56l136 196l-136 196h56z" />
    <glyph glyph-name="onequarter" unicode="&#xbc;" horiz-adv-x="716" 
d="M164 665l0.000976562 -397h-45v279c0 13.333 0.666992 36 2 68c-14.667 -15.333 -31.834 -28.833 -51.501 -40.5s-39.5 -20.167 -59.5 -25.5v38c20 5.33301 41.667 15.5 65 30.5s40 30.833 50 47.5h39zM543.001 660h51l-471 -660h-51zM697.001 105h-76v-109h-39v109h-198
v26l187 262h50v-255h76v-33zM582.001 138v156.999c0 13.333 0.666992 33.333 2 60h-2l-12 -20l-9 -14c-3.33301 -5.33301 -7 -10.666 -11 -15.999l-122 -167h154z" />
    <glyph glyph-name="onehalf" unicode="&#xbd;" horiz-adv-x="794" 
d="M164 665l0.000976562 -397h-45v279c0 13.333 0.666992 36 2 68c-14.667 -15.333 -31.834 -28.833 -51.501 -40.5s-39.5 -20.167 -59.5 -25.5v38c20 5.33301 41.667 15.5 65 30.5s40 30.833 50 47.5h39zM543.001 660h51l-471 -660h-51zM484.001 29l102.001 80.9971
c42 33.333 72.5 62.5 91.5 87.5s28.5 50.167 28.5 75.5c0 26.667 -8.16699 48 -24.5 64s-38.5 24 -66.5 24c-30 0 -53.833 -9.16699 -71.5 -27.5s-27.167 -43.166 -28.5 -74.499l-40 13c2.66699 38.667 16.5 69.334 41.5 92.001s58.167 34 99.5 34
c42.667 0 76 -11.5 100 -34.5s36 -52.5 36 -88.5c0 -55.333 -44.667 -116.666 -134 -183.999l-75 -59v-1c13.333 1.33301 28.666 2 45.999 2h175v-37h-280v33z" />
    <glyph glyph-name="threequarters" unicode="&#xbe;" horiz-adv-x="833" 
d="M256.5 640.5c22.333 -19.667 33.501 -45.498 33.501 -77.498c0 -25.333 -7.33301 -46.5 -22 -63.5s-32.667 -27.5 -54 -31.5v-1c23.333 -1.33301 43.333 -10.5 60 -27.5s25 -38.833 25 -65.5c0 -33.333 -12.833 -60.333 -38.5 -81s-58.834 -31 -99.501 -31
c-37.333 0 -68 8 -92 24s-40.667 39.333 -50 70l42 19c10.667 -50.667 44.334 -76 101.001 -76c27.333 0 49.333 7.16699 66 21.5s25 33.833 25 58.5c0 22.667 -7.5 40.167 -22.5 52.5s-37.167 18.5 -66.5 18.5h-25v34h23c26 0 46 6.83301 60 20.5s21 31.5 21 53.5
c0 23.333 -7.16699 41.666 -21.5 54.999s-34.5 20 -60.5 20c-24 0 -43.667 -5.83301 -59 -17.5s-25.333 -27.834 -30 -48.501l-41 15c8 28 23.667 49.667 47 65s51.666 23 84.999 23c40 0 71.167 -9.83301 93.5 -29.5zM659.001 660.002h51l-471 -660h-51zM813.001 105.002
h-76v-109h-39v109h-198v26l187 262h50v-255h76v-33zM698.001 138.002v156.999c0 13.333 0.666992 33.333 2 60h-2l-12 -20l-9 -14c-3.33301 -5.33301 -7 -10.666 -11 -15.999l-122 -167h154z" />
    <glyph glyph-name="questiondown" unicode="&#xbf;" horiz-adv-x="505" 
d="M230 428.5c-8 8.33301 -12 19.166 -12 32.499s4 24.166 12 32.499s18.667 12.5 32 12.5s24.166 -4.16699 32.499 -12.5s12.5 -19.166 12.5 -32.499s-4.16699 -24.166 -12.5 -32.499s-19.166 -12.5 -32.499 -12.5s-24 4.16699 -32 12.5zM100.5 -126.5
c-38.333 30.333 -57.5 71.499 -57.5 123.499c0 108 64.333 175.333 193 202v118h52v-145c-70.667 -16.667 -120.5 -37.667 -149.5 -63s-43.5 -60.666 -43.5 -105.999c0 -40 14 -71.5 42 -94.5s66.333 -34.5 115 -34.5c52 0 92.833 12.833 122.5 38.5s47.5 62.167 53.5 109.5
l44 -25c-10 -53.333 -33.833 -94.833 -71.5 -124.5s-88.167 -44.5 -151.5 -44.5c-60.667 0 -110.167 15.167 -148.5 45.5z" />
    <glyph glyph-name="Agrave" unicode="&#xc0;" horiz-adv-x="625" 
d="M288 743l-83 148h59l65 -148h-41zM470 207h-316l-82 -207h-53l264 660h59l264 -660h-53zM452 253l-115 288l-24 70h-1l-24 -68l-115 -290h279z" />
    <glyph glyph-name="Aacute" unicode="&#xc1;" horiz-adv-x="625" 
d="M331 743h-41l65 148h59zM470 207h-316l-82 -207h-53l264 660h59l264 -660h-53zM452 253l-115 288l-24 70h-1l-24 -68l-115 -290h279z" />
    <glyph glyph-name="Acircumflex" unicode="&#xc2;" horiz-adv-x="625" 
d="M220 739h-47l111 156h58l111 -156h-46l-94 122zM470 207h-316l-82 -207h-53l264 660h59l264 -660h-53zM452 253l-115 288l-24 70h-1l-24 -68l-115 -290h279z" />
    <glyph glyph-name="Atilde" unicode="&#xc3;" horiz-adv-x="625" 
d="M470 207h-316l-82 -207h-53l264 660h59l264 -660h-53zM452 253l-115 288l-24 70h-1l-24 -68l-115 -290h279zM452 778c-16 -18 -38.6699 -27 -68.0029 -27c-18.667 0 -33.834 3.16699 -45.501 9.5s-24.5 15.833 -38.5 28.5c-10.667 10 -20.167 17.5 -28.5 22.5
s-18.166 7.5 -29.499 7.5c-18 0 -31.167 -5.5 -39.5 -16.5s-14.833 -28.5 -19.5 -52.5h-40c4.66699 37.333 14.834 65 30.501 83s38.834 27 69.501 27c18 0 32.833 -3.16699 44.5 -9.5s24.5 -15.833 38.5 -28.5c10.667 -10 20.167 -17.5 28.5 -22.5s17.833 -7.5 28.5 -7.5
c18 0 31.333 5.5 40 16.5s15.334 28.5 20.001 52.5h40c-4.66699 -37.333 -15 -65 -31 -83z" />
    <glyph glyph-name="Adieresis" unicode="&#xc4;" horiz-adv-x="625" 
d="M470 207h-316l-82 -207h-53l264 660h59l264 -660h-53zM452 253l-115 288l-24 70h-1l-24 -68l-115 -290h279zM247 819.5c7.33301 -7.66699 11 -17.5 11 -29.5s-3.66699 -21.667 -11 -29s-17 -11 -29 -11s-21.833 3.66699 -29.5 11s-11.5 17 -11.5 29
s3.83301 21.833 11.5 29.5s17.5 11.5 29.5 11.5s21.667 -3.83301 29 -11.5zM436.5 819.5c7.66699 -7.66699 11.5 -17.5 11.5 -29.5s-3.83301 -21.667 -11.5 -29s-17.5 -11 -29.5 -11s-21.833 3.66699 -29.5 11s-11.5 17 -11.5 29s3.83301 21.833 11.5 29.5
s17.5 11.5 29.5 11.5s21.833 -3.83301 29.5 -11.5z" />
    <glyph glyph-name="Aring" unicode="&#xc5;" horiz-adv-x="625" 
d="M470 207h-316l-82 -207h-53l255 636c-19.333 6.66699 -34.333 17.834 -45 33.501s-16 34.5 -16 56.5c0 28 9.16699 50.833 27.5 68.5s42.5 26.5 72.5 26.5s54.167 -8.83301 72.5 -26.5s27.5 -40.5 27.5 -68.5c0 -22 -5.33301 -40.833 -16 -56.5
s-25.667 -26.834 -45 -33.501l254 -636h-53zM266.5 680.5c11.667 -11.667 27.167 -17.5 46.5 -17.5c18.667 0 34 5.83301 46 17.5s18 26.834 18 45.501s-6 33.667 -18 45s-27.333 17 -46 17c-19.333 0 -34.833 -5.66699 -46.5 -17s-17.5 -26.333 -17.5 -45
s5.83301 -33.834 17.5 -45.501zM452 253l-115 288l-24 70h-1l-24 -68l-115 -290h279z" />
    <glyph glyph-name="AE" unicode="&#xc6;" horiz-adv-x="922" 
d="M880 46v-46h-435v232h-249l-140 -232h-57l402 660h464v-46h-370v-256h288v-46h-288v-266h385zM445 279v335h-20l-201 -335h221z" />
    <glyph glyph-name="Ccedilla" unicode="&#xc7;" horiz-adv-x="669" 
d="M541 45.5c-40 -30.333 -88 -48.167 -144 -53.5c43.333 -28.667 65 -63.667 65 -105c0 -27.333 -9.33301 -50.166 -28 -68.499s-43.667 -27.5 -75 -27.5c-22.667 0 -42.167 3 -58.5 9s-31.166 15.667 -44.499 29l20 35c19.333 -23.333 45 -35 77 -35
c18.667 0 34.167 5.83301 46.5 17.5s18.5 27.167 18.5 46.5s-5.83301 36.166 -17.5 50.499s-33.167 30.166 -64.5 47.499c-55.333 4 -103.666 20.333 -144.999 49s-73.166 67.834 -95.499 117.501s-33.5 107.167 -33.5 172.5c0 68.667 12.333 128.667 37 180
s59.667 90.833 105 118.5s97.666 41.5 156.999 41.5c132 0 217.333 -54.333 256 -163l-49 -23c-15.333 46.667 -39.833 81.667 -73.5 105s-77.167 35 -130.5 35c-49.333 0 -92.833 -11.833 -130.5 -35.5s-66.834 -57.667 -87.501 -102s-31 -96.5 -31 -156.5
s10.167 -112.167 30.5 -156.5s49 -78.333 86 -102s80.5 -35.5 130.5 -35.5c53.333 0 98.666 13 135.999 39s63.333 63 78 111l50 -19c-16.667 -50.667 -45 -91.167 -85 -121.5z" />
    <glyph glyph-name="Egrave" unicode="&#xc8;" horiz-adv-x="612" 
d="M321 743l-83 148h59l65 -148h-41zM571 46v-46h-467v660h451v-46h-401v-255h317v-47h-317v-266h417z" />
    <glyph glyph-name="Eacute" unicode="&#xc9;" horiz-adv-x="612" 
d="M343 743h-42l66 148h58zM571 46v-46h-467v660h451v-46h-401v-255h317v-47h-317v-266h417z" />
    <glyph glyph-name="Ecircumflex" unicode="&#xca;" horiz-adv-x="612" 
d="M236 739h-47l111 156h58l111 -156h-46l-94 122zM571 46v-46h-467v660h451v-46h-401v-255h317v-47h-317v-266h417z" />
    <glyph glyph-name="Edieresis" unicode="&#xcb;" horiz-adv-x="612" 
d="M571 46v-46h-467v660h451v-46h-401v-255h317v-47h-317v-266h417zM263 819.5c7.33301 -7.66699 11 -17.5 11 -29.5s-3.66699 -21.667 -11 -29s-17 -11 -29 -11s-21.833 3.66699 -29.5 11s-11.5 17 -11.5 29s3.83301 21.833 11.5 29.5s17.5 11.5 29.5 11.5
s21.667 -3.83301 29 -11.5zM452.5 819.5c7.66699 -7.66699 11.5 -17.5 11.5 -29.5s-3.83301 -21.667 -11.5 -29s-17.5 -11 -29.5 -11s-21.833 3.66699 -29.5 11s-11.5 17 -11.5 29s3.83301 21.833 11.5 29.5s17.5 11.5 29.5 11.5s21.833 -3.83301 29.5 -11.5z" />
    <glyph glyph-name="Igrave" unicode="&#xcc;" horiz-adv-x="258" 
d="M145 743h-41l-83 148h59zM154 0h-50v660h50v-660z" />
    <glyph glyph-name="Iacute" unicode="&#xcd;" horiz-adv-x="258" 
d="M230 891l-83 -148h-41l65 148h59zM154 0h-50v660h50v-660z" />
    <glyph glyph-name="Icircumflex" unicode="&#xce;" horiz-adv-x="258" 
d="M223 739l-94 122l-93 -122h-47l111 156h58l111 -156h-46zM154 0h-50v660h50v-660z" />
    <glyph glyph-name="Idieresis" unicode="&#xcf;" horiz-adv-x="258" 
d="M85 819.5c7.33301 -7.66699 11 -17.5 11 -29.5s-3.66699 -21.667 -11 -29s-17.333 -11 -30 -11c-12 0 -21.667 3.66699 -29 11s-11 17 -11 29s3.66699 21.833 11 29.5s17 11.5 29 11.5c12.667 0 22.667 -3.83301 30 -11.5zM231.5 819.5
c7.66699 -7.66699 11.5 -17.5 11.5 -29.5s-3.83301 -21.667 -11.5 -29s-17.5 -11 -29.5 -11s-21.667 3.66699 -29 11s-11 17 -11 29s3.66699 21.833 11 29.5s17 11.5 29 11.5s21.833 -3.83301 29.5 -11.5zM154 0h-50v660h50v-660z" />
    <glyph glyph-name="Eth" unicode="&#xd0;" horiz-adv-x="715" 
d="M568 576.5c56.667 -55.667 85 -136.167 85 -241.5c0 -108 -28.333 -190.833 -85 -248.5s-138 -86.5 -244 -86.5h-208v314h-100v39h100v307h208c106 0 187.333 -27.833 244 -83.5zM530.5 121c47 50 70.5 121.334 70.5 214.001c0 89.333 -23.5 158.166 -70.5 206.499
s-114.167 72.5 -201.5 72.5h-163v-261h202v-39h-202v-268h163c87.333 0 154.5 25 201.5 75z" />
    <glyph glyph-name="Ntilde" unicode="&#xd1;" horiz-adv-x="715" 
d="M611 0h-62l-350 518l-49 88h-1l3 -83v-523h-48v660h63l349 -517l50 -89l-2 83v523h47v-660zM502 778c-16 -18 -38.6699 -27 -68.0029 -27c-18.667 0 -33.834 3.16699 -45.501 9.5s-24.5 15.833 -38.5 28.5c-10.667 10 -20.167 17.5 -28.5 22.5s-18.166 7.5 -29.499 7.5
c-18 0 -31.167 -5.5 -39.5 -16.5s-14.833 -28.5 -19.5 -52.5h-40c4.66699 37.333 14.834 65 30.501 83s38.834 27 69.501 27c18 0 32.833 -3.16699 44.5 -9.5s24.5 -15.833 38.5 -28.5c10.667 -10 20.167 -17.5 28.5 -22.5s17.833 -7.5 28.5 -7.5c18 0 31.333 5.5 40 16.5
s15.334 28.5 20.001 52.5h40c-4.66699 -37.333 -15 -65 -31 -83z" />
    <glyph glyph-name="Ograve" unicode="&#xd2;" horiz-adv-x="732" 
d="M382 743h-41l-83 148h59zM527.5 628.5c45.667 -27.667 80.834 -67 105.501 -118s37 -111.167 37 -180.5s-12.333 -129.5 -37 -180.5s-59.834 -90.333 -105.501 -118s-99.5 -41.5 -161.5 -41.5s-115.833 13.833 -161.5 41.5s-80.834 67 -105.501 118
s-37 111.167 -37 180.5s12.333 129.5 37 180.5s59.834 90.333 105.501 118s99.5 41.5 161.5 41.5s115.833 -13.833 161.5 -41.5zM232.5 588.5c-37.667 -23.667 -66.667 -57.667 -87 -102s-30.5 -96.5 -30.5 -156.5s10.167 -112.167 30.5 -156.5s49.333 -78.333 87 -102
s82.167 -35.5 133.5 -35.5s96 11.833 134 35.5s67.167 57.667 87.5 102s30.5 96.5 30.5 156.5s-10.167 112.167 -30.5 156.5s-49.5 78.333 -87.5 102s-82.667 35.5 -134 35.5s-95.833 -11.833 -133.5 -35.5z" />
    <glyph glyph-name="Oacute" unicode="&#xd3;" horiz-adv-x="732" 
d="M467 891l-83 -148h-41l65 148h59zM527.5 628.5c45.667 -27.667 80.834 -67 105.501 -118s37 -111.167 37 -180.5s-12.333 -129.5 -37 -180.5s-59.834 -90.333 -105.501 -118s-99.5 -41.5 -161.5 -41.5s-115.833 13.833 -161.5 41.5s-80.834 67 -105.501 118
s-37 111.167 -37 180.5s12.333 129.5 37 180.5s59.834 90.333 105.501 118s99.5 41.5 161.5 41.5s115.833 -13.833 161.5 -41.5zM232.5 588.5c-37.667 -23.667 -66.667 -57.667 -87 -102s-30.5 -96.5 -30.5 -156.5s10.167 -112.167 30.5 -156.5s49.333 -78.333 87 -102
s82.167 -35.5 133.5 -35.5s96 11.833 134 35.5s67.167 57.667 87.5 102s30.5 96.5 30.5 156.5s-10.167 112.167 -30.5 156.5s-49.5 78.333 -87.5 102s-82.667 35.5 -134 35.5s-95.833 -11.833 -133.5 -35.5z" />
    <glyph glyph-name="Ocircumflex" unicode="&#xd4;" horiz-adv-x="732" 
d="M460 739l-94 122l-93 -122h-47l111 156h58l111 -156h-46zM527.5 628.5c45.667 -27.667 80.834 -67 105.501 -118s37 -111.167 37 -180.5s-12.333 -129.5 -37 -180.5s-59.834 -90.333 -105.501 -118s-99.5 -41.5 -161.5 -41.5s-115.833 13.833 -161.5 41.5
s-80.834 67 -105.501 118s-37 111.167 -37 180.5s12.333 129.5 37 180.5s59.834 90.333 105.501 118s99.5 41.5 161.5 41.5s115.833 -13.833 161.5 -41.5zM232.5 588.5c-37.667 -23.667 -66.667 -57.667 -87 -102s-30.5 -96.5 -30.5 -156.5s10.167 -112.167 30.5 -156.5
s49.333 -78.333 87 -102s82.167 -35.5 133.5 -35.5s96 11.833 134 35.5s67.167 57.667 87.5 102s30.5 96.5 30.5 156.5s-10.167 112.167 -30.5 156.5s-49.5 78.333 -87.5 102s-82.667 35.5 -134 35.5s-95.833 -11.833 -133.5 -35.5z" />
    <glyph glyph-name="Otilde" unicode="&#xd5;" horiz-adv-x="732" 
d="M527.5 628.5c45.667 -27.667 80.834 -67 105.501 -118s37 -111.167 37 -180.5s-12.333 -129.5 -37 -180.5s-59.834 -90.333 -105.501 -118s-99.5 -41.5 -161.5 -41.5s-115.833 13.833 -161.5 41.5s-80.834 67 -105.501 118s-37 111.167 -37 180.5s12.333 129.5 37 180.5
s59.834 90.333 105.501 118s99.5 41.5 161.5 41.5s115.833 -13.833 161.5 -41.5zM232.5 588.5c-37.667 -23.667 -66.667 -57.667 -87 -102s-30.5 -96.5 -30.5 -156.5s10.167 -112.167 30.5 -156.5s49.333 -78.333 87 -102s82.167 -35.5 133.5 -35.5s96 11.833 134 35.5
s67.167 57.667 87.5 102s30.5 96.5 30.5 156.5s-10.167 112.167 -30.5 156.5s-49.5 78.333 -87.5 102s-82.667 35.5 -134 35.5s-95.833 -11.833 -133.5 -35.5zM505 778c-16 -18 -38.6699 -27 -68.0029 -27c-18.667 0 -33.834 3.16699 -45.501 9.5s-24.5 15.833 -38.5 28.5
c-10.667 10 -20.167 17.5 -28.5 22.5s-18.166 7.5 -29.499 7.5c-18 0 -31.167 -5.5 -39.5 -16.5s-14.833 -28.5 -19.5 -52.5h-40c4.66699 37.333 14.834 65 30.501 83s38.834 27 69.501 27c18 0 32.833 -3.16699 44.5 -9.5s24.5 -15.833 38.5 -28.5
c10.667 -10 20.167 -17.5 28.5 -22.5s17.833 -7.5 28.5 -7.5c18 0 31.333 5.5 40 16.5s15.334 28.5 20.001 52.5h40c-4.66699 -37.333 -15 -65 -31 -83z" />
    <glyph glyph-name="Odieresis" unicode="&#xd6;" horiz-adv-x="732" 
d="M527.5 628.5c45.667 -27.667 80.834 -67 105.501 -118s37 -111.167 37 -180.5s-12.333 -129.5 -37 -180.5s-59.834 -90.333 -105.501 -118s-99.5 -41.5 -161.5 -41.5s-115.833 13.833 -161.5 41.5s-80.834 67 -105.501 118s-37 111.167 -37 180.5s12.333 129.5 37 180.5
s59.834 90.333 105.501 118s99.5 41.5 161.5 41.5s115.833 -13.833 161.5 -41.5zM232.5 588.5c-37.667 -23.667 -66.667 -57.667 -87 -102s-30.5 -96.5 -30.5 -156.5s10.167 -112.167 30.5 -156.5s49.333 -78.333 87 -102s82.167 -35.5 133.5 -35.5s96 11.833 134 35.5
s67.167 57.667 87.5 102s30.5 96.5 30.5 156.5s-10.167 112.167 -30.5 156.5s-49.5 78.333 -87.5 102s-82.667 35.5 -134 35.5s-95.833 -11.833 -133.5 -35.5zM300 819.5c7.33301 -7.66699 11 -17.5 11 -29.5s-3.66699 -21.667 -11 -29s-17 -11 -29 -11
s-21.833 3.66699 -29.5 11s-11.5 17 -11.5 29s3.83301 21.833 11.5 29.5s17.5 11.5 29.5 11.5s21.667 -3.83301 29 -11.5zM489.5 819.5c7.66699 -7.66699 11.5 -17.5 11.5 -29.5s-3.83301 -21.667 -11.5 -29s-17.5 -11 -29.5 -11s-21.833 3.66699 -29.5 11
s-11.5 17 -11.5 29s3.83301 21.833 11.5 29.5s17.5 11.5 29.5 11.5s21.833 -3.83301 29.5 -11.5z" />
    <glyph glyph-name="multiply" unicode="&#xd7;" 
d="M336 315l166 -166l-34 -35l-166 167l-167 -167l-34 35l166 166l-166 166l34 35l167 -167l166 167l34 -35z" />
    <glyph glyph-name="Oslash" unicode="&#xd8;" horiz-adv-x="732" 
d="M646 478.5c16 -44.333 24.001 -93.833 24.001 -148.5c0 -69.333 -12.333 -129.5 -37 -180.5s-59.834 -90.333 -105.501 -118s-99.5 -41.5 -161.5 -41.5c-70 0 -129.333 17.333 -178 52l-54 -76h-47l71 101c-30.667 30 -54.334 67.333 -71.001 112s-25 95 -25 151
c0 69.333 12.333 129.5 37 180.5s59.834 90.333 105.501 118s99.5 41.5 161.5 41.5c71.333 0 132 -18.333 182 -55l50 71h48l-69 -96c30 -30 53 -67.167 69 -111.5zM133.501 203c12.333 -37.333 30.5 -68.668 54.5 -94.001l331 466c-42 32.667 -93 49 -153 49
c-51.333 0 -95.833 -11.833 -133.5 -35.5s-66.667 -57.667 -87 -102s-30.5 -96.5 -30.5 -156.5c0 -47.333 6.16699 -89.666 18.5 -126.999zM500.001 71.498c38 23.667 67.167 57.667 87.5 102s30.5 96.5 30.5 156.5c0 46 -6.16699 87.333 -18.5 124s-29.833 68 -52.5 94
l-330 -465c42 -31.333 91.667 -47 149 -47c51.333 0 96 11.833 134 35.5z" />
    <glyph glyph-name="Ugrave" unicode="&#xd9;" horiz-adv-x="701" 
d="M376 743h-41l-83 148h59zM605 241c0 -81.333 -22.002 -143.5 -66.002 -186.5s-106.667 -64.5 -188 -64.5s-144.166 21.5 -188.499 64.5s-66.5 105.167 -66.5 186.5v419h50v-409c0 -70.667 17.333 -124.167 52 -160.5s85.667 -54.5 153 -54.5
c66.667 0 117.334 18.167 152.001 54.5s52 89.833 52 160.5v409h50v-419z" />
    <glyph glyph-name="Uacute" unicode="&#xda;" horiz-adv-x="701" 
d="M452 891l-83 -148h-41l65 148h59zM605 241c0 -81.333 -22.002 -143.5 -66.002 -186.5s-106.667 -64.5 -188 -64.5s-144.166 21.5 -188.499 64.5s-66.5 105.167 -66.5 186.5v419h50v-409c0 -70.667 17.333 -124.167 52 -160.5s85.667 -54.5 153 -54.5
c66.667 0 117.334 18.167 152.001 54.5s52 89.833 52 160.5v409h50v-419z" />
    <glyph glyph-name="Ucircumflex" unicode="&#xdb;" horiz-adv-x="701" 
d="M445 739l-94 122l-93 -122h-47l111 156h58l111 -156h-46zM605 241c0 -81.333 -22.002 -143.5 -66.002 -186.5s-106.667 -64.5 -188 -64.5s-144.166 21.5 -188.499 64.5s-66.5 105.167 -66.5 186.5v419h50v-409c0 -70.667 17.333 -124.167 52 -160.5
s85.667 -54.5 153 -54.5c66.667 0 117.334 18.167 152.001 54.5s52 89.833 52 160.5v409h50v-419z" />
    <glyph glyph-name="Udieresis" unicode="&#xdc;" horiz-adv-x="701" 
d="M605 241c0 -81.333 -22.002 -143.5 -66.002 -186.5s-106.667 -64.5 -188 -64.5s-144.166 21.5 -188.499 64.5s-66.5 105.167 -66.5 186.5v419h50v-409c0 -70.667 17.333 -124.167 52 -160.5s85.667 -54.5 153 -54.5c66.667 0 117.334 18.167 152.001 54.5
s52 89.833 52 160.5v409h50v-419zM284.998 819.5c7.33301 -7.66699 11 -17.5 11 -29.5s-3.66699 -21.667 -11 -29s-17 -11 -29 -11s-21.833 3.66699 -29.5 11s-11.5 17 -11.5 29s3.83301 21.833 11.5 29.5s17.5 11.5 29.5 11.5s21.667 -3.83301 29 -11.5zM474.498 819.5
c7.66699 -7.66699 11.5 -17.5 11.5 -29.5s-3.83301 -21.667 -11.5 -29s-17.5 -11 -29.5 -11s-21.833 3.66699 -29.5 11s-11.5 17 -11.5 29s3.83301 21.833 11.5 29.5s17.5 11.5 29.5 11.5s21.833 -3.83301 29.5 -11.5z" />
    <glyph glyph-name="Yacute" unicode="&#xdd;" horiz-adv-x="544" 
d="M373 891l-83 -148h-41l65 148h59zM297 257v-257h-50v257l-234 403h59l200 -351l200 351h59z" />
    <glyph glyph-name="Thorn" unicode="&#xde;" horiz-adv-x="599" 
d="M491 484c40 -33.333 60 -82.001 60 -146.001c0 -63.333 -20.167 -111.666 -60.5 -144.999s-99.833 -50 -178.5 -50h-158v-143h-50v660h50v-126h158c79.333 0 139 -16.667 179 -50zM499 337.999c0 100 -59.667 150 -179 150h-166v-299h166c119.333 0 179 49.667 179 149z
" />
    <glyph glyph-name="germandbls" unicode="&#xdf;" horiz-adv-x="590" 
d="M488 327.5c31.333 -37 47.0029 -82.834 47.0029 -137.501c0 -37.333 -8.16699 -71.166 -24.5 -101.499s-39.833 -54.333 -70.5 -72s-67.334 -26.5 -110.001 -26.5c-21.333 0 -41.666 3.5 -60.999 10.5s-34 16.167 -44 27.5l17 39c21.333 -21.333 51.333 -32 90 -32
c47.333 0 84.833 14.667 112.5 44s41.5 68 41.5 116c0 53.333 -16.333 93.833 -49 121.5s-78 41.5 -136 41.5h-41v46h41c47.333 0 85 13.5 113 40.5s42 63.167 42 108.5c0 44 -13 77.667 -39 101s-63 35 -111 35c-58 0 -100.333 -16.667 -127 -50s-40 -83.666 -40 -150.999
v-488h-50v506c0 152.667 74 229 222 229c43.333 0 79.666 -8.16699 108.999 -24.5s51.166 -38.166 65.499 -65.499s21.5 -57.333 21.5 -90c0 -29.333 -6.16699 -56.833 -18.5 -82.5s-30.333 -46.334 -54 -62.001s-51.834 -23.834 -84.501 -24.501v-2
c60.667 -0.666992 106.667 -19.5 138 -56.5z" />
    <glyph glyph-name="agrave" unicode="&#xe0;" horiz-adv-x="543" 
d="M530 40l-3.00098 -40c-12 -6.66699 -28.333 -10 -49 -10c-23.333 0 -42.333 6.33301 -57 19s-23 34.667 -25 66c-15.333 -26.667 -40 -47.5 -74 -62.5s-69.667 -22.5 -107 -22.5c-49.333 0 -88.833 11 -118.5 33s-44.5 53.333 -44.5 94c0 77.333 63.333 127.333 190 150
l153 27v44c0 40 -11.833 71.333 -35.5 94s-57.167 34 -100.5 34c-79.333 0 -132.666 -35.333 -159.999 -106l-38 28c14.667 39.333 39 69.5 73 90.5s75.667 31.5 125 31.5c58 0 103.5 -14.167 136.5 -42.5s49.5 -69.5 49.5 -123.5v-258c0 -35.333 15.333 -53 46 -53
c16.667 0 29.667 2.33301 39 7zM301.999 48.5c26.667 9.66699 48.832 24 66.499 43s26.5 41.833 26.5 68.5v93l-137 -25c-54 -10 -93.333 -24 -118 -42s-37 -41 -37 -69c0 -26.667 10.333 -47.167 31 -61.5s49.334 -21.5 86.001 -21.5c28 0 55.333 4.83301 82 14.5z
M287.997 583h-42l-93 158h54z" />
    <glyph glyph-name="aacute" unicode="&#xe1;" horiz-adv-x="543" 
d="M530 40l-3.00098 -40c-12 -6.66699 -28.333 -10 -49 -10c-23.333 0 -42.333 6.33301 -57 19s-23 34.667 -25 66c-15.333 -26.667 -40 -47.5 -74 -62.5s-69.667 -22.5 -107 -22.5c-49.333 0 -88.833 11 -118.5 33s-44.5 53.333 -44.5 94c0 77.333 63.333 127.333 190 150
l153 27v44c0 40 -11.833 71.333 -35.5 94s-57.167 34 -100.5 34c-79.333 0 -132.666 -35.333 -159.999 -106l-38 28c14.667 39.333 39 69.5 73 90.5s75.667 31.5 125 31.5c58 0 103.5 -14.167 136.5 -42.5s49.5 -69.5 49.5 -123.5v-258c0 -35.333 15.333 -53 46 -53
c16.667 0 29.667 2.33301 39 7zM301.999 48.5c26.667 9.66699 48.832 24 66.499 43s26.5 41.833 26.5 68.5v93l-137 -25c-54 -10 -93.333 -24 -118 -42s-37 -41 -37 -69c0 -26.667 10.333 -47.167 31 -61.5s49.334 -21.5 86.001 -21.5c28 0 55.333 4.83301 82 14.5z
M365.997 741l-94 -158h-41l80 158h55z" />
    <glyph glyph-name="acircumflex" unicode="&#xe2;" horiz-adv-x="543" 
d="M530 40l-3.00098 -40c-12 -6.66699 -28.333 -10 -49 -10c-23.333 0 -42.333 6.33301 -57 19s-23 34.667 -25 66c-15.333 -26.667 -40 -47.5 -74 -62.5s-69.667 -22.5 -107 -22.5c-49.333 0 -88.833 11 -118.5 33s-44.5 53.333 -44.5 94c0 77.333 63.333 127.333 190 150
l153 27v44c0 40 -11.833 71.333 -35.5 94s-57.167 34 -100.5 34c-79.333 0 -132.666 -35.333 -159.999 -106l-38 28c14.667 39.333 39 69.5 73 90.5s75.667 31.5 125 31.5c58 0 103.5 -14.167 136.5 -42.5s49.5 -69.5 49.5 -123.5v-258c0 -35.333 15.333 -53 46 -53
c16.667 0 29.667 2.33301 39 7zM301.999 48.5c26.667 9.66699 48.832 24 66.499 43s26.5 41.833 26.5 68.5v93l-137 -25c-54 -10 -93.333 -24 -118 -42s-37 -41 -37 -69c0 -26.667 10.333 -47.167 31 -61.5s49.334 -21.5 86.001 -21.5c28 0 55.333 4.83301 82 14.5z
M351.997 579l-92 120l-92 -120h-47l110 156h57l111 -156h-47z" />
    <glyph glyph-name="atilde" unicode="&#xe3;" horiz-adv-x="543" 
d="M530 40l-3.00098 -40c-12 -6.66699 -28.333 -10 -49 -10c-23.333 0 -42.333 6.33301 -57 19s-23 34.667 -25 66c-15.333 -26.667 -40 -47.5 -74 -62.5s-69.667 -22.5 -107 -22.5c-49.333 0 -88.833 11 -118.5 33s-44.5 53.333 -44.5 94c0 77.333 63.333 127.333 190 150
l153 27v44c0 40 -11.833 71.333 -35.5 94s-57.167 34 -100.5 34c-79.333 0 -132.666 -35.333 -159.999 -106l-38 28c14.667 39.333 39 69.5 73 90.5s75.667 31.5 125 31.5c58 0 103.5 -14.167 136.5 -42.5s49.5 -69.5 49.5 -123.5v-258c0 -35.333 15.333 -53 46 -53
c16.667 0 29.667 2.33301 39 7zM301.999 48.5c26.667 9.66699 48.832 24 66.499 43s26.5 41.833 26.5 68.5v93l-137 -25c-54 -10 -93.333 -24 -118 -42s-37 -41 -37 -69c0 -26.667 10.333 -47.167 31 -61.5s49.334 -21.5 86.001 -21.5c28 0 55.333 4.83301 82 14.5z
M398.997 618c-16 -18 -38.6699 -27 -68.0029 -27c-18.667 0 -33.834 3.16699 -45.501 9.5s-24.5 15.833 -38.5 28.5c-10.667 10 -20.167 17.5 -28.5 22.5s-18.166 7.5 -29.499 7.5c-18 0 -31.167 -5.5 -39.5 -16.5s-14.833 -28.5 -19.5 -52.5h-40
c4.66699 37.333 14.834 65 30.501 83s38.834 27 69.501 27c18 0 32.833 -3.16699 44.5 -9.5s24.5 -15.833 38.5 -28.5c10.667 -10 20.167 -17.5 28.5 -22.5s17.833 -7.5 28.5 -7.5c18 0 31.333 5.5 40 16.5s15.334 28.5 20.001 52.5h40c-4.66699 -37.333 -15 -65 -31 -83z
" />
    <glyph glyph-name="adieresis" unicode="&#xe4;" horiz-adv-x="543" 
d="M530 40l-3.00098 -40c-12 -6.66699 -28.333 -10 -49 -10c-23.333 0 -42.333 6.33301 -57 19s-23 34.667 -25 66c-15.333 -26.667 -40 -47.5 -74 -62.5s-69.667 -22.5 -107 -22.5c-49.333 0 -88.833 11 -118.5 33s-44.5 53.333 -44.5 94c0 77.333 63.333 127.333 190 150
l153 27v44c0 40 -11.833 71.333 -35.5 94s-57.167 34 -100.5 34c-79.333 0 -132.666 -35.333 -159.999 -106l-38 28c14.667 39.333 39 69.5 73 90.5s75.667 31.5 125 31.5c58 0 103.5 -14.167 136.5 -42.5s49.5 -69.5 49.5 -123.5v-258c0 -35.333 15.333 -53 46 -53
c16.667 0 29.667 2.33301 39 7zM301.999 48.5c26.667 9.66699 48.832 24 66.499 43s26.5 41.833 26.5 68.5v93l-137 -25c-54 -10 -93.333 -24 -118 -42s-37 -41 -37 -69c0 -26.667 10.333 -47.167 31 -61.5s49.334 -21.5 86.001 -21.5c28 0 55.333 4.83301 82 14.5z
M193.997 659.5c7.33301 -7.66699 11 -17.5 11 -29.5s-3.66699 -21.667 -11 -29s-17 -11 -29 -11s-21.833 3.66699 -29.5 11s-11.5 17 -11.5 29s3.83301 21.833 11.5 29.5s17.5 11.5 29.5 11.5s21.667 -3.83301 29 -11.5zM383.497 659.5
c7.66699 -7.66699 11.5 -17.5 11.5 -29.5s-3.83301 -21.667 -11.5 -29s-17.5 -11 -29.5 -11s-21.833 3.66699 -29.5 11s-11.5 17 -11.5 29s3.83301 21.833 11.5 29.5s17.5 11.5 29.5 11.5s21.833 -3.83301 29.5 -11.5z" />
    <glyph glyph-name="aring" unicode="&#xe5;" horiz-adv-x="543" 
d="M530 40l-3.00098 -40c-12 -6.66699 -28.333 -10 -49 -10c-23.333 0 -42.333 6.33301 -57 19s-23 34.667 -25 66c-15.333 -26.667 -40 -47.5 -74 -62.5s-69.667 -22.5 -107 -22.5c-49.333 0 -88.833 11 -118.5 33s-44.5 53.333 -44.5 94c0 77.333 63.333 127.333 190 150
l153 27v44c0 40 -11.833 71.333 -35.5 94s-57.167 34 -100.5 34c-79.333 0 -132.666 -35.333 -159.999 -106l-38 28c14.667 39.333 39 69.5 73 90.5s75.667 31.5 125 31.5c58 0 103.5 -14.167 136.5 -42.5s49.5 -69.5 49.5 -123.5v-258c0 -35.333 15.333 -53 46 -53
c16.667 0 29.667 2.33301 39 7zM301.999 48.5c26.667 9.66699 48.832 24 66.499 43s26.5 41.833 26.5 68.5v93l-137 -25c-54 -10 -93.333 -24 -118 -42s-37 -41 -37 -69c0 -26.667 10.333 -47.167 31 -61.5s49.334 -21.5 86.001 -21.5c28 0 55.333 4.83301 82 14.5z
M332.497 748c19.667 -18.667 29.5 -42.667 29.5 -72s-9.83301 -53.5 -29.5 -72.5s-44.834 -28.5 -75.501 -28.5s-55.834 9.5 -75.501 28.5s-29.5 43.167 -29.5 72.5s9.83301 53.333 29.5 72s44.834 28 75.501 28s55.834 -9.33301 75.501 -28zM208.497 724
c-13 -12.667 -19.5 -28.667 -19.5 -48s6.5 -35.5 19.5 -48.5s29.167 -19.5 48.5 -19.5c20 0 36.5 6.5 49.5 19.5s19.5 29.167 19.5 48.5s-6.5 35.333 -19.5 48s-29.5 19 -49.5 19c-19.333 0 -35.5 -6.33301 -48.5 -19z" />
    <glyph glyph-name="ae" unicode="&#xe6;" horiz-adv-x="876" 
d="M820 237l-376.001 -0.000976562c2 -62.667 18.667 -112.167 50 -148.5s72.333 -54.5 123 -54.5c40.667 0 73.334 7.66699 98.001 23s43.334 38.333 56.001 69l41 -22c-18.667 -37.333 -43.334 -65.666 -74.001 -84.999s-71 -29 -121 -29
c-48 0 -88.833 11.833 -122.5 35.5s-58.167 58.5 -73.5 104.5c-10.667 -46.667 -35.5 -81.667 -74.5 -105s-83.833 -35 -134.5 -35c-48.667 0 -87.5 11.167 -116.5 33.5s-43.5 53.5 -43.5 93.5c0 39.333 15.333 71.833 46 97.5s77 42.167 139 49.5l162 18v55
c0 40.667 -12.167 72.334 -36.5 95.001s-58.833 34 -103.5 34c-78 0 -131.333 -35.333 -160 -106l-38 28c14.667 40 39.167 70.333 73.5 91s76.166 31 125.499 31c44.667 0 81.834 -9.83301 111.501 -29.5s50.167 -48.5 61.5 -86.5c17.333 36.667 41.333 65.167 72 85.5
s66.667 30.5 108 30.5c68 0 119.833 -21.333 155.5 -64s53.5 -101.334 53.5 -176.001c0 -10 -0.666992 -21 -2 -33zM496.999 417.499c-30 -32.333 -47.333 -77.5 -52 -135.5h330c-7.33301 122.667 -61.333 184 -162 184c-47.333 0 -86 -16.167 -116 -48.5zM304.999 50.999
c27.333 11.333 49.834 29 67.501 53s26.5 53.667 26.5 89v50l-146 -19c-52.667 -6 -90.834 -18 -114.501 -36s-35.5 -41.667 -35.5 -71c0 -27.333 10.667 -48 32 -62s50 -21 86 -21c28.667 0 56.667 5.66699 84 17z" />
    <glyph glyph-name="ccedilla" unicode="&#xe7;" horiz-adv-x="545" 
d="M434.5 36.5c-31.667 -25.667 -70.1699 -40.833 -115.503 -45.5c43.333 -28 65 -62.667 65 -104c0 -27.333 -9.33301 -50.166 -28 -68.499s-43.667 -27.5 -75 -27.5c-22.667 0 -42.167 3 -58.5 9s-31.166 15.667 -44.499 29l20 35c19.333 -23.333 45 -35 77 -35
c18.667 0 34.167 5.83301 46.5 17.5s18.5 27.167 18.5 46.5s-6 36.5 -18 51.5s-34 30.833 -66 47.5c-62.667 7.33301 -111.5 33.666 -146.5 78.999s-52.5 105 -52.5 179c0 81.333 20.833 145 62.5 191s99.5 69 173.5 69c50 0 92.5 -11.833 127.5 -35.5
s60.167 -56.834 75.5 -99.501l-47 -22c-11.333 36.667 -30.333 64.667 -57 84s-60 29 -100 29c-58 0 -103.333 -19.167 -136 -57.5s-49 -91.166 -49 -158.499c0 -68 16.167 -121 48.5 -159s77.5 -57 135.5 -57c42.667 0 78.834 10.5 108.501 31.5s47.834 50.167 54.501 87.5
l46 -16c-12 -41.333 -33.833 -74.833 -65.5 -100.5z" />
    <glyph glyph-name="egrave" unicode="&#xe8;" horiz-adv-x="559" 
d="M503 229h-396.997c3.33301 -61.333 21.5 -109.166 54.5 -143.499s77.167 -51.5 132.5 -51.5c39.333 0 73.166 8 101.499 24s48.833 38.667 61.5 68l42 -22c-18.667 -36.667 -45.334 -64.834 -80.001 -84.501s-76.334 -29.5 -125.001 -29.5c-74 0 -131.833 23 -173.5 69
s-62.5 109.667 -62.5 191s20.167 145 60.5 191s96.833 69 169.5 69c68 0 121.333 -22.667 160 -68s58 -105.333 58 -180c0 -11.333 -0.666992 -22.333 -2 -33zM159.003 415.5c-31.333 -33.667 -49 -80.833 -53 -141.5h352c-3.33301 60 -19.833 107 -49.5 141
s-70.167 51 -121.5 51c-54 0 -96.667 -16.833 -128 -50.5zM312.003 583.001h-42l-93 158h54z" />
    <glyph glyph-name="eacute" unicode="&#xe9;" horiz-adv-x="559" 
d="M503 229h-396.997c3.33301 -61.333 21.5 -109.166 54.5 -143.499s77.167 -51.5 132.5 -51.5c39.333 0 73.166 8 101.499 24s48.833 38.667 61.5 68l42 -22c-18.667 -36.667 -45.334 -64.834 -80.001 -84.501s-76.334 -29.5 -125.001 -29.5c-74 0 -131.833 23 -173.5 69
s-62.5 109.667 -62.5 191s20.167 145 60.5 191s96.833 69 169.5 69c68 0 121.333 -22.667 160 -68s58 -105.333 58 -180c0 -11.333 -0.666992 -22.333 -2 -33zM159.003 415.5c-31.333 -33.667 -49 -80.833 -53 -141.5h352c-3.33301 60 -19.833 107 -49.5 141
s-70.167 51 -121.5 51c-54 0 -96.667 -16.833 -128 -50.5zM390.003 741.001l-94 -158h-41l80 158h55z" />
    <glyph glyph-name="ecircumflex" unicode="&#xea;" horiz-adv-x="559" 
d="M503 229h-396.997c3.33301 -61.333 21.5 -109.166 54.5 -143.499s77.167 -51.5 132.5 -51.5c39.333 0 73.166 8 101.499 24s48.833 38.667 61.5 68l42 -22c-18.667 -36.667 -45.334 -64.834 -80.001 -84.501s-76.334 -29.5 -125.001 -29.5c-74 0 -131.833 23 -173.5 69
s-62.5 109.667 -62.5 191s20.167 145 60.5 191s96.833 69 169.5 69c68 0 121.333 -22.667 160 -68s58 -105.333 58 -180c0 -11.333 -0.666992 -22.333 -2 -33zM159.003 415.5c-31.333 -33.667 -49 -80.833 -53 -141.5h352c-3.33301 60 -19.833 107 -49.5 141
s-70.167 51 -121.5 51c-54 0 -96.667 -16.833 -128 -50.5zM376.003 579.001l-92 120l-92 -120h-47l110 156h57l111 -156h-47z" />
    <glyph glyph-name="edieresis" unicode="&#xeb;" horiz-adv-x="559" 
d="M503 229h-396.997c3.33301 -61.333 21.5 -109.166 54.5 -143.499s77.167 -51.5 132.5 -51.5c39.333 0 73.166 8 101.499 24s48.833 38.667 61.5 68l42 -22c-18.667 -36.667 -45.334 -64.834 -80.001 -84.501s-76.334 -29.5 -125.001 -29.5c-74 0 -131.833 23 -173.5 69
s-62.5 109.667 -62.5 191s20.167 145 60.5 191s96.833 69 169.5 69c68 0 121.333 -22.667 160 -68s58 -105.333 58 -180c0 -11.333 -0.666992 -22.333 -2 -33zM159.003 415.5c-31.333 -33.667 -49 -80.833 -53 -141.5h352c-3.33301 60 -19.833 107 -49.5 141
s-70.167 51 -121.5 51c-54 0 -96.667 -16.833 -128 -50.5zM218.003 659.501c7.33301 -7.66699 11 -17.5 11 -29.5s-3.66699 -21.667 -11 -29s-17 -11 -29 -11s-21.833 3.66699 -29.5 11s-11.5 17 -11.5 29s3.83301 21.833 11.5 29.5s17.5 11.5 29.5 11.5
s21.667 -3.83301 29 -11.5zM407.503 659.501c7.66699 -7.66699 11.5 -17.5 11.5 -29.5s-3.83301 -21.667 -11.5 -29s-17.5 -11 -29.5 -11s-21.833 3.66699 -29.5 11s-11.5 17 -11.5 29s3.83301 21.833 11.5 29.5s17.5 11.5 29.5 11.5s21.833 -3.83301 29.5 -11.5z" />
    <glyph glyph-name="igrave" unicode="&#xec;" horiz-adv-x="229" 
d="M139 0h-50v500h50v-500zM142 583h-42l-93 158h54z" />
    <glyph glyph-name="iacute" unicode="&#xed;" horiz-adv-x="229" 
d="M139 0h-50v500h50v-500zM220 741l-94 -158h-41l80 158h55z" />
    <glyph glyph-name="icircumflex" unicode="&#xee;" horiz-adv-x="229" 
d="M139 0h-50v500h50v-500zM207 579l-92 120l-92 -120h-47l110 156h57l111 -156h-47z" />
    <glyph glyph-name="idieresis" unicode="&#xef;" horiz-adv-x="229" 
d="M19 601c-7.33301 7.33301 -11 17 -11 29s3.66699 21.833 11 29.5s17 11.5 29 11.5c12.667 0 22.667 -3.83301 30 -11.5s11 -17.5 11 -29.5s-3.66699 -21.667 -11 -29s-17.333 -11 -30 -11c-12 0 -21.667 3.66699 -29 11zM150.5 601c-7.66699 7.33301 -11.5 17 -11.5 29
s3.83301 21.833 11.5 29.5s17.5 11.5 29.5 11.5s21.833 -3.83301 29.5 -11.5s11.5 -17.5 11.5 -29.5s-3.83301 -21.667 -11.5 -29s-17.5 -11 -29.5 -11s-21.833 3.66699 -29.5 11zM139 0h-50v500h50v-500z" />
    <glyph glyph-name="eth" unicode="&#xf0;" horiz-adv-x="600" 
d="M436 611c62.667 -82.667 94.0029 -191.001 94.0029 -325.001c0 -94 -20.333 -166.833 -61 -218.5s-99.334 -77.5 -176.001 -77.5c-72.667 0 -130.167 22.167 -172.5 66.5s-63.5 104.833 -63.5 181.5c0 50 9.83301 93.667 29.5 131s47 66 82 86s74.833 30 119.5 30
c46 0 85.167 -8.83301 117.5 -26.5s57.166 -42.834 74.499 -75.501c-12.667 88.667 -42 161.334 -88 218.001l-180 -42l-7 32l165 35c-37.333 40.667 -87 75.334 -149 104.001h73c49.333 -26.667 89.666 -57.667 120.999 -93l114 28l9 -32zM430.503 92.499
c33 39 50.166 90.499 51.499 154.499c0 56.667 -16.667 103.167 -50 139.5s-79.333 54.5 -138 54.5c-57.333 0 -102.666 -18.167 -135.999 -54.5s-50 -85.833 -50 -148.5c0 -63.333 16.667 -113.166 50 -149.499s79 -54.5 137 -54.5c57.333 0 102.5 19.5 135.5 58.5z" />
    <glyph glyph-name="ntilde" unicode="&#xf1;" horiz-adv-x="598" 
d="M461.5 462c35 -32 52.499 -78 52.499 -138v-324h-50v308c0 53.333 -13 93 -39 119s-61.667 39 -107 39c-32 0 -61.667 -7.33301 -89 -22s-49.166 -36 -65.499 -64s-24.5 -60.667 -24.5 -98v-282h-50v500h45l2 -101c16 36 40.5 63.5 73.5 82.5s70.833 28.5 113.5 28.5
c57.333 0 103.5 -16 138.5 -48zM444.999 618c-16 -18 -38.6699 -27 -68.0029 -27c-18.667 0 -33.834 3.16699 -45.501 9.5s-24.5 15.833 -38.5 28.5c-10.667 10 -20.167 17.5 -28.5 22.5s-18.166 7.5 -29.499 7.5c-18 0 -31.167 -5.5 -39.5 -16.5s-14.833 -28.5 -19.5 -52.5
h-40c4.66699 37.333 14.834 65 30.501 83s38.834 27 69.501 27c18 0 32.833 -3.16699 44.5 -9.5s24.5 -15.833 38.5 -28.5c10.667 -10 20.167 -17.5 28.5 -22.5s17.833 -7.5 28.5 -7.5c18 0 31.333 5.5 40 16.5s15.334 28.5 20.001 52.5h40
c-4.66699 -37.333 -15 -65 -31 -83z" />
    <glyph glyph-name="ograve" unicode="&#xf2;" horiz-adv-x="590" 
d="M469.5 440.5c42.333 -46.333 63.5 -109.833 63.5 -190.5s-21.167 -144.167 -63.5 -190.5s-100.5 -69.5 -174.5 -69.5s-132.167 23.167 -174.5 69.5s-63.5 109.833 -63.5 190.5s21.167 144.167 63.5 190.5s100.5 69.5 174.5 69.5s132.167 -23.167 174.5 -69.5zM157 409
c-33.333 -38.667 -50 -91.667 -50 -159s16.667 -120.333 50 -159s79.333 -58 138 -58s104.667 19.333 138 58s50 91.667 50 159s-16.667 120.333 -50 159s-79.333 58 -138 58s-104.667 -19.333 -138 -58zM323 583h-42l-93 158h54z" />
    <glyph glyph-name="oacute" unicode="&#xf3;" horiz-adv-x="590" 
d="M469.5 440.5c42.333 -46.333 63.5 -109.833 63.5 -190.5s-21.167 -144.167 -63.5 -190.5s-100.5 -69.5 -174.5 -69.5s-132.167 23.167 -174.5 69.5s-63.5 109.833 -63.5 190.5s21.167 144.167 63.5 190.5s100.5 69.5 174.5 69.5s132.167 -23.167 174.5 -69.5zM157 409
c-33.333 -38.667 -50 -91.667 -50 -159s16.667 -120.333 50 -159s79.333 -58 138 -58s104.667 19.333 138 58s50 91.667 50 159s-16.667 120.333 -50 159s-79.333 58 -138 58s-104.667 -19.333 -138 -58zM401 741l-94 -158h-41l80 158h55z" />
    <glyph glyph-name="ocircumflex" unicode="&#xf4;" horiz-adv-x="590" 
d="M469.5 440.5c42.333 -46.333 63.5 -109.833 63.5 -190.5s-21.167 -144.167 -63.5 -190.5s-100.5 -69.5 -174.5 -69.5s-132.167 23.167 -174.5 69.5s-63.5 109.833 -63.5 190.5s21.167 144.167 63.5 190.5s100.5 69.5 174.5 69.5s132.167 -23.167 174.5 -69.5zM157 409
c-33.333 -38.667 -50 -91.667 -50 -159s16.667 -120.333 50 -159s79.333 -58 138 -58s104.667 19.333 138 58s50 91.667 50 159s-16.667 120.333 -50 159s-79.333 58 -138 58s-104.667 -19.333 -138 -58zM387 579l-92 120l-92 -120h-47l110 156h57l111 -156h-47z" />
    <glyph glyph-name="otilde" unicode="&#xf5;" horiz-adv-x="590" 
d="M469.5 440.5c42.333 -46.333 63.5 -109.833 63.5 -190.5s-21.167 -144.167 -63.5 -190.5s-100.5 -69.5 -174.5 -69.5s-132.167 23.167 -174.5 69.5s-63.5 109.833 -63.5 190.5s21.167 144.167 63.5 190.5s100.5 69.5 174.5 69.5s132.167 -23.167 174.5 -69.5zM157 409
c-33.333 -38.667 -50 -91.667 -50 -159s16.667 -120.333 50 -159s79.333 -58 138 -58s104.667 19.333 138 58s50 91.667 50 159s-16.667 120.333 -50 159s-79.333 58 -138 58s-104.667 -19.333 -138 -58zM434 618c-16 -18 -38.6699 -27 -68.0029 -27
c-18.667 0 -33.834 3.16699 -45.501 9.5s-24.5 15.833 -38.5 28.5c-10.667 10 -20.167 17.5 -28.5 22.5s-18.166 7.5 -29.499 7.5c-18 0 -31.167 -5.5 -39.5 -16.5s-14.833 -28.5 -19.5 -52.5h-40c4.66699 37.333 14.834 65 30.501 83s38.834 27 69.501 27
c18 0 32.833 -3.16699 44.5 -9.5s24.5 -15.833 38.5 -28.5c10.667 -10 20.167 -17.5 28.5 -22.5s17.833 -7.5 28.5 -7.5c18 0 31.333 5.5 40 16.5s15.334 28.5 20.001 52.5h40c-4.66699 -37.333 -15 -65 -31 -83z" />
    <glyph glyph-name="odieresis" unicode="&#xf6;" horiz-adv-x="590" 
d="M469.5 440.5c42.333 -46.333 63.5 -109.833 63.5 -190.5s-21.167 -144.167 -63.5 -190.5s-100.5 -69.5 -174.5 -69.5s-132.167 23.167 -174.5 69.5s-63.5 109.833 -63.5 190.5s21.167 144.167 63.5 190.5s100.5 69.5 174.5 69.5s132.167 -23.167 174.5 -69.5zM157 409
c-33.333 -38.667 -50 -91.667 -50 -159s16.667 -120.333 50 -159s79.333 -58 138 -58s104.667 19.333 138 58s50 91.667 50 159s-16.667 120.333 -50 159s-79.333 58 -138 58s-104.667 -19.333 -138 -58zM229 659.5c7.33301 -7.66699 11 -17.5 11 -29.5
s-3.66699 -21.667 -11 -29s-17 -11 -29 -11s-21.833 3.66699 -29.5 11s-11.5 17 -11.5 29s3.83301 21.833 11.5 29.5s17.5 11.5 29.5 11.5s21.667 -3.83301 29 -11.5zM418.5 659.5c7.66699 -7.66699 11.5 -17.5 11.5 -29.5s-3.83301 -21.667 -11.5 -29s-17.5 -11 -29.5 -11
s-21.833 3.66699 -29.5 11s-11.5 17 -11.5 29s3.83301 21.833 11.5 29.5s17.5 11.5 29.5 11.5s21.833 -3.83301 29.5 -11.5z" />
    <glyph glyph-name="divide" unicode="&#xf7;" 
d="M334.5 539.5c8.33301 -8.33301 12.5 -19.166 12.5 -32.499s-4.16699 -24.166 -12.5 -32.499s-19.166 -12.5 -32.499 -12.5s-24.166 4.16699 -32.499 12.5s-12.5 19.166 -12.5 32.499s4.16699 24.166 12.5 32.499s19.166 12.5 32.499 12.5s24.166 -4.16699 32.499 -12.5z
M537 293h-470v46h470v-46zM334.5 158c8.33301 -8 12.5 -18.667 12.5 -32s-4.16699 -24.166 -12.5 -32.499s-19.166 -12.5 -32.499 -12.5s-24.166 4.16699 -32.499 12.5s-12.5 19.166 -12.5 32.499s4.16699 24 12.5 32s19.166 12 32.499 12s24.166 -4 32.499 -12z" />
    <glyph glyph-name="oslash" unicode="&#xf8;" horiz-adv-x="591" 
d="M443 465l48 61h45l-66 -85c42 -46 63 -109.667 63 -191c0 -80.667 -21.167 -144.167 -63.5 -190.5s-100.5 -69.5 -174.5 -69.5c-56.667 0 -103.667 13.667 -141 41l-50 -65h-46l67 88c-45.333 46.667 -68 112 -68 196c0 80.667 21.167 144.167 63.5 190.5
s100.5 69.5 174.5 69.5c58 0 107.333 -15 148 -45zM157 93l30 42l228 292c-32.667 26.667 -72.667 40 -120 40c-58.667 0 -104.667 -19.333 -138 -58s-50 -91.667 -50 -159c0 -66.667 16.333 -119 49 -157h1zM433 91c33.333 38.667 50 91.667 50 159
c0 62 -14.667 112.333 -44 151h-1l-26 -35l-230 -298c29.333 -23.333 67 -35 113 -35c58.667 0 104.667 19.333 138 58z" />
    <glyph glyph-name="ugrave" unicode="&#xf9;" horiz-adv-x="593" 
d="M504 500l-0.00195312 -499.999h-45l-2 99c-16.667 -35.333 -41.667 -62.333 -75 -81s-72.666 -28 -117.999 -28c-54.667 0 -98.334 15.167 -131.001 45.5s-49 75.166 -49 134.499v330h50v-318c0 -98.667 46 -148 138 -148c36.667 0 68.834 8 96.501 24
s48.834 37.667 63.501 65s22 57.333 22 90v287h50zM322.998 583.001h-42l-93 158h54z" />
    <glyph glyph-name="uacute" unicode="&#xfa;" horiz-adv-x="593" 
d="M504 500l-0.00195312 -499.999h-45l-2 99c-16.667 -35.333 -41.667 -62.333 -75 -81s-72.666 -28 -117.999 -28c-54.667 0 -98.334 15.167 -131.001 45.5s-49 75.166 -49 134.499v330h50v-318c0 -98.667 46 -148 138 -148c36.667 0 68.834 8 96.501 24
s48.834 37.667 63.501 65s22 57.333 22 90v287h50zM400.998 741.001l-94 -158h-41l80 158h55z" />
    <glyph glyph-name="ucircumflex" unicode="&#xfb;" horiz-adv-x="593" 
d="M504 500l-0.00195312 -499.999h-45l-2 99c-16.667 -35.333 -41.667 -62.333 -75 -81s-72.666 -28 -117.999 -28c-54.667 0 -98.334 15.167 -131.001 45.5s-49 75.166 -49 134.499v330h50v-318c0 -98.667 46 -148 138 -148c36.667 0 68.834 8 96.501 24
s48.834 37.667 63.501 65s22 57.333 22 90v287h50zM386.998 579.001l-92 120l-92 -120h-47l110 156h57l111 -156h-47z" />
    <glyph glyph-name="udieresis" unicode="&#xfc;" horiz-adv-x="593" 
d="M504 500l-0.00195312 -499.999h-45l-2 99c-16.667 -35.333 -41.667 -62.333 -75 -81s-72.666 -28 -117.999 -28c-54.667 0 -98.334 15.167 -131.001 45.5s-49 75.166 -49 134.499v330h50v-318c0 -98.667 46 -148 138 -148c36.667 0 68.834 8 96.501 24
s48.834 37.667 63.501 65s22 57.333 22 90v287h50zM228.998 659.501c7.33301 -7.66699 11 -17.5 11 -29.5s-3.66699 -21.667 -11 -29s-17 -11 -29 -11s-21.833 3.66699 -29.5 11s-11.5 17 -11.5 29s3.83301 21.833 11.5 29.5s17.5 11.5 29.5 11.5s21.667 -3.83301 29 -11.5z
M418.498 659.501c7.66699 -7.66699 11.5 -17.5 11.5 -29.5s-3.83301 -21.667 -11.5 -29s-17.5 -11 -29.5 -11s-21.833 3.66699 -29.5 11s-11.5 17 -11.5 29s3.83301 21.833 11.5 29.5s17.5 11.5 29.5 11.5s21.833 -3.83301 29.5 -11.5z" />
    <glyph glyph-name="yacute" unicode="&#xfd;" horiz-adv-x="510" 
d="M249 -92c-18.667 -45.333 -39.3311 -77.167 -61.998 -95.5s-51.334 -27.5 -86.001 -27.5c-41.333 0 -73 12.333 -95 37l19 43c16 -24 41.333 -36 76 -36c23.333 0 43.166 6.5 59.499 19.5s31.5 36.833 45.5 71.5l32 80l-52 124l-159 376h57l153 -379l25 -67l27 72
l147 374h54zM365.003 740.999l-94 -158h-41l80 158h55z" />
    <glyph glyph-name="thorn" unicode="&#xfe;" horiz-adv-x="609" 
d="M490.5 441c41 -46 61.5 -109.667 61.5 -191s-20.5 -145 -61.5 -191s-96.833 -69 -167.5 -69c-42.667 0 -80 9.66699 -112 29s-56 46 -72 80v-309h-50v940h50v-329c16 34 40 60.667 72 80s69.333 29 112 29c70.667 0 126.5 -23 167.5 -69zM453 91.5
c32.667 38.333 49 91.168 49 158.501s-16.333 120.166 -49 158.499s-78 57.5 -136 57.5c-54 0 -97.167 -19 -129.5 -57s-48.5 -89.333 -48.5 -154v-10c0 -65.333 16.167 -116.833 48.5 -154.5s75.5 -56.5 129.5 -56.5c58 0 103.333 19.167 136 57.5z" />
    <glyph glyph-name="ydieresis" unicode="&#xff;" horiz-adv-x="510" 
d="M249 -92c-18.667 -45.333 -39.3311 -77.167 -61.998 -95.5s-51.334 -27.5 -86.001 -27.5c-41.333 0 -73 12.333 -95 37l19 43c16 -24 41.333 -36 76 -36c23.333 0 43.166 6.5 59.499 19.5s31.5 36.833 45.5 71.5l32 80l-52 124l-159 376h57l153 -379l25 -67l27 72
l147 374h54zM194.003 659.499c7.33301 -7.66699 11 -17.5 11 -29.5s-3.66699 -21.667 -11 -29s-17 -11 -29 -11s-21.833 3.66699 -29.5 11s-11.5 17 -11.5 29s3.83301 21.833 11.5 29.5s17.5 11.5 29.5 11.5s21.667 -3.83301 29 -11.5zM383.503 659.499
c7.66699 -7.66699 11.5 -17.5 11.5 -29.5s-3.83301 -21.667 -11.5 -29s-17.5 -11 -29.5 -11s-21.833 3.66699 -29.5 11s-11.5 17 -11.5 29s3.83301 21.833 11.5 29.5s17.5 11.5 29.5 11.5s21.833 -3.83301 29.5 -11.5z" />
    <glyph glyph-name="Amacron" unicode="&#x100;" horiz-adv-x="625" 
d="M470 207h-316l-82 -207h-53l264 660h59l264 -660h-53zM452 253l-115 288l-24 70h-1l-24 -68l-115 -290h279zM473 760h-320v42h320v-42z" />
    <glyph glyph-name="amacron" unicode="&#x101;" horiz-adv-x="543" 
d="M530 40l-3.00098 -40c-12 -6.66699 -28.333 -10 -49 -10c-23.333 0 -42.333 6.33301 -57 19s-23 34.667 -25 66c-15.333 -26.667 -40 -47.5 -74 -62.5s-69.667 -22.5 -107 -22.5c-49.333 0 -88.833 11 -118.5 33s-44.5 53.333 -44.5 94c0 77.333 63.333 127.333 190 150
l153 27v44c0 40 -11.833 71.333 -35.5 94s-57.167 34 -100.5 34c-79.333 0 -132.666 -35.333 -159.999 -106l-38 28c14.667 39.333 39 69.5 73 90.5s75.667 31.5 125 31.5c58 0 103.5 -14.167 136.5 -42.5s49.5 -69.5 49.5 -123.5v-258c0 -35.333 15.333 -53 46 -53
c16.667 0 29.667 2.33301 39 7zM301.999 48.5c26.667 9.66699 48.832 24 66.499 43s26.5 41.833 26.5 68.5v93l-137 -25c-54 -10 -93.333 -24 -118 -42s-37 -41 -37 -69c0 -26.667 10.333 -47.167 31 -61.5s49.334 -21.5 86.001 -21.5c28 0 55.333 4.83301 82 14.5z
M419.997 600h-320v42h320v-42z" />
    <glyph glyph-name="Abreve" unicode="&#x102;" horiz-adv-x="625" 
d="M470 207h-316l-82 -207h-53l264 660h59l264 -660h-53zM452 253l-115 288l-24 70h-1l-24 -68l-115 -290h279zM411 775.5c-24.667 -24.333 -57.665 -36.502 -98.998 -36.502c-40.667 0 -73.334 12.333 -98.001 37s-37 57.334 -37 98.001h42c0 -28 8.66699 -51.167 26 -69.5
s39.666 -27.5 66.999 -27.5c28 0 50.667 9.16699 68 27.5s26 41.5 26 69.5h42c0 -41.333 -12.333 -74.166 -37 -98.499z" />
    <glyph glyph-name="abreve" unicode="&#x103;" horiz-adv-x="543" 
d="M530 40l-3.00098 -40c-12 -6.66699 -28.333 -10 -49 -10c-23.333 0 -42.333 6.33301 -57 19s-23 34.667 -25 66c-15.333 -26.667 -40 -47.5 -74 -62.5s-69.667 -22.5 -107 -22.5c-49.333 0 -88.833 11 -118.5 33s-44.5 53.333 -44.5 94c0 77.333 63.333 127.333 190 150
l153 27v44c0 40 -11.833 71.333 -35.5 94s-57.167 34 -100.5 34c-79.333 0 -132.666 -35.333 -159.999 -106l-38 28c14.667 39.333 39 69.5 73 90.5s75.667 31.5 125 31.5c58 0 103.5 -14.167 136.5 -42.5s49.5 -69.5 49.5 -123.5v-258c0 -35.333 15.333 -53 46 -53
c16.667 0 29.667 2.33301 39 7zM301.999 48.5c26.667 9.66699 48.832 24 66.499 43s26.5 41.833 26.5 68.5v93l-137 -25c-54 -10 -93.333 -24 -118 -42s-37 -41 -37 -69c0 -26.667 10.333 -47.167 31 -61.5s49.334 -21.5 86.001 -21.5c28 0 55.333 4.83301 82 14.5z
M358.997 615.5c-24.667 -24.333 -57.665 -36.502 -98.998 -36.502c-40.667 0 -73.334 12.333 -98.001 37s-37 57.334 -37 98.001h42c0 -28 8.66699 -51.167 26 -69.5s39.666 -27.5 66.999 -27.5c28 0 50.667 9.16699 68 27.5s26 41.5 26 69.5h42
c0 -41.333 -12.333 -74.166 -37 -98.499z" />
    <glyph glyph-name="Aogonek" unicode="&#x104;" horiz-adv-x="625" 
d="M618 -189c-18.667 -13.333 -44.333 -20 -77 -20c-31.333 0 -56.5 8 -75.5 24s-28.5 38.667 -28.5 68c0 27.333 8.83301 51.333 26.5 72s46.167 39 85.5 55l-79 197h-316l-82 -207h-53l264 660h59l264 -660c-47.333 -16.667 -80.5 -34 -99.5 -52s-28.5 -38.667 -28.5 -62
c0 -18.667 6.33301 -33 19 -43s29 -15 49 -15c26 0 46.333 5.33301 61 16zM452.001 253l-115 288l-24 70h-1l-24 -68l-115 -290h279z" />
    <glyph glyph-name="aogonek" unicode="&#x105;" horiz-adv-x="543" 
d="M519 -158l10.999 -33.002c-18 -12 -42.333 -18 -73 -18s-55.667 7.83301 -75 23.5s-29 36.834 -29 63.501c0 25.333 8 47.5 24 66.5s40.333 36.167 73 51.5c-30.667 12.667 -48.667 39.334 -54 80.001c-14.667 -26.667 -39 -47.667 -73 -63s-70 -23 -108 -23
c-49.333 0 -88.833 11 -118.5 33s-44.5 53.333 -44.5 94c0 77.333 63.333 127.333 190 150l153 27v44c0 40 -11.833 71.333 -35.5 94s-57.167 34 -100.5 34c-78 0 -131.333 -35.333 -160 -106l-38 28c14.667 39.333 39 69.5 73 90.5s75.667 31.5 125 31.5
c58 0 103.5 -14.167 136.5 -42.5s49.5 -69.5 49.5 -123.5v-258c0 -35.333 15.333 -53 46 -53c16.667 0 29.667 2.33301 39 7l-3 -40c-48 -18 -82 -35.833 -102 -53.5s-30 -38.167 -30 -61.5c0 -18 5.83301 -32 17.5 -42s27.5 -15 47.5 -15
c26.667 0 46.334 4.66699 59.001 14zM301.999 48.498c26.667 9.66699 48.832 24.001 66.499 43.001s26.5 41.833 26.5 68.5v93l-137 -25c-54 -10.667 -93.333 -24.834 -118 -42.501s-37 -40.5 -37 -68.5c0 -26.667 10.333 -47.167 31 -61.5s49.334 -21.5 86.001 -21.5
c28 0 55.333 4.83301 82 14.5z" />
    <glyph glyph-name="Cacute" unicode="&#x106;" horiz-adv-x="669" 
d="M458 891l-83 -148h-41l65 148h59zM528.5 36.5c-46.333 -31 -101.83 -46.5 -166.497 -46.5c-60 0 -112.667 13.833 -158 41.5s-80.333 67.167 -105 118.5s-37 111.333 -37 180s12.333 128.667 37 180s59.667 90.833 105 118.5s97.666 41.5 156.999 41.5
c132 0 217.333 -54.333 256 -163l-49 -23c-15.333 46.667 -39.833 81.667 -73.5 105s-77.167 35 -130.5 35c-49.333 0 -92.833 -11.833 -130.5 -35.5s-66.834 -57.667 -87.501 -102s-31 -96.5 -31 -156.5s10.167 -112.167 30.5 -156.5s49 -78.333 86 -102
s80.5 -35.5 130.5 -35.5c53.333 0 98.666 13 135.999 39s63.333 63 78 111l50 -19c-18.667 -56 -51.167 -99.5 -97.5 -130.5z" />
    <glyph glyph-name="cacute" unicode="&#x107;" horiz-adv-x="545" 
d="M420.5 474.5c35 -23.667 60.165 -56.835 75.498 -99.502l-47 -22c-11.333 36.667 -30.333 64.667 -57 84s-60 29 -100 29c-58 0 -103.333 -19.167 -136 -57.5s-49 -91.166 -49 -158.499c0 -68 16.167 -121 48.5 -159s77.5 -57 135.5 -57
c42.667 0 78.834 10.5 108.501 31.5s47.834 50.167 54.501 87.5l46 -16c-13.333 -45.333 -38.5 -81.166 -75.5 -107.499s-81.167 -39.5 -132.5 -39.5c-74 0 -131.667 23 -173 69s-62 109.667 -62 191s20.833 145 62.5 191s99.5 69 173.5 69c50 0 92.5 -11.833 127.5 -35.5z
M391.998 740.999l-94 -158h-41l80 158h55z" />
    <glyph glyph-name="Ccaron" unicode="&#x10c;" horiz-adv-x="669" 
d="M386 740h-58l-111 156h47l93 -122l94 122h46zM528.5 36.5c-46.333 -31 -101.83 -46.5 -166.497 -46.5c-60 0 -112.667 13.833 -158 41.5s-80.333 67.167 -105 118.5s-37 111.333 -37 180s12.333 128.667 37 180s59.667 90.833 105 118.5s97.666 41.5 156.999 41.5
c132 0 217.333 -54.333 256 -163l-49 -23c-15.333 46.667 -39.833 81.667 -73.5 105s-77.167 35 -130.5 35c-49.333 0 -92.833 -11.833 -130.5 -35.5s-66.834 -57.667 -87.501 -102s-31 -96.5 -31 -156.5s10.167 -112.167 30.5 -156.5s49 -78.333 86 -102
s80.5 -35.5 130.5 -35.5c53.333 0 98.666 13 135.999 39s63.333 63 78 111l50 -19c-18.667 -56 -51.167 -99.5 -97.5 -130.5z" />
    <glyph glyph-name="ccaron" unicode="&#x10d;" horiz-adv-x="545" 
d="M420.5 474.5c35 -23.667 60.165 -56.835 75.498 -99.502l-47 -22c-11.333 36.667 -30.333 64.667 -57 84s-60 29 -100 29c-58 0 -103.333 -19.167 -136 -57.5s-49 -91.166 -49 -158.499c0 -68 16.167 -121 48.5 -159s77.5 -57 135.5 -57
c42.667 0 78.834 10.5 108.501 31.5s47.834 50.167 54.501 87.5l46 -16c-13.333 -45.333 -38.5 -81.166 -75.5 -107.499s-81.167 -39.5 -132.5 -39.5c-74 0 -131.667 23 -173 69s-62 109.667 -62 191s20.833 145 62.5 191s99.5 69 173.5 69c50 0 92.5 -11.833 127.5 -35.5z
M314.998 582.999h-58l-110 155h47l92 -119l92 119h47z" />
    <glyph glyph-name="Dcaron" unicode="&#x10e;" horiz-adv-x="704" 
d="M289 740l-111 156h47l93 -122l94 122h46l-111 -156h-58zM555.5 576.5c57 -55.667 85.5 -136.167 85.5 -241.5c0 -108 -28.5 -190.833 -85.5 -248.5s-138.167 -86.5 -243.5 -86.5h-208v660h208c105.333 0 186.5 -27.833 243.5 -83.5zM518.5 120.5
c47 49.667 70.5 121.168 70.5 214.501c0 89.333 -23.5 158.166 -70.5 206.499s-114.5 72.5 -202.5 72.5h-162v-568h162c88 0 155.5 24.833 202.5 74.5z" />
    <glyph glyph-name="dcaron" unicode="&#x10f;" horiz-adv-x="620" 
d="M470 730h50.001v-730h-45l-3 112c-14 -38 -37.333 -67.833 -70 -89.5s-71.334 -32.5 -116.001 -32.5c-70.667 0 -126.5 23 -167.5 69s-61.5 109.667 -61.5 191s20.5 145 61.5 191s96.833 69 167.5 69c43.333 0 81 -10.333 113 -31s55.667 -49 71 -85v336zM661.001 730
l-36 -197h-35l22 197h49zM418.001 86.5c32 35 49.333 82.498 52 142.498v42c-3.33301 60 -20.833 107.5 -52.5 142.5s-73.5 52.5 -125.5 52.5c-58 0 -103.333 -19.167 -136 -57.5s-49 -91.166 -49 -158.499s16.333 -120.166 49 -158.499s78 -57.5 136 -57.5
c52 0 94 17.5 126 52.5z" />
    <glyph glyph-name="Dcroat" unicode="&#x110;" horiz-adv-x="715" 
d="M568 576.5c56.667 -55.667 85 -136.167 85 -241.5c0 -108 -28.333 -190.833 -85 -248.5s-138 -86.5 -244 -86.5h-208v314h-100v39h100v307h208c106 0 187.333 -27.833 244 -83.5zM530.5 121c47 50 70.5 121.334 70.5 214.001c0 89.333 -23.5 158.166 -70.5 206.499
s-114.167 72.5 -201.5 72.5h-163v-261h202v-39h-202v-268h163c87.333 0 154.5 25 201.5 75z" />
    <glyph glyph-name="dcroat" unicode="&#x111;" horiz-adv-x="608" 
d="M606 579h-85.999v-579h-45l-3 112c-14 -38 -37.333 -67.833 -70 -89.5s-71.334 -32.5 -116.001 -32.5c-70.667 0 -126.5 23 -167.5 69s-61.5 109.667 -61.5 191s20.5 145 61.5 191s96.833 69 167.5 69c43.333 0 81 -10.333 113 -31s55.667 -49 71 -85v185h-169v38h169
v113h50v-113h86v-38zM418.001 86.5c32 35 49.333 82.498 52 142.498v42c-3.33301 60 -20.833 107.5 -52.5 142.5s-73.5 52.5 -125.5 52.5c-58 0 -103.333 -19.167 -136 -57.5s-49 -91.166 -49 -158.499s16.333 -120.166 49 -158.499s78 -57.5 136 -57.5
c52 0 94 17.5 126 52.5z" />
    <glyph glyph-name="Emacron" unicode="&#x112;" horiz-adv-x="612" 
d="M571 46v-46h-467v660h451v-46h-401v-255h317v-47h-317v-266h417zM489 760h-320v42h320v-42z" />
    <glyph glyph-name="emacron" unicode="&#x113;" horiz-adv-x="559" 
d="M503 229h-396.997c3.33301 -61.333 21.5 -109.166 54.5 -143.499s77.167 -51.5 132.5 -51.5c39.333 0 73.166 8 101.499 24s48.833 38.667 61.5 68l42 -22c-18.667 -36.667 -45.334 -64.834 -80.001 -84.501s-76.334 -29.5 -125.001 -29.5c-74 0 -131.833 23 -173.5 69
s-62.5 109.667 -62.5 191s20.167 145 60.5 191s96.833 69 169.5 69c68 0 121.333 -22.667 160 -68s58 -105.333 58 -180c0 -11.333 -0.666992 -22.333 -2 -33zM159.003 415.5c-31.333 -33.667 -49 -80.833 -53 -141.5h352c-3.33301 60 -19.833 107 -49.5 141
s-70.167 51 -121.5 51c-54 0 -96.667 -16.833 -128 -50.5zM444.003 600.001h-320v42h320v-42z" />
    <glyph glyph-name="Edotaccent" unicode="&#x116;" horiz-adv-x="612" 
d="M571 46v-46h-467v660h451v-46h-401v-255h317v-47h-317v-266h417zM359.5 829.5c7.66699 -7.66699 11.5 -17.834 11.5 -30.501s-3.83301 -22.834 -11.5 -30.501s-17.834 -11.5 -30.501 -11.5s-22.834 3.83301 -30.501 11.5s-11.5 17.834 -11.5 30.501
s3.83301 22.834 11.5 30.501s17.834 11.5 30.501 11.5s22.834 -3.83301 30.501 -11.5z" />
    <glyph glyph-name="edotaccent" unicode="&#x117;" horiz-adv-x="559" 
d="M503 229h-396.997c3.33301 -61.333 21.5 -109.166 54.5 -143.499s77.167 -51.5 132.5 -51.5c39.333 0 73.166 8 101.499 24s48.833 38.667 61.5 68l42 -22c-18.667 -36.667 -45.334 -64.834 -80.001 -84.501s-76.334 -29.5 -125.001 -29.5c-74 0 -131.833 23 -173.5 69
s-62.5 109.667 -62.5 191s20.167 145 60.5 191s96.833 69 169.5 69c68 0 121.333 -22.667 160 -68s58 -105.333 58 -180c0 -11.333 -0.666992 -22.333 -2 -33zM159.003 415.5c-31.333 -33.667 -49 -80.833 -53 -141.5h352c-3.33301 60 -19.833 107 -49.5 141
s-70.167 51 -121.5 51c-54 0 -96.667 -16.833 -128 -50.5zM314.503 669.501c7.66699 -7.66699 11.5 -17.834 11.5 -30.501s-3.83301 -22.834 -11.5 -30.501s-17.834 -11.5 -30.501 -11.5s-22.834 3.83301 -30.501 11.5s-11.5 17.834 -11.5 30.501
s3.83301 22.834 11.5 30.501s17.834 11.5 30.501 11.5s22.834 -3.83301 30.501 -11.5z" />
    <glyph glyph-name="Eogonek" unicode="&#x118;" horiz-adv-x="612" 
d="M583 -189c-20 -13.333 -46.001 -20 -78.001 -20c-31.333 0 -56.5 7.83301 -75.5 23.5s-28.5 37.5 -28.5 65.5c0 27.333 8.16699 50.5 24.5 69.5s42.5 35.833 78.5 50.5h-400v660h451v-46h-401v-255h317v-47h-317v-266h417v-46h-1c-48 -17.333 -81.333 -35 -100 -53
s-28 -38.333 -28 -61c0 -18.667 6.33301 -33 19 -43s29.334 -15 50.001 -15c25.333 0 45.333 5.33301 60 16z" />
    <glyph glyph-name="eogonek" unicode="&#x119;" horiz-adv-x="559" 
d="M503 229l-396.999 0.000976562c3.33301 -61.333 21.5 -109.166 54.5 -143.499s77.167 -51.5 132.5 -51.5c39.333 0 73.166 8 101.499 24s48.833 38.667 61.5 68l42 -22c-26 -50 -65.333 -83.667 -118 -101c-37.333 -21.333 -64 -40.833 -80 -58.5s-24 -36.5 -24 -56.5
c0 -18.667 6.33301 -33.334 19 -44.001s29 -16 49 -16c25.333 0 45.333 5.33301 60 16l11 -34c-19.333 -12.667 -44.666 -19 -75.999 -19c-30.667 0 -55.834 8.33301 -75.501 25s-29.5 38.667 -29.5 66c0 21.333 5.5 40.666 16.5 57.999s28.5 34 52.5 50h-10
c-74 0 -131.833 23 -173.5 69s-62.5 109.667 -62.5 191s20.167 145 60.5 191s96.833 69 169.5 69c68 0 121.333 -22.667 160 -68s58 -105.333 58 -180c0 -11.333 -0.666992 -22.333 -2 -33zM159.001 415.501c-31.333 -33.667 -49 -80.833 -53 -141.5h352
c-3.33301 60 -19.833 107 -49.5 141s-70.167 51 -121.5 51c-54 0 -96.667 -16.833 -128 -50.5z" />
    <glyph glyph-name="Ecaron" unicode="&#x11a;" horiz-adv-x="612" 
d="M300 740l-111 156h47l93 -122l94 122h46l-111 -156h-58zM571 46v-46h-467v660h451v-46h-401v-255h317v-47h-317v-266h417z" />
    <glyph glyph-name="ecaron" unicode="&#x11b;" horiz-adv-x="559" 
d="M503 229h-396.997c3.33301 -61.333 21.5 -109.166 54.5 -143.499s77.167 -51.5 132.5 -51.5c39.333 0 73.166 8 101.499 24s48.833 38.667 61.5 68l42 -22c-18.667 -36.667 -45.334 -64.834 -80.001 -84.501s-76.334 -29.5 -125.001 -29.5c-74 0 -131.833 23 -173.5 69
s-62.5 109.667 -62.5 191s20.167 145 60.5 191s96.833 69 169.5 69c68 0 121.333 -22.667 160 -68s58 -105.333 58 -180c0 -11.333 -0.666992 -22.333 -2 -33zM159.003 415.5c-31.333 -33.667 -49 -80.833 -53 -141.5h352c-3.33301 60 -19.833 107 -49.5 141
s-70.167 51 -121.5 51c-54 0 -96.667 -16.833 -128 -50.5zM313.003 583.001h-58l-110 155h47l92 -119l92 119h47z" />
    <glyph glyph-name="Gbreve" unicode="&#x11e;" horiz-adv-x="702" 
d="M629 323l-0.00292969 -323h-40l-2 115c-18 -40 -46.167 -70.833 -84.5 -92.5s-85.833 -32.5 -142.5 -32.5c-60 0 -112.5 13.833 -157.5 41.5s-79.667 67.167 -104 118.5s-36.5 111.333 -36.5 180s12.5 128.667 37.5 180s60.167 90.833 105.5 118.5s98 41.5 158 41.5
c67.333 0 122.333 -13.333 165 -40s74.667 -67.334 96 -122.001l-46 -24c-15.333 46 -41.166 80.833 -77.499 104.5s-82.166 35.5 -137.499 35.5c-49.333 0 -92.666 -11.833 -129.999 -35.5s-66.333 -57.667 -87 -102s-31 -96.5 -31 -156.5
c0 -91.333 21.833 -163.166 65.5 -215.499s104.167 -78.5 181.5 -78.5c48 0 88.667 9.5 122 28.5s58 44 74 75s24 64.167 24 99.5v37h-224v47h271zM457.997 775.5c-24.667 -24.333 -57.665 -36.502 -98.998 -36.502c-40.667 0 -73.334 12.333 -98.001 37
s-37 57.334 -37 98.001h42c0 -28 8.66699 -51.167 26 -69.5s39.666 -27.5 66.999 -27.5c28 0 50.667 9.16699 68 27.5s26 41.5 26 69.5h42c0 -41.333 -12.333 -74.166 -37 -98.499z" />
    <glyph glyph-name="gbreve" unicode="&#x11f;" horiz-adv-x="515" 
d="M171 615.5c-24.667 24.333 -37 57.168 -37 98.501h42c0 -28 8.66699 -51.167 26 -69.5s40 -27.5 68 -27.5c27.333 0 49.666 9.16699 66.999 27.5s26 41.5 26 69.5h42c0 -40.667 -12.167 -73.334 -36.5 -98.001s-57.166 -37 -98.499 -37s-74.333 12.167 -99 36.5z
M463 20.002c28.667 -20.667 42.999 -48.334 42.999 -83.001c0 -30 -10.167 -56.5 -30.5 -79.5s-48.5 -40.833 -84.5 -53.5s-77 -19 -123 -19c-75.333 0 -133 12.167 -173 36.5s-60 56.5 -60 96.5c0 26 8 48.333 24 67s38 32 66 40c-20 8.66699 -35.833 20.667 -47.5 36
s-17.5 32.333 -17.5 51c0 24 7.83301 44.333 23.5 61s36.834 28.667 63.501 36c-27.333 14 -48.333 32.833 -63 56.5s-22 50.834 -22 81.501c0 49.333 18.5 88.833 55.5 118.5s86.167 44.5 147.5 44.5c42.667 0 80.334 -7.66699 113.001 -23c4 32 17.333 57.5 40 76.5
s51 28.5 85 28.5l12 -44c-31.333 0 -56 -7 -74 -21s-28.333 -34 -31 -60c38 -30.667 57 -70.667 57 -120s-18.5 -89 -55.5 -119s-85.833 -45 -146.5 -45c-20.667 0 -43.334 2.33301 -68.001 7c-28 -3.33301 -49.833 -11.5 -65.5 -24.5s-23.5 -28.5 -23.5 -46.5
c0 -21.333 9 -38 27 -50s45 -18 81 -18h129c50 0 89.333 -10.333 118 -31zM152.999 258.002c27.333 -22 64.668 -33 112.001 -33c46.667 0 83.667 11 111 33s41 51.667 41 89s-13.667 66.833 -41 88.5s-64.333 32.5 -111 32.5s-83.834 -10.833 -111.501 -32.5
s-41.5 -51.167 -41.5 -88.5s13.667 -67 41 -89zM409.501 -143.498c34.333 19.667 51.501 44.501 51.501 74.501c0 24 -10.833 42.833 -32.5 56.5s-53.167 20.5 -94.5 20.5h-129c-38 0 -68.167 -7.5 -90.5 -22.5s-33.5 -34.833 -33.5 -59.5
c0 -30.667 16.667 -54.834 50 -72.501s80.666 -26.5 141.999 -26.5c56.667 0 102.167 9.83301 136.5 29.5z" />
    <glyph glyph-name="uni0122" unicode="&#x122;" horiz-adv-x="702" 
d="M629 323l-0.00292969 -323h-40l-2 115c-18 -40 -46.167 -70.833 -84.5 -92.5s-85.833 -32.5 -142.5 -32.5c-60 0 -112.5 13.833 -157.5 41.5s-79.667 67.167 -104 118.5s-36.5 111.333 -36.5 180s12.5 128.667 37.5 180s60.167 90.833 105.5 118.5s98 41.5 158 41.5
c67.333 0 122.333 -13.333 165 -40s74.667 -67.334 96 -122.001l-46 -24c-15.333 46 -41.166 80.833 -77.499 104.5s-82.166 35.5 -137.499 35.5c-49.333 0 -92.666 -11.833 -129.999 -35.5s-66.333 -57.667 -87 -102s-31 -96.5 -31 -156.5
c0 -91.333 21.833 -163.166 65.5 -215.499s104.167 -78.5 181.5 -78.5c48 0 88.667 9.5 122 28.5s58 44 74 75s24 64.167 24 99.5v37h-224v47h271zM338.997 -233h-40l47 161h53z" />
    <glyph glyph-name="uni0123" unicode="&#x123;" horiz-adv-x="515" 
d="M295 587h-55l65 191h38zM463 20c28.667 -20.667 42.999 -48.334 42.999 -83.001c0 -30 -10.167 -56.5 -30.5 -79.5s-48.5 -40.833 -84.5 -53.5s-77 -19 -123 -19c-75.333 0 -133 12.167 -173 36.5s-60 56.5 -60 96.5c0 26 8 48.333 24 67s38 32 66 40
c-20 8.66699 -35.833 20.667 -47.5 36s-17.5 32.333 -17.5 51c0 24 7.83301 44.333 23.5 61s36.834 28.667 63.501 36c-27.333 14 -48.333 32.833 -63 56.5s-22 50.834 -22 81.501c0 49.333 18.5 88.833 55.5 118.5s86.167 44.5 147.5 44.5
c42.667 0 80.334 -7.66699 113.001 -23c4 32 17.333 57.5 40 76.5s51 28.5 85 28.5l12 -44c-31.333 0 -56 -7 -74 -21s-28.333 -34 -31 -60c38 -30.667 57 -70.667 57 -120s-18.5 -89 -55.5 -119s-85.833 -45 -146.5 -45c-20.667 0 -43.334 2.33301 -68.001 7
c-28 -3.33301 -49.833 -11.5 -65.5 -24.5s-23.5 -28.5 -23.5 -46.5c0 -21.333 9 -38 27 -50s45 -18 81 -18h129c50 0 89.333 -10.333 118 -31zM152.999 258c27.333 -22 64.668 -33 112.001 -33c46.667 0 83.667 11 111 33s41 51.667 41 89s-13.667 66.833 -41 88.5
s-64.333 32.5 -111 32.5s-83.834 -10.833 -111.501 -32.5s-41.5 -51.167 -41.5 -88.5s13.667 -67 41 -89zM409.501 -143.5c34.333 19.667 51.501 44.501 51.501 74.501c0 24 -10.833 42.833 -32.5 56.5s-53.167 20.5 -94.5 20.5h-129c-38 0 -68.167 -7.5 -90.5 -22.5
s-33.5 -34.833 -33.5 -59.5c0 -30.667 16.667 -54.834 50 -72.501s80.666 -26.5 141.999 -26.5c56.667 0 102.167 9.83301 136.5 29.5z" />
    <glyph glyph-name="Imacron" unicode="&#x12a;" horiz-adv-x="258" 
d="M237 760h-217v42h217v-42zM154 0h-50v660h50v-660z" />
    <glyph glyph-name="imacron" unicode="&#x12b;" horiz-adv-x="229" 
d="M207 600h-187v42h187v-42zM139 0h-50v500h50v-500z" />
    <glyph glyph-name="Iogonek" unicode="&#x12e;" horiz-adv-x="258" 
d="M186 -187c-20.667 -14.667 -45.668 -22 -75.001 -22s-53.5 8.16699 -72.5 24.5s-28.5 38.5 -28.5 66.5c0 48 31.333 88.667 94 122v656h50v-660h-1c-38.667 -22 -65.334 -41.333 -80.001 -58s-22 -34.334 -22 -53.001c0 -19.333 5.83301 -34.333 17.5 -45
s27.167 -16 46.5 -16c12.667 0 23.334 1.33301 32.001 4s17.334 7.33398 26.001 14.001z" />
    <glyph glyph-name="iogonek" unicode="&#x12f;" horiz-adv-x="229" 
d="M83.5 608.5c-7.66699 7.66699 -11.5 17.834 -11.5 30.501s3.83301 22.834 11.5 30.501s17.834 11.5 30.501 11.5s22.834 -3.83301 30.501 -11.5s11.5 -17.834 11.5 -30.501s-3.83301 -22.834 -11.5 -30.501s-17.834 -11.5 -30.501 -11.5s-22.834 3.83301 -30.501 11.5z
M182 -187c-10 -8 -20.833 -13.668 -32.5 -17.001s-25.834 -5 -42.501 -5c-30 0 -54.5 8.16699 -73.5 24.5s-28.5 38.5 -28.5 66.5c0 22.667 6.83301 43 20.5 61s34.834 37 63.501 57v500h50v-500c-34.667 -24 -58.667 -44.167 -72 -60.5s-20 -34.166 -20 -53.499
c0 -18 6 -32.333 18 -43s27 -16 45 -16c23.333 0 43 6 59 18z" />
    <glyph glyph-name="Idotaccent" unicode="&#x130;" horiz-adv-x="258" 
d="M154 0h-50v660h50v-660zM159.5 829.5c7.66699 -7.66699 11.5 -17.834 11.5 -30.501s-3.83301 -22.834 -11.5 -30.501s-17.834 -11.5 -30.501 -11.5s-22.834 3.83301 -30.501 11.5s-11.5 17.834 -11.5 30.501s3.83301 22.834 11.5 30.501s17.834 11.5 30.501 11.5
s22.834 -3.83301 30.501 -11.5z" />
    <glyph glyph-name="dotlessi" unicode="&#x131;" horiz-adv-x="229" 
d="M139 0h-50v500h50v-500z" />
    <glyph glyph-name="IJ" unicode="&#x132;" horiz-adv-x="792" 
d="M154 0h-50v660h50v-660zM695 218c0 -71.333 -18.332 -127.167 -54.999 -167.5s-88.334 -60.5 -155.001 -60.5c-60.667 0 -107.667 15.5 -141 46.5s-50 73.167 -50 126.5c0 17.333 1.33301 33 4 47l47 11c-2 -16 -3 -31.333 -3 -46c0 -92.667 47.333 -139 142 -139
c56 0 96.833 16.333 122.5 49s38.5 80.667 38.5 144v431h50v-442z" />
    <glyph glyph-name="ij" unicode="&#x133;" horiz-adv-x="457" 
d="M83.5 608.5c-7.66699 7.66699 -11.5 17.834 -11.5 30.501s3.83301 22.834 11.5 30.501s17.834 11.5 30.501 11.5s22.834 -3.83301 30.501 -11.5s11.5 -17.834 11.5 -30.501s-3.83301 -22.834 -11.5 -30.501s-17.834 -11.5 -30.501 -11.5s-22.834 3.83301 -30.501 11.5z
M139 0h-50v500h50v-500zM373 669c8 -8 12 -18 12 -30c0 -11.333 -4 -21.166 -12 -29.499s-18 -12.5 -30 -12.5c-11.333 0 -21.166 4.16699 -29.499 12.5s-12.5 18.166 -12.5 29.499c0 12 4.16699 22 12.5 30s18.166 12 29.499 12c12 0 22 -4 30 -12zM368 -57
c0 -52 -13.6689 -91.332 -41.002 -117.999s-61 -40 -101 -40c-17.333 0 -33.666 2.5 -48.999 7.5s-28 11.833 -38 20.5l12 47c8.66699 -8 19.5 -14.5 32.5 -19.5s26.833 -7.5 41.5 -7.5c28.667 0 51.334 9.66699 68.001 29s25 47.666 25 84.999v553h50v-557z" />
    <glyph glyph-name="uni0136" unicode="&#x136;" horiz-adv-x="610" 
d="M286 356l-132 -134v-222h-50v660h50v-370l362 370h66l-261 -267l268 -393h-61zM307 -233h-40l47 161h53z" />
    <glyph glyph-name="uni0137" unicode="&#x137;" horiz-adv-x="527" 
d="M257 265l-118 -114v-151h-50v730h50v-516l297 286h65l-207 -200l215 -300h-61zM272 -233h-40l47 161h53z" />
    <glyph glyph-name="Lacute" unicode="&#x139;" horiz-adv-x="572" 
d="M147 743h-41l65 148h59zM550 46v-46h-446v660h50v-614h396z" />
    <glyph glyph-name="lacute" unicode="&#x13a;" horiz-adv-x="278" 
d="M183 930l-54 -133h-40l39 133h55zM135 121c0 -30.667 4.83301 -52.332 14.5 -64.999s25.834 -19 48.501 -19c13.333 0 24.666 1 33.999 3s20 5.66699 32 11l-7 -48c-18.667 -8.66699 -40.667 -13 -66 -13c-36 0 -62.667 10.167 -80 30.5s-26 52.166 -26 95.499v614h50
v-609z" />
    <glyph glyph-name="uni013B" unicode="&#x13b;" horiz-adv-x="572" 
d="M550 46v-46h-446v660h50v-614h396zM307 -233h-40l47 161h53z" />
    <glyph glyph-name="uni013C" unicode="&#x13c;" horiz-adv-x="274" 
d="M135 121c0 -30.667 4.83301 -52.332 14.5 -64.999s25.834 -19 48.501 -19c13.333 0 24.666 1 33.999 3s20 5.66699 32 11l-7 -48c-18.667 -8.66699 -40.667 -13 -66 -13c-36 0 -62.667 10.167 -80 30.5s-26 52.166 -26 95.499v614h50v-609zM157 -232.998h-40l47 161h53z
" />
    <glyph glyph-name="Lcaron" unicode="&#x13d;" horiz-adv-x="572" 
d="M294 503h-35l22 197h49zM550 46v-46h-446v660h50v-614h396z" />
    <glyph glyph-name="lcaron" unicode="&#x13e;" horiz-adv-x="274" 
d="M135 121c0 -30.667 4.83301 -52.332 14.5 -64.999s25.834 -19 48.501 -19c13.333 0 24.666 1 33.999 3s20 5.66699 32 11l-7 -48c-18.667 -8.66699 -40.667 -13 -66 -13c-36 0 -62.667 10.167 -80 30.5s-26 52.166 -26 95.499v614h50v-609zM242 533.002h-35l22 197h49z
" />
    <glyph glyph-name="Ldot" unicode="&#x13f;" horiz-adv-x="592" 
d="M550 46v-46h-446v660h50v-614h396zM541.5 371.5c8.33301 -8.33301 12.5 -19.166 12.5 -32.499s-4.16699 -24.166 -12.5 -32.499s-19.166 -12.5 -32.499 -12.5s-24.166 4.16699 -32.499 12.5s-12.5 19.166 -12.5 32.499s4.16699 24.166 12.5 32.499
s19.166 12.5 32.499 12.5s24.166 -4.16699 32.499 -12.5z" />
    <glyph glyph-name="ldot" unicode="&#x140;" horiz-adv-x="354" 
d="M135 121c0 -30.667 4.83301 -52.332 14.5 -64.999s25.834 -19 48.501 -19c13.333 0 24.666 1 33.999 3s20 5.66699 32 11l-7 -48c-18.667 -8.66699 -40.667 -13 -66 -13c-36 0 -62.667 10.167 -80 30.5s-26 52.166 -26 95.499v614h50v-609zM321.5 389.502
c8.33301 -8.33301 12.5 -19.166 12.5 -32.499s-4.16699 -24 -12.5 -32s-19.166 -12 -32.499 -12s-24.166 4.16699 -32.499 12.5s-12.5 18.833 -12.5 31.5c0 13.333 4.16699 24.166 12.5 32.499s19.166 12.5 32.499 12.5s24.166 -4.16699 32.499 -12.5z" />
    <glyph glyph-name="Lslash" unicode="&#x141;" horiz-adv-x="593" 
d="M571 46v-46h-446v265l-103 -61v53l103 61v342h50v-312l191 113v-53l-191 -114v-248h396z" />
    <glyph glyph-name="lslash" unicode="&#x142;" horiz-adv-x="328" 
d="M271 40c9.33301 2 19.998 5.66895 31.998 11.002l-7 -48c-19.333 -8.66699 -41.666 -13 -66.999 -13c-35.333 0 -61.666 10.167 -78.999 30.5s-26 52.166 -26 95.499v195l-97 -64v52l97 64v367h50v-333l122 82v-52l-122 -82v-224c0 -30.667 4.83301 -52.334 14.5 -65.001
s25.834 -19 48.501 -19c13.333 0 24.666 1 33.999 3z" />
    <glyph glyph-name="Nacute" unicode="&#x143;" horiz-adv-x="715" 
d="M464 891l-83 -148h-41l65 148h59zM611 0h-62l-350 518l-49 88h-1l3 -83v-523h-48v660h63l349 -517l50 -89l-2 83v523h47v-660z" />
    <glyph glyph-name="nacute" unicode="&#x144;" horiz-adv-x="598" 
d="M461.5 462c35 -32 52.499 -78 52.499 -138v-324h-50v308c0 53.333 -13 93 -39 119s-61.667 39 -107 39c-32 0 -61.667 -7.33301 -89 -22s-49.166 -36 -65.499 -64s-24.5 -60.667 -24.5 -98v-282h-50v500h45l2 -101c16 36 40.5 63.5 73.5 82.5s70.833 28.5 113.5 28.5
c57.333 0 103.5 -16 138.5 -48zM411.999 741l-94 -158h-41l80 158h55z" />
    <glyph glyph-name="uni0145" unicode="&#x145;" horiz-adv-x="715" 
d="M611 0h-62l-350 518l-49 88h-1l3 -83v-523h-48v660h63l349 -517l50 -89l-2 83v523h47v-660zM333 -233h-40l47 161h53z" />
    <glyph glyph-name="uni0146" unicode="&#x146;" horiz-adv-x="598" 
d="M461.5 462c35 -32 52.499 -78 52.499 -138v-324h-50v308c0 53.333 -13 93 -39 119s-61.667 39 -107 39c-32 0 -61.667 -7.33301 -89 -22s-49.166 -36 -65.499 -64s-24.5 -60.667 -24.5 -98v-282h-50v500h45l2 -101c16 36 40.5 63.5 73.5 82.5s70.833 28.5 113.5 28.5
c57.333 0 103.5 -16 138.5 -48zM291.999 -233h-40l47 161h53z" />
    <glyph glyph-name="Ncaron" unicode="&#x147;" horiz-adv-x="715" 
d="M392 740h-58l-111 156h47l93 -122l94 122h46zM611 0h-62l-350 518l-49 88h-1l3 -83v-523h-48v660h63l349 -517l50 -89l-2 83v523h47v-660z" />
    <glyph glyph-name="ncaron" unicode="&#x148;" horiz-adv-x="598" 
d="M461.5 462c35 -32 52.499 -78 52.499 -138v-324h-50v308c0 53.333 -13 93 -39 119s-61.667 39 -107 39c-32 0 -61.667 -7.33301 -89 -22s-49.166 -36 -65.499 -64s-24.5 -60.667 -24.5 -98v-282h-50v500h45l2 -101c16 36 40.5 63.5 73.5 82.5s70.833 28.5 113.5 28.5
c57.333 0 103.5 -16 138.5 -48zM334.999 583h-58l-110 155h47l92 -119l92 119h47z" />
    <glyph glyph-name="Omacron" unicode="&#x14c;" horiz-adv-x="732" 
d="M527.5 628.5c45.667 -27.667 80.834 -67 105.501 -118s37 -111.167 37 -180.5s-12.333 -129.5 -37 -180.5s-59.834 -90.333 -105.501 -118s-99.5 -41.5 -161.5 -41.5s-115.833 13.833 -161.5 41.5s-80.834 67 -105.501 118s-37 111.167 -37 180.5s12.333 129.5 37 180.5
s59.834 90.333 105.501 118s99.5 41.5 161.5 41.5s115.833 -13.833 161.5 -41.5zM232.5 588.5c-37.667 -23.667 -66.667 -57.667 -87 -102s-30.5 -96.5 -30.5 -156.5s10.167 -112.167 30.5 -156.5s49.333 -78.333 87 -102s82.167 -35.5 133.5 -35.5s96 11.833 134 35.5
s67.167 57.667 87.5 102s30.5 96.5 30.5 156.5s-10.167 112.167 -30.5 156.5s-49.5 78.333 -87.5 102s-82.667 35.5 -134 35.5s-95.833 -11.833 -133.5 -35.5zM526 760h-320v42h320v-42z" />
    <glyph glyph-name="omacron" unicode="&#x14d;" horiz-adv-x="590" 
d="M469.5 440.5c42.333 -46.333 63.5 -109.833 63.5 -190.5s-21.167 -144.167 -63.5 -190.5s-100.5 -69.5 -174.5 -69.5s-132.167 23.167 -174.5 69.5s-63.5 109.833 -63.5 190.5s21.167 144.167 63.5 190.5s100.5 69.5 174.5 69.5s132.167 -23.167 174.5 -69.5zM157 409
c-33.333 -38.667 -50 -91.667 -50 -159s16.667 -120.333 50 -159s79.333 -58 138 -58s104.667 19.333 138 58s50 91.667 50 159s-16.667 120.333 -50 159s-79.333 58 -138 58s-104.667 -19.333 -138 -58zM455 600h-320v42h320v-42z" />
    <glyph glyph-name="Ohungarumlaut" unicode="&#x150;" horiz-adv-x="732" 
d="M393 891l-82 -148h-42l66 148h58zM542 891l-82 -148h-42l66 148h58zM527.5 628.5c45.667 -27.667 80.834 -67 105.501 -118s37 -111.167 37 -180.5s-12.333 -129.5 -37 -180.5s-59.834 -90.333 -105.501 -118s-99.5 -41.5 -161.5 -41.5s-115.833 13.833 -161.5 41.5
s-80.834 67 -105.501 118s-37 111.167 -37 180.5s12.333 129.5 37 180.5s59.834 90.333 105.501 118s99.5 41.5 161.5 41.5s115.833 -13.833 161.5 -41.5zM232.5 588.5c-37.667 -23.667 -66.667 -57.667 -87 -102s-30.5 -96.5 -30.5 -156.5s10.167 -112.167 30.5 -156.5
s49.333 -78.333 87 -102s82.167 -35.5 133.5 -35.5s96 11.833 134 35.5s67.167 57.667 87.5 102s30.5 96.5 30.5 156.5s-10.167 112.167 -30.5 156.5s-49.5 78.333 -87.5 102s-82.667 35.5 -134 35.5s-95.833 -11.833 -133.5 -35.5z" />
    <glyph glyph-name="ohungarumlaut" unicode="&#x151;" horiz-adv-x="590" 
d="M469.5 440.5c42.333 -46.333 63.5 -109.833 63.5 -190.5s-21.167 -144.167 -63.5 -190.5s-100.5 -69.5 -174.5 -69.5s-132.167 23.167 -174.5 69.5s-63.5 109.833 -63.5 190.5s21.167 144.167 63.5 190.5s100.5 69.5 174.5 69.5s132.167 -23.167 174.5 -69.5zM157 409
c-33.333 -38.667 -50 -91.667 -50 -159s16.667 -120.333 50 -159s79.333 -58 138 -58s104.667 19.333 138 58s50 91.667 50 159s-16.667 120.333 -50 159s-79.333 58 -138 58s-104.667 -19.333 -138 -58zM222 583h-41l80 158h55zM377 583h-41l80 158h55z" />
    <glyph glyph-name="OE" unicode="&#x152;" horiz-adv-x="1066" 
d="M1024 46l-0.000976562 -46h-435v126c-22 -44.667 -52.667 -78.5 -92 -101.5s-86.333 -34.5 -141 -34.5c-59.333 0 -111.166 13.833 -155.499 41.5s-78.5 67 -102.5 118s-36 111.167 -36 180.5s12 129.5 36 180.5s58.167 90.333 102.5 118s96.833 41.5 157.5 41.5
c54 0 100.5 -11.5 139.5 -34.5s69.5 -56.5 91.5 -100.5v125h419v-46h-373v-255h294v-47h-294v-266h389zM529.999 111.5c39.333 50.333 59 123.168 59 218.501s-19.667 168.166 -59 218.499s-96.666 75.5 -171.999 75.5c-50 0 -93.167 -11.833 -129.5 -35.5
s-64.333 -57.667 -84 -102s-29.5 -96.5 -29.5 -156.5s9.83301 -112.167 29.5 -156.5s47.667 -78.333 84 -102s79.5 -35.5 129.5 -35.5c75.333 0 132.666 25.167 171.999 75.5z" />
    <glyph glyph-name="oe" unicode="&#x153;" horiz-adv-x="988" 
d="M931 229h-396.998c3.33301 -61.333 21.5 -109.166 54.5 -143.499s77.167 -51.5 132.5 -51.5c39.333 0 73.166 8 101.499 24s48.833 38.667 61.5 68l42 -22c-18.667 -36.667 -45.334 -64.834 -80.001 -84.501s-76.334 -29.5 -125.001 -29.5
c-51.333 0 -95 11.833 -131 35.5s-62.667 57.834 -80 102.501c-17.333 -44.667 -44.166 -78.834 -80.499 -102.501s-80.5 -35.5 -132.5 -35.5c-74.667 0 -133.334 23 -176.001 69s-64 109.667 -64 191s21.333 145 64 191s101.334 69 176.001 69
c51.333 0 95.333 -11.833 132 -35.5s63.667 -57.5 81 -101.5c16 44 41.5 77.833 76.5 101.5s77.833 35.5 128.5 35.5c68 0 121.333 -22.667 160 -68s58 -105.333 58 -180c0 -11.333 -0.666992 -22.333 -2 -33zM434.502 91.5c33 38.333 49.5 91.166 49.5 158.499
s-16.5 120.166 -49.5 158.499s-78.833 57.5 -137.5 57.5s-104.834 -19.167 -138.501 -57.5s-50.5 -91.166 -50.5 -158.499s16.833 -120.166 50.5 -158.499s79.834 -57.5 138.501 -57.5s104.5 19.167 137.5 57.5zM587.002 415.5c-31.333 -33.667 -48.667 -80.833 -52 -141.5
h351c-3.33301 60 -19.833 107 -49.5 141s-70.167 51 -121.5 51c-54 0 -96.667 -16.833 -128 -50.5z" />
    <glyph glyph-name="Racute" unicode="&#x154;" horiz-adv-x="640" 
d="M327 743h-41l65 148h59zM541 0l-189 286h-3h-195v-286h-50v660h245c66 0 118.5 -16.667 157.5 -50s58.5 -79 58.5 -137c0 -48 -14 -87.833 -42 -119.5s-66.333 -52.167 -115 -61.5l192 -292h-59zM154 333l194 0.000976562c53.333 0 94.166 12 122.499 36
s42.5 58.667 42.5 104s-14.167 80.166 -42.5 104.499s-69.166 36.5 -122.499 36.5h-194v-281z" />
    <glyph glyph-name="racute" unicode="&#x155;" horiz-adv-x="378" 
d="M362 493l-13.0029 -47c-15.333 12 -36.666 18 -63.999 18c-25.333 0 -49.166 -7.83301 -71.499 -23.5s-40.333 -37.667 -54 -66s-20.5 -59.833 -20.5 -94.5v-280h-50v500h42l6 -102c14 35.333 34.833 62.833 62.5 82.5s60.834 29.5 99.501 29.5
c26.667 0 47.667 -5.66699 63 -17zM313.997 741l-94 -158h-41l80 158h55z" />
    <glyph glyph-name="uni0156" unicode="&#x156;" horiz-adv-x="640" 
d="M541 0l-189 286h-3h-195v-286h-50v660h245c66 0 118.5 -16.667 157.5 -50s58.5 -79 58.5 -137c0 -48 -14 -87.833 -42 -119.5s-66.333 -52.167 -115 -61.5l192 -292h-59zM154 333l194 0.000976562c53.333 0 94.166 12 122.499 36s42.5 58.667 42.5 104
s-14.167 80.166 -42.5 104.499s-69.166 36.5 -122.499 36.5h-194v-281zM315 -232.999h-40l47 161h53z" />
    <glyph glyph-name="uni0157" unicode="&#x157;" horiz-adv-x="378" 
d="M362 493l-13.0029 -47c-15.333 12 -36.666 18 -63.999 18c-25.333 0 -49.166 -7.83301 -71.499 -23.5s-40.333 -37.667 -54 -66s-20.5 -59.833 -20.5 -94.5v-280h-50v500h42l6 -102c14 35.333 34.833 62.833 62.5 82.5s60.834 29.5 99.501 29.5
c26.667 0 47.667 -5.66699 63 -17zM85.9971 -233h-40l47 161h53z" />
    <glyph glyph-name="Rcaron" unicode="&#x158;" horiz-adv-x="640" 
d="M279 740l-111 156h47l93 -122l94 122h46l-111 -156h-58zM541 0l-189 286h-3h-195v-286h-50v660h245c66 0 118.5 -16.667 157.5 -50s58.5 -79 58.5 -137c0 -48 -14 -87.833 -42 -119.5s-66.333 -52.167 -115 -61.5l192 -292h-59zM154 333l194 0.000976562
c53.333 0 94.166 12 122.499 36s42.5 58.667 42.5 104s-14.167 80.166 -42.5 104.499s-69.166 36.5 -122.499 36.5h-194v-281z" />
    <glyph glyph-name="rcaron" unicode="&#x159;" horiz-adv-x="378" 
d="M362 493l-13.0029 -47c-15.333 12 -36.666 18 -63.999 18c-25.333 0 -49.166 -7.83301 -71.499 -23.5s-40.333 -37.667 -54 -66s-20.5 -59.833 -20.5 -94.5v-280h-50v500h42l6 -102c14 35.333 34.833 62.833 62.5 82.5s60.834 29.5 99.501 29.5
c26.667 0 47.667 -5.66699 63 -17zM236.997 583h-58l-110 155h47l92 -119l92 119h47z" />
    <glyph glyph-name="Sacute" unicode="&#x15a;" horiz-adv-x="619" 
d="M411 891l-83 -148h-41l65 148h59zM557 524l-42.9932 -35c-16.667 47.333 -41.5 81.666 -74.5 102.999s-76.5 32 -130.5 32c-38.667 0 -72.334 -6 -101.001 -18s-50.5 -28.333 -65.5 -49s-22.5 -44 -22.5 -70c0 -25.333 6.33301 -46.333 19 -63
s34.167 -30.834 64.5 -42.501s72.166 -22.167 125.499 -31.5c86 -14.667 147 -36 183 -64s54 -66.667 54 -116c0 -35.333 -10.333 -66.666 -31 -93.999s-49.834 -48.5 -87.501 -63.5s-80.834 -22.5 -129.501 -22.5c-69.333 0 -127.833 13.833 -175.5 41.5
s-80.167 66.5 -97.5 116.5l44 34c13.333 -47.333 40.166 -83.5 80.499 -108.5s90.166 -37.5 149.499 -37.5c57.333 0 104.166 11.667 140.499 35s54.5 55.333 54.5 96c0 35.333 -14.833 63.333 -44.5 84s-81.167 37.334 -154.5 50.001c-62 10.667 -111 23.667 -147 39
s-61.833 34.333 -77.5 57s-23.5 51 -23.5 85s9.83301 65.333 29.5 94s47.667 51.5 84 68.5s78.833 25.5 127.5 25.5c124 0 207 -48.667 249 -146z" />
    <glyph glyph-name="sacute" unicode="&#x15b;" horiz-adv-x="505" 
d="M120 20c-37.333 20 -63 48.999 -77 86.999l41 27c10 -33.333 30.333 -58.333 61 -75s68.334 -25 113.001 -25c45.333 0 80.833 8.66699 106.5 26s38.5 40.333 38.5 69c0 24.667 -11 44.334 -33 59.001s-60.667 27 -116 37c-70 12.667 -119.333 29.667 -148 51
s-43 51.666 -43 90.999c0 26 8 50 24 72s38.667 39.333 68 52s62.666 19 99.999 19c52.667 0 94.834 -10 126.501 -30s53.5 -50.667 65.5 -92l-43 -25c-18.667 68.667 -68.334 103 -149.001 103c-26.667 0 -50.834 -4.33301 -72.501 -13s-38.667 -20.167 -51 -34.5
s-18.5 -29.833 -18.5 -46.5c0 -27.333 11.333 -48.666 34 -63.999s62.667 -28 120 -38c68 -11.333 116 -27.666 144 -48.999s42 -51.333 42 -90c0 -42.667 -18.167 -76.834 -54.5 -102.501s-85.166 -38.5 -146.499 -38.5c-50.667 0 -94.667 10 -132 30zM358 740.999
l-94 -158h-41l80 158h55z" />
    <glyph glyph-name="uni015E" unicode="&#x15e;" horiz-adv-x="619" 
d="M506.5 46.5c-39.667 -32.333 -92.4971 -50.8311 -158.497 -55.498c42.667 -27.333 64 -62 64 -104c0 -27.333 -9.33301 -50.166 -28 -68.499s-43.667 -27.5 -75 -27.5c-22.667 0 -42.167 3 -58.5 9s-31.166 15.667 -44.499 29l20 35c19.333 -23.333 45 -35 77 -35
c18.667 0 34.167 5.83301 46.5 17.5s18.5 27.167 18.5 46.5s-5.83301 36.166 -17.5 50.499s-33.5 30.166 -65.5 47.499c-61.333 4.66699 -112.666 20.5 -153.999 47.5s-70 63.5 -86 109.5l44 34c13.333 -47.333 40.166 -83.5 80.499 -108.5s90.166 -37.5 149.499 -37.5
c57.333 0 104.166 11.667 140.499 35s54.5 55.333 54.5 96c0 35.333 -14.833 63.333 -44.5 84s-81.167 37.334 -154.5 50.001c-62 10.667 -111 23.667 -147 39s-61.833 34.333 -77.5 57s-23.5 51 -23.5 85s9.83301 65.333 29.5 94s47.667 51.5 84 68.5
s78.833 25.5 127.5 25.5c124 0 207 -48.667 249 -146l-43 -35c-16.667 47.333 -41.5 81.666 -74.5 102.999s-76.5 32 -130.5 32c-38.667 0 -72.334 -6 -101.001 -18s-50.5 -28.333 -65.5 -49s-22.5 -44 -22.5 -70c0 -25.333 6.33301 -46.333 19 -63
s34.167 -30.834 64.5 -42.501s72.166 -22.167 125.499 -31.5c86 -14.667 147 -36 183 -64s54 -66.667 54 -116c0 -50 -19.833 -91.167 -59.5 -123.5z" />
    <glyph glyph-name="uni015F" unicode="&#x15f;" horiz-adv-x="505" 
d="M410 37.5c-28.667 -25 -67.665 -40.1699 -116.998 -45.5029c44 -28 66 -63 66 -105c0 -27.333 -9.33301 -50.166 -28 -68.499s-43.667 -27.5 -75 -27.5c-22.667 0 -42.167 3 -58.5 9s-31.166 15.667 -44.499 29l20 35c19.333 -23.333 45 -35 77 -35
c18.667 0 34.167 5.83301 46.5 17.5s18.5 27.167 18.5 46.5s-5.83301 36.166 -17.5 50.499s-32.834 29.833 -63.501 46.5c-46.667 2.66699 -86.834 13.834 -120.501 33.501s-57.167 47.5 -70.5 83.5l41 27c10 -33.333 30.333 -58.333 61 -75s68.334 -25 113.001 -25
c45.333 0 80.833 8.66699 106.5 26s38.5 40.333 38.5 69c0 24.667 -11 44.334 -33 59.001s-60.667 27 -116 37c-70 12.667 -119.333 29.667 -148 51s-43 51.666 -43 90.999c0 26 8 50 24 72s38.667 39.333 68 52s62.666 19 99.999 19c52.667 0 94.834 -10 126.501 -30
s53.5 -50.667 65.5 -92l-43 -25c-18.667 68.667 -68.334 103 -149.001 103c-26.667 0 -50.834 -4.33301 -72.501 -13s-38.667 -20.167 -51 -34.5s-18.5 -29.833 -18.5 -46.5c0 -27.333 11.333 -48.666 34 -63.999s62.667 -28 120 -38c68 -11.333 116 -27.666 144 -48.999
s42 -51.333 42 -90c0 -37.333 -14.333 -68.5 -43 -93.5z" />
    <glyph glyph-name="Scaron" unicode="&#x160;" horiz-adv-x="619" 
d="M338 740h-58l-111 156h47l93 -122l94 122h46zM557 524l-42.9932 -35c-16.667 47.333 -41.5 81.666 -74.5 102.999s-76.5 32 -130.5 32c-38.667 0 -72.334 -6 -101.001 -18s-50.5 -28.333 -65.5 -49s-22.5 -44 -22.5 -70c0 -25.333 6.33301 -46.333 19 -63
s34.167 -30.834 64.5 -42.501s72.166 -22.167 125.499 -31.5c86 -14.667 147 -36 183 -64s54 -66.667 54 -116c0 -35.333 -10.333 -66.666 -31 -93.999s-49.834 -48.5 -87.501 -63.5s-80.834 -22.5 -129.501 -22.5c-69.333 0 -127.833 13.833 -175.5 41.5
s-80.167 66.5 -97.5 116.5l44 34c13.333 -47.333 40.166 -83.5 80.499 -108.5s90.166 -37.5 149.499 -37.5c57.333 0 104.166 11.667 140.499 35s54.5 55.333 54.5 96c0 35.333 -14.833 63.333 -44.5 84s-81.167 37.334 -154.5 50.001c-62 10.667 -111 23.667 -147 39
s-61.833 34.333 -77.5 57s-23.5 51 -23.5 85s9.83301 65.333 29.5 94s47.667 51.5 84 68.5s78.833 25.5 127.5 25.5c124 0 207 -48.667 249 -146z" />
    <glyph glyph-name="scaron" unicode="&#x161;" horiz-adv-x="505" 
d="M120 20c-37.333 20 -63 48.999 -77 86.999l41 27c10 -33.333 30.333 -58.333 61 -75s68.334 -25 113.001 -25c45.333 0 80.833 8.66699 106.5 26s38.5 40.333 38.5 69c0 24.667 -11 44.334 -33 59.001s-60.667 27 -116 37c-70 12.667 -119.333 29.667 -148 51
s-43 51.666 -43 90.999c0 26 8 50 24 72s38.667 39.333 68 52s62.666 19 99.999 19c52.667 0 94.834 -10 126.501 -30s53.5 -50.667 65.5 -92l-43 -25c-18.667 68.667 -68.334 103 -149.001 103c-26.667 0 -50.834 -4.33301 -72.501 -13s-38.667 -20.167 -51 -34.5
s-18.5 -29.833 -18.5 -46.5c0 -27.333 11.333 -48.666 34 -63.999s62.667 -28 120 -38c68 -11.333 116 -27.666 144 -48.999s42 -51.333 42 -90c0 -42.667 -18.167 -76.834 -54.5 -102.501s-85.166 -38.5 -146.499 -38.5c-50.667 0 -94.667 10 -132 30zM281 582.999h-58
l-110 155h47l92 -119l92 119h47z" />
    <glyph glyph-name="uni0162" unicode="&#x162;" horiz-adv-x="576" 
d="M313 614v-608.001c26.667 -17.333 46.167 -35.5 58.5 -54.5s18.5 -40.5 18.5 -64.5c0 -27.333 -9.66699 -50.166 -29 -68.499s-44.333 -27.5 -75 -27.5c-43.333 0 -77.333 13 -102 39l20 34c20 -23.333 45.333 -35 76 -35c19.333 0 35 6 47 18s18 27.667 18 47
c0 20.667 -6.16699 38.5 -18.5 53.5s-33.5 32.5 -63.5 52.5v614h-241v46h532v-46h-241z" />
    <glyph glyph-name="uni0163" unicode="&#x163;" horiz-adv-x="387" 
d="M330 -113c0 -27.333 -9.16992 -50.165 -27.5029 -68.498s-43.166 -27.5 -74.499 -27.5c-23.333 0 -43.166 3 -59.499 9s-30.833 15.667 -43.5 29l20 35c20 -23.333 46 -35 78 -35c18.667 0 33.834 5.83301 45.501 17.5s17.5 27.167 17.5 46.5
c0 20 -6.33301 37.667 -19 53s-36 33 -70 53c-24 8 -42.5 22.667 -55.5 44s-19.5 48.666 -19.5 81.999v332h-100v43h100v125l50 14v-139h188v-43h-188v-325c0 -31.333 7.5 -55.166 22.5 -71.499s36.833 -24.5 65.5 -24.5c33.333 0 62.333 12.333 87 37l18 -41
c-25.333 -24.667 -58 -38.334 -98 -41.001c42 -28.667 63 -63.334 63 -104.001z" />
    <glyph glyph-name="Tcaron" unicode="&#x164;" horiz-adv-x="576" 
d="M259 740l-111 156h47l93 -122l94 122h46l-111 -156h-58zM554 614h-241v-614h-50v614h-241v46h532v-46z" />
    <glyph glyph-name="tcaron" unicode="&#x165;" horiz-adv-x="377" 
d="M283 570h-35l22 197h49zM365 32c-13.333 -13.333 -29.668 -23.667 -49.001 -31s-40.666 -11 -63.999 -11c-40.667 0 -72.5 11.167 -95.5 33.5s-34.5 56.166 -34.5 101.499v332h-100v43h100v125l50 14v-139h188v-43h-188v-325c0 -31.333 7.5 -55.166 22.5 -71.499
s36.833 -24.5 65.5 -24.5c33.333 0 62.333 12.333 87 37z" />
    <glyph glyph-name="Umacron" unicode="&#x16a;" horiz-adv-x="701" 
d="M605 241c0 -81.333 -22.002 -143.5 -66.002 -186.5s-106.667 -64.5 -188 -64.5s-144.166 21.5 -188.499 64.5s-66.5 105.167 -66.5 186.5v419h50v-409c0 -70.667 17.333 -124.167 52 -160.5s85.667 -54.5 153 -54.5c66.667 0 117.334 18.167 152.001 54.5
s52 89.833 52 160.5v409h50v-419zM510.998 760h-320v42h320v-42z" />
    <glyph glyph-name="umacron" unicode="&#x16b;" horiz-adv-x="593" 
d="M504 500l-0.00195312 -499.999h-45l-2 99c-16.667 -35.333 -41.667 -62.333 -75 -81s-72.666 -28 -117.999 -28c-54.667 0 -98.334 15.167 -131.001 45.5s-49 75.166 -49 134.499v330h50v-318c0 -98.667 46 -148 138 -148c36.667 0 68.834 8 96.501 24
s48.834 37.667 63.501 65s22 57.333 22 90v287h50zM454.998 600.001h-320v42h320v-42z" />
    <glyph glyph-name="Uring" unicode="&#x16e;" horiz-adv-x="701" 
d="M605 241c0 -81.333 -22.002 -143.5 -66.002 -186.5s-106.667 -64.5 -188 -64.5s-144.166 21.5 -188.499 64.5s-66.5 105.167 -66.5 186.5v419h50v-409c0 -70.667 17.333 -124.167 52 -160.5s85.667 -54.5 153 -54.5c66.667 0 117.334 18.167 152.001 54.5
s52 89.833 52 160.5v409h50v-419zM426.498 824c19.667 -18.667 29.5 -42.667 29.5 -72s-9.83301 -53.5 -29.5 -72.5s-44.834 -28.5 -75.501 -28.5s-55.834 9.5 -75.501 28.5s-29.5 43.167 -29.5 72.5s9.83301 53.333 29.5 72s44.834 28 75.501 28
s55.834 -9.33301 75.501 -28zM302.498 800c-13 -12.667 -19.5 -28.667 -19.5 -48s6.5 -35.5 19.5 -48.5s29.167 -19.5 48.5 -19.5c20 0 36.5 6.5 49.5 19.5s19.5 29.167 19.5 48.5s-6.5 35.333 -19.5 48s-29.5 19 -49.5 19c-19.333 0 -35.5 -6.33301 -48.5 -19z" />
    <glyph glyph-name="uring" unicode="&#x16f;" horiz-adv-x="593" 
d="M504 500l-0.00195312 -499.999h-45l-2 99c-16.667 -35.333 -41.667 -62.333 -75 -81s-72.666 -28 -117.999 -28c-54.667 0 -98.334 15.167 -131.001 45.5s-49 75.166 -49 134.499v330h50v-318c0 -98.667 46 -148 138 -148c36.667 0 68.834 8 96.501 24
s48.834 37.667 63.501 65s22 57.333 22 90v287h50zM367.498 748.001c19.667 -18.667 29.5 -42.667 29.5 -72s-9.83301 -53.5 -29.5 -72.5s-44.834 -28.5 -75.501 -28.5s-55.834 9.5 -75.501 28.5s-29.5 43.167 -29.5 72.5s9.83301 53.333 29.5 72s44.834 28 75.501 28
s55.834 -9.33301 75.501 -28zM243.498 724.001c-13 -12.667 -19.5 -28.667 -19.5 -48s6.5 -35.5 19.5 -48.5s29.167 -19.5 48.5 -19.5c20 0 36.5 6.5 49.5 19.5s19.5 29.167 19.5 48.5s-6.5 35.333 -19.5 48s-29.5 19 -49.5 19c-19.333 0 -35.5 -6.33301 -48.5 -19z" />
    <glyph glyph-name="Uhungarumlaut" unicode="&#x170;" horiz-adv-x="701" 
d="M372 892l-82 -148h-42l66 148h58zM519 891l-82 -148h-42l66 148h58zM605 241c0 -81.333 -22.002 -143.5 -66.002 -186.5s-106.667 -64.5 -188 -64.5s-144.166 21.5 -188.499 64.5s-66.5 105.167 -66.5 186.5v419h50v-409c0 -70.667 17.333 -124.167 52 -160.5
s85.667 -54.5 153 -54.5c66.667 0 117.334 18.167 152.001 54.5s52 89.833 52 160.5v409h50v-419z" />
    <glyph glyph-name="uhungarumlaut" unicode="&#x171;" horiz-adv-x="593" 
d="M504 500l-0.00195312 -499.999h-45l-2 99c-16.667 -35.333 -41.667 -62.333 -75 -81s-72.666 -28 -117.999 -28c-54.667 0 -98.334 15.167 -131.001 45.5s-49 75.166 -49 134.499v330h50v-318c0 -98.667 46 -148 138 -148c36.667 0 68.834 8 96.501 24
s48.834 37.667 63.501 65s22 57.333 22 90v287h50zM221.998 583.001h-41l80 158h55zM376.998 583.001h-41l80 158h55z" />
    <glyph glyph-name="Uogonek" unicode="&#x172;" horiz-adv-x="701" 
d="M605 660l-0.00292969 -419c0 -66.667 -15 -120.667 -45 -162s-73.333 -68.333 -130 -81c-38.667 -18.667 -66.167 -37 -82.5 -55s-24.5 -37 -24.5 -57c0 -18.667 6.33301 -33 19 -43s29 -15 49 -15c26.667 0 47.334 5.33301 62.001 16l12 -34
c-20.667 -12.667 -47 -19 -79 -19c-30.667 0 -55.834 8 -75.501 24s-29.5 37.667 -29.5 65c0 22.667 5.83301 42.667 17.5 60s29.834 34 54.501 50h-2c-81.333 0 -144.166 21.5 -188.499 64.5s-66.5 105.167 -66.5 186.5v419h50v-409c0 -70.667 17.333 -124.167 52 -160.5
s85.667 -54.5 153 -54.5c66.667 0 117.334 18.167 152.001 54.5s52 89.833 52 160.5v409h50z" />
    <glyph glyph-name="uogonek" unicode="&#x173;" horiz-adv-x="593" 
d="M521 -187c-20 -14.667 -45.665 -22.001 -76.998 -22.001c-30.667 0 -54.667 7.5 -72 22.5s-26 35.5 -26 61.5c0 27.333 8.83301 50.833 26.5 70.5s47.167 40.5 88.5 62.5l-5 98c-17.333 -35.333 -43.333 -63.5 -78 -84.5s-72.667 -31.5 -114 -31.5
c-54.667 0 -98.334 15.167 -131.001 45.5s-49 75.166 -49 134.499v330h50v-318c0 -50.667 11.833 -88 35.5 -112s57.167 -36 100.5 -36c36 0 68 8.66699 96 26s49.667 40 65 68s23 57.667 23 89v283h50v-500c-44.667 -25.333 -75.5 -46.166 -92.5 -62.499
s-25.5 -34.833 -25.5 -55.5c0 -17.333 5.66699 -30.666 17 -39.999s26.666 -14 45.999 -14c25.333 0 45.333 5.33301 60 16z" />
    <glyph glyph-name="Ydieresis" unicode="&#x178;" horiz-adv-x="544" 
d="M297 257v-257h-50v257l-234 403h59l200 -351l200 351h59zM206 819.5c7.33301 -7.66699 11 -17.5 11 -29.5s-3.66699 -21.667 -11 -29s-17 -11 -29 -11s-21.833 3.66699 -29.5 11s-11.5 17 -11.5 29s3.83301 21.833 11.5 29.5s17.5 11.5 29.5 11.5
s21.667 -3.83301 29 -11.5zM395.5 819.5c7.66699 -7.66699 11.5 -17.5 11.5 -29.5s-3.83301 -21.667 -11.5 -29s-17.5 -11 -29.5 -11s-21.833 3.66699 -29.5 11s-11.5 17 -11.5 29s3.83301 21.833 11.5 29.5s17.5 11.5 29.5 11.5s21.833 -3.83301 29.5 -11.5z" />
    <glyph glyph-name="Zacute" unicode="&#x179;" horiz-adv-x="593" 
d="M311 743h-41l65 148h59zM553 46v-46h-510v44l435 570h-426v46h485v-44l-435 -570h451z" />
    <glyph glyph-name="zacute" unicode="&#x17a;" horiz-adv-x="505" 
d="M49 39l294 361l52 58l-79 -1h-270v43h405v-39l-285 -352l-60 -67l90 1h267v-43h-414v39zM351 741l-94 -158h-41l80 158h55z" />
    <glyph glyph-name="Zdotaccent" unicode="&#x17b;" horiz-adv-x="593" 
d="M553 46v-46h-510v44l435 570h-426v46h485v-44l-435 -570h451zM323.5 829.5c7.66699 -7.66699 11.5 -17.834 11.5 -30.501s-3.83301 -22.834 -11.5 -30.501s-17.834 -11.5 -30.501 -11.5s-22.834 3.83301 -30.501 11.5s-11.5 17.834 -11.5 30.501
s3.83301 22.834 11.5 30.501s17.834 11.5 30.501 11.5s22.834 -3.83301 30.501 -11.5z" />
    <glyph glyph-name="zdotaccent" unicode="&#x17c;" horiz-adv-x="505" 
d="M49 39l294 361l52 58l-79 -1h-270v43h405v-39l-285 -352l-60 -67l90 1h267v-43h-414v39zM275.5 669.5c7.66699 -7.66699 11.5 -17.834 11.5 -30.501s-3.83301 -22.834 -11.5 -30.501s-17.834 -11.5 -30.501 -11.5s-22.834 3.83301 -30.501 11.5
s-11.5 17.834 -11.5 30.501s3.83301 22.834 11.5 30.501s17.834 11.5 30.501 11.5s22.834 -3.83301 30.501 -11.5z" />
    <glyph glyph-name="Zcaron" unicode="&#x17d;" horiz-adv-x="593" 
d="M263 740l-111 156h47l93 -122l94 122h46l-111 -156h-58zM553 46v-46h-510v44l435 570h-426v46h485v-44l-435 -570h451z" />
    <glyph glyph-name="zcaron" unicode="&#x17e;" horiz-adv-x="505" 
d="M49 39l294 361l52 58l-79 -1h-270v43h405v-39l-285 -352l-60 -67l90 1h267v-43h-414v39zM274 583h-58l-110 155h47l92 -119l92 119h47z" />
    <glyph glyph-name="longs" unicode="&#x17f;" horiz-adv-x="236" 
d="M85 588c0 47.333 10.166 83.667 30.499 109s51.166 38 92.499 38c32.667 0 56.334 -8 71.001 -24l-11 -40c-8 6.66699 -15.667 11.5 -23 14.5s-16.666 4.5 -27.999 4.5c-54.667 0 -82 -35.333 -82 -106v-584h-50v588z" />
    <glyph glyph-name="florin" unicode="&#x192;" horiz-adv-x="446" 
d="M277 584l-29.002 -183.999h157v-43h-164l-53 -338c-16 -98 -63.333 -147 -142 -147c-16.667 0 -30.667 1.5 -42 4.5s-23.666 8.5 -36.999 16.5l9 43c18.667 -12.667 40.667 -19 66 -19c52.667 0 84.334 35.333 95.001 106l53 334h-149v43h155l30 188
c8 49.333 23.5 86.166 46.5 110.499s54.167 36.5 93.5 36.5c17.333 0 31.5 -1.33301 42.5 -4s22.833 -7.66699 35.5 -15l-7 -45c-19.333 12.667 -40.333 19 -63 19c-54.667 0 -87 -35.333 -97 -106z" />
    <glyph glyph-name="uni0218" unicode="&#x218;" horiz-adv-x="619" 
d="M557 524l-42.9932 -35c-16.667 47.333 -41.5 81.666 -74.5 102.999s-76.5 32 -130.5 32c-38.667 0 -72.334 -6 -101.001 -18s-50.5 -28.333 -65.5 -49s-22.5 -44 -22.5 -70c0 -25.333 6.33301 -46.333 19 -63s34.167 -30.834 64.5 -42.501s72.166 -22.167 125.499 -31.5
c86 -14.667 147 -36 183 -64s54 -66.667 54 -116c0 -35.333 -10.333 -66.666 -31 -93.999s-49.834 -48.5 -87.501 -63.5s-80.834 -22.5 -129.501 -22.5c-69.333 0 -127.833 13.833 -175.5 41.5s-80.167 66.5 -97.5 116.5l44 34c13.333 -47.333 40.166 -83.5 80.499 -108.5
s90.166 -37.5 149.499 -37.5c57.333 0 104.166 11.667 140.499 35s54.5 55.333 54.5 96c0 35.333 -14.833 63.333 -44.5 84s-81.167 37.334 -154.5 50.001c-62 10.667 -111 23.667 -147 39s-61.833 34.333 -77.5 57s-23.5 51 -23.5 85s9.83301 65.333 29.5 94
s47.667 51.5 84 68.5s78.833 25.5 127.5 25.5c124 0 207 -48.667 249 -146zM296.007 -233h-40l47 161h53z" />
    <glyph glyph-name="uni0219" unicode="&#x219;" horiz-adv-x="505" 
d="M120 20c-37.333 20 -63 48.999 -77 86.999l41 27c10 -33.333 30.333 -58.333 61 -75s68.334 -25 113.001 -25c45.333 0 80.833 8.66699 106.5 26s38.5 40.333 38.5 69c0 24.667 -11 44.334 -33 59.001s-60.667 27 -116 37c-70 12.667 -119.333 29.667 -148 51
s-43 51.666 -43 90.999c0 26 8 50 24 72s38.667 39.333 68 52s62.666 19 99.999 19c52.667 0 94.834 -10 126.501 -30s53.5 -50.667 65.5 -92l-43 -25c-18.667 68.667 -68.334 103 -149.001 103c-26.667 0 -50.834 -4.33301 -72.501 -13s-38.667 -20.167 -51 -34.5
s-18.5 -29.833 -18.5 -46.5c0 -27.333 11.333 -48.666 34 -63.999s62.667 -28 120 -38c68 -11.333 116 -27.666 144 -48.999s42 -51.333 42 -90c0 -42.667 -18.167 -76.834 -54.5 -102.501s-85.166 -38.5 -146.499 -38.5c-50.667 0 -94.667 10 -132 30zM226 -233.001h-40
l47 161h53z" />
    <glyph glyph-name="uni021A" unicode="&#x21a;" horiz-adv-x="576" 
d="M554 614h-241v-614h-50v614h-241v46h532v-46zM258 -233h-40l47 161h53z" />
    <glyph glyph-name="uni021B" unicode="&#x21b;" horiz-adv-x="377" 
d="M365 32c-13.333 -13.333 -29.668 -23.667 -49.001 -31s-40.666 -11 -63.999 -11c-40.667 0 -72.5 11.167 -95.5 33.5s-34.5 56.166 -34.5 101.499v332h-100v43h100v125l50 14v-139h188v-43h-188v-325c0 -31.333 7.5 -55.166 22.5 -71.499s36.833 -24.5 65.5 -24.5
c33.333 0 62.333 12.333 87 37zM197.998 -233.001h-40l47 161h53z" />
    <glyph glyph-name="circumflex" unicode="&#x2c6;" horiz-adv-x="523" 
d="M354 579l-92 120l-92 -120h-47l110 156h57l111 -156h-47z" />
    <glyph glyph-name="caron" unicode="&#x2c7;" horiz-adv-x="523" 
d="M279 583h-58l-110 155h47l92 -119l92 119h47z" />
    <glyph glyph-name="uni02C9" unicode="&#x2c9;" horiz-adv-x="523" 
d="M422 600h-320v42h320v-42z" />
    <glyph glyph-name="breve" unicode="&#x2d8;" horiz-adv-x="523" 
d="M351 615.5c-24.667 -24.333 -57.665 -36.502 -98.998 -36.502c-40.667 0 -73.334 12.333 -98.001 37s-37 57.334 -37 98.001h42c0 -28 8.66699 -51.167 26 -69.5s39.666 -27.5 66.999 -27.5c28 0 50.667 9.16699 68 27.5s26 41.5 26 69.5h42
c0 -41.333 -12.333 -74.166 -37 -98.499z" />
    <glyph glyph-name="dotaccent" unicode="&#x2d9;" horiz-adv-x="523" 
d="M292.5 669.5c7.66699 -7.66699 11.5 -17.834 11.5 -30.501s-3.83301 -22.834 -11.5 -30.501s-17.834 -11.5 -30.501 -11.5s-22.834 3.83301 -30.501 11.5s-11.5 17.834 -11.5 30.501s3.83301 22.834 11.5 30.501s17.834 11.5 30.501 11.5s22.834 -3.83301 30.501 -11.5z
" />
    <glyph glyph-name="ring" unicode="&#x2da;" horiz-adv-x="523" 
d="M325.5 748c19.667 -18.667 29.5 -42.667 29.5 -72s-9.83301 -53.5 -29.5 -72.5s-44.834 -28.5 -75.501 -28.5s-55.834 9.5 -75.501 28.5s-29.5 43.167 -29.5 72.5s9.83301 53.333 29.5 72s44.834 28 75.501 28s55.834 -9.33301 75.501 -28zM201.5 724
c-13 -12.667 -19.5 -28.667 -19.5 -48s6.5 -35.5 19.5 -48.5s29.167 -19.5 48.5 -19.5c20 0 36.5 6.5 49.5 19.5s19.5 29.167 19.5 48.5s-6.5 35.333 -19.5 48s-29.5 19 -49.5 19c-19.333 0 -35.5 -6.33301 -48.5 -19z" />
    <glyph glyph-name="ogonek" unicode="&#x2db;" horiz-adv-x="523" 
d="M237 -50c-20.667 -20 -30.999 -41.3311 -30.999 -63.998c0 -18.667 6.33301 -33 19 -43s29 -15 49 -15c26.667 0 47.334 5.33301 62.001 16l12 -34c-20.667 -12.667 -47 -19 -79 -19c-30.667 0 -55.834 8 -75.501 24s-29.5 37.667 -29.5 65
c0 31.333 11.167 58.166 33.5 80.499s59.166 44.166 110.499 65.499l35 -14c-50 -21.333 -85.333 -42 -106 -62z" />
    <glyph glyph-name="tilde" unicode="&#x2dc;" horiz-adv-x="523" 
d="M390 618c-16 -18 -38.6699 -27 -68.0029 -27c-18.667 0 -33.834 3.16699 -45.501 9.5s-24.5 15.833 -38.5 28.5c-10.667 10 -20.167 17.5 -28.5 22.5s-18.166 7.5 -29.499 7.5c-18 0 -31.167 -5.5 -39.5 -16.5s-14.833 -28.5 -19.5 -52.5h-40
c4.66699 37.333 14.834 65 30.501 83s38.834 27 69.501 27c18 0 32.833 -3.16699 44.5 -9.5s24.5 -15.833 38.5 -28.5c10.667 -10 20.167 -17.5 28.5 -22.5s17.833 -7.5 28.5 -7.5c18 0 31.333 5.5 40 16.5s15.334 28.5 20.001 52.5h40c-4.66699 -37.333 -15 -65 -31 -83z
" />
    <glyph glyph-name="hungarumlaut" unicode="&#x2dd;" horiz-adv-x="523" 
d="M162 583h-41l80 158h55zM317 583h-41l80 158h55z" />
    <glyph glyph-name="uni0326" unicode="&#x326;" horiz-adv-x="0" 
d="M-285 -233h-40l47 161h53z" />
    <glyph glyph-name="pi" unicode="&#x3c0;" horiz-adv-x="709" 
d="M521 458l-0.000976562 -342c0 -27.333 9.33301 -46.5 28 -57.5s46.334 -16.5 83.001 -16.5l-10 -42c-51.333 -0 -89.333 8.33301 -114 25s-37 45 -37 85v348h-252v-458h-50v458h-150v42h661v-42h-159z" />
    <glyph glyph-name="uni1E9E" unicode="&#x1e9e;" horiz-adv-x="667" 
d="M572 313.5c35.333 -29.667 52.998 -73.167 52.998 -130.5c0 -37.333 -8.33301 -70.166 -25 -98.499s-40 -50.333 -70 -66s-64.333 -23.5 -103 -23.5c-37.333 0 -70.666 6 -99.999 18s-49.666 26.667 -60.999 44l23 37c12 -16 29.833 -29 53.5 -39s50.5 -15 80.5 -15
c44.667 0 80.834 13.167 108.501 39.5s41.5 60.833 41.5 103.5c0 43.333 -14.333 76.166 -43 98.499s-70.667 33.5 -126 33.5h-84v43l207 256h-206c-49.333 0 -89.5 -16 -120.5 -48s-46.5 -73.333 -46.5 -124v-442h-50v443c0 42.667 9 80.5 27 113.5s43.5 58.5 76.5 76.5
s70.833 27 113.5 27h265v-47l-212 -255h47c65.333 0 115.666 -14.833 150.999 -44.5z" />
    <glyph glyph-name="endash" unicode="&#x2013;" horiz-adv-x="638" 
d="M563 242h-488v47h488v-47z" />
    <glyph glyph-name="emdash" unicode="&#x2014;" horiz-adv-x="979" 
d="M903 242h-828v47h828v-47z" />
    <glyph glyph-name="quoteleft" unicode="&#x2018;" horiz-adv-x="217" 
d="M68 506c-10 13.333 -14.999 30.667 -14.999 52c0 28.667 7.16699 55.167 21.5 79.5s35.833 43.5 64.5 57.5l28 -25c-23.333 -8 -42.5 -22.333 -57.5 -43s-21.833 -40.667 -20.5 -60l3 -1c4 6 11.667 9 23 9c10 0 19 -4 27 -12s12 -18.667 12 -32
c0 -12 -4.33301 -22.5 -13 -31.5s-19.334 -13.5 -32.001 -13.5c-17.333 0 -31 6.66699 -41 20z" />
    <glyph glyph-name="quoteright" unicode="&#x2019;" horiz-adv-x="216" 
d="M153 674c10 -13.333 14.999 -30.667 14.999 -52c0 -28.667 -7.16699 -55.167 -21.5 -79.5s-35.833 -43.5 -64.5 -57.5l-28 25c23.333 8 42.5 22.333 57.5 43s21.833 40.667 20.5 60l-3 1c-4 -6 -11.667 -9 -23 -9c-10 0 -19 3.83301 -27 11.5s-12 18.167 -12 31.5
c0 12.667 4.33301 23.5 13 32.5s19.334 13.5 32.001 13.5c17.333 0 31 -6.66699 41 -20z" />
    <glyph glyph-name="quotesinglbase" unicode="&#x201a;" horiz-adv-x="223" 
d="M150.5 62c9.66699 -13.333 14.501 -31.001 14.501 -53.001c0 -28 -7.33301 -54.333 -22 -79s-36 -44 -64 -58l-28 25c23.333 8.66699 42.5 23.334 57.5 44.001s21.833 40.667 20.5 60l-3 1c-4.66699 -6.66699 -12.334 -10 -23.001 -10c-10 0 -19 4 -27 12
s-12 18.667 -12 32c0 12.667 4.5 23.5 13.5 32.5s19.833 13.5 32.5 13.5c17.333 0 30.833 -6.66699 40.5 -20z" />
    <glyph glyph-name="quotedblleft" unicode="&#x201c;" horiz-adv-x="362" 
d="M68 506c-10 13.333 -14.999 30.667 -14.999 52c0 28.667 7.16699 55.167 21.5 79.5s35.833 43.5 64.5 57.5l28 -25c-23.333 -8 -42.5 -22.333 -57.5 -43s-21.833 -40.667 -20.5 -60l3 -1c4 6 11.667 9 23 9c10 0 19 -4 27 -12s12 -18.667 12 -32
c0 -12 -4.33301 -22.5 -13 -31.5s-19.334 -13.5 -32.001 -13.5c-17.333 0 -31 6.66699 -41 20zM214.001 506.001c-10 13.333 -14.999 30.667 -14.999 52c0 28.667 7.16699 55.167 21.5 79.5s35.833 43.5 64.5 57.5l28 -25c-23.333 -8 -42.5 -22.333 -57.5 -43
s-21.833 -40.667 -20.5 -60l3 -1c4 6 11.667 9 23 9c10 0 19 -4 27 -12s12 -18.667 12 -32c0 -12 -4.33301 -22.5 -13 -31.5s-19.334 -13.5 -32.001 -13.5c-17.333 0 -31 6.66699 -41 20z" />
    <glyph glyph-name="quotedblright" unicode="&#x201d;" horiz-adv-x="362" 
d="M153 674c10 -13.333 14.999 -30.667 14.999 -52c0 -28.667 -7.16699 -55.167 -21.5 -79.5s-35.833 -43.5 -64.5 -57.5l-28 25c23.333 8 42.5 22.333 57.5 43s21.833 40.667 20.5 60l-3 1c-4 -6 -11.667 -9 -23 -9c-10 0 -19 3.83301 -27 11.5s-12 18.167 -12 31.5
c0 12.667 4.33301 23.5 13 32.5s19.334 13.5 32.001 13.5c17.333 0 31 -6.66699 41 -20zM298.999 673.999c10 -13.333 14.999 -30.667 14.999 -52c0 -28.667 -7.16699 -55.167 -21.5 -79.5s-35.833 -43.5 -64.5 -57.5l-28 25c23.333 8 42.5 22.333 57.5 43
s21.833 40.667 20.5 60l-3 1c-4 -6 -11.667 -9 -23 -9c-10 0 -19 3.83301 -27 11.5s-12 18.167 -12 31.5c0 12.667 4.33301 23.5 13 32.5s19.334 13.5 32.001 13.5c17.333 0 31 -6.66699 41 -20z" />
    <glyph glyph-name="quotedblbase" unicode="&#x201e;" horiz-adv-x="369" 
d="M150.5 62c9.66699 -13.333 14.501 -31.001 14.501 -53.001c0 -28 -7.33301 -54.333 -22 -79s-36 -44 -64 -58l-28 25c23.333 8.66699 42.5 23.334 57.5 44.001s21.833 40.667 20.5 60l-3 1c-4.66699 -6.66699 -12.334 -10 -23.001 -10c-10 0 -19 4 -27 12
s-12 18.667 -12 32c0 12.667 4.5 23.5 13.5 32.5s19.833 13.5 32.5 13.5c17.333 0 30.833 -6.66699 40.5 -20zM296.501 61.999c9.66699 -13.333 14.501 -31.001 14.501 -53.001c0 -28 -7.33301 -54.333 -22 -79s-36 -44 -64 -58l-28 25
c23.333 8.66699 42.5 23.334 57.5 44.001s21.833 40.667 20.5 60l-3 1c-4.66699 -6.66699 -12.334 -10 -23.001 -10c-10 0 -19 4 -27 12s-12 18.667 -12 32c0 12.667 4.5 23.5 13.5 32.5s19.833 13.5 32.5 13.5c17.333 0 30.833 -6.66699 40.5 -20z" />
    <glyph glyph-name="dagger" unicode="&#x2020;" horiz-adv-x="511" 
d="M467 408h-186v-508h-50v508h-187v42h187v210h50v-210h186v-42z" />
    <glyph glyph-name="daggerdbl" unicode="&#x2021;" horiz-adv-x="511" 
d="M281 408v-256h186v-42h-186v-210h-50v210h-187v42h187v256h-187v42h187v210h50v-210h186v-42h-186z" />
    <glyph glyph-name="bullet" unicode="&#x2022;" horiz-adv-x="430" 
d="M283 404c18 -17.333 27 -39.333 27 -66s-9 -48.667 -27 -66s-40.667 -26 -68 -26s-50 8.66699 -68 26s-27 39.333 -27 66s9 48.667 27 66s40.667 26 68 26s50 -8.66699 68 -26z" />
    <glyph glyph-name="ellipsis" unicode="&#x2026;" horiz-adv-x="706" 
d="M622.5 69.5c8.33301 -8.33301 12.5 -19.166 12.5 -32.499s-4.16699 -24.166 -12.5 -32.499s-19.166 -12.5 -32.499 -12.5s-24.166 4.16699 -32.499 12.5s-12.5 19.166 -12.5 32.499s4.16699 24.166 12.5 32.499s19.166 12.5 32.499 12.5s24.166 -4.16699 32.499 -12.5z
M385.5 69.5c8.33301 -8.33301 12.5 -19.166 12.5 -32.499s-4.16699 -24.166 -12.5 -32.499s-19.166 -12.5 -32.499 -12.5s-24.166 4.16699 -32.499 12.5s-12.5 19.166 -12.5 32.499s4.16699 24.166 12.5 32.499s19.166 12.5 32.499 12.5s24.166 -4.16699 32.499 -12.5z
M149.5 69.5c8.33301 -8.33301 12.5 -19.166 12.5 -32.499s-4.16699 -24.166 -12.5 -32.499s-19.166 -12.5 -32.499 -12.5s-24.166 4.16699 -32.499 12.5s-12.5 19.166 -12.5 32.499s4.16699 24.166 12.5 32.499s19.166 12.5 32.499 12.5s24.166 -4.16699 32.499 -12.5z" />
    <glyph glyph-name="perthousand" unicode="&#x2030;" horiz-adv-x="1181" 
d="M299 616c26 -32.667 39 -74.6689 39 -126.002s-13 -93.166 -39 -125.499s-62.667 -48.5 -110 -48.5c-46.667 0 -83.167 16.333 -109.5 49s-39.5 74.334 -39.5 125.001c0 51.333 13 93.333 39 126s62.667 49 110 49s84 -16.333 110 -49zM596 659.998h49l-433 -660h-49z
M111.5 587.498c-17.667 -25 -26.5 -57.5 -26.5 -97.5s8.83301 -72.333 26.5 -97s43.5 -37 77.5 -37s59.833 12.333 77.5 37s26.5 57 26.5 97s-8.83301 72.5 -26.5 97.5s-43.5 37.5 -77.5 37.5s-59.833 -12.5 -77.5 -37.5zM729.5 294.498
c26.333 -33 39.5 -74.833 39.5 -125.5s-13.167 -92.334 -39.5 -125.001s-62.833 -49 -109.5 -49c-47.333 0 -84.166 16.333 -110.499 49s-39.5 74.334 -39.5 125.001c0 51.333 13.167 93.333 39.5 126s63.166 49 110.499 49c46.667 0 83.167 -16.5 109.5 -49.5z
M1102 294.998c26 -32.667 39 -74.6689 39 -126.002s-13 -93.166 -39 -125.499s-62.667 -48.5 -110 -48.5s-84.166 16.333 -110.499 49s-39.5 74.334 -39.5 125.001c0 51.333 13.167 93.333 39.5 126s63.166 49 110.499 49s84 -16.333 110 -49zM542 266.996
c-18 -24.667 -27 -57.334 -27 -98.001c0 -40 9 -72.333 27 -97s44 -37 78 -37s59.833 12.333 77.5 37s26.5 57 26.5 97c0 40.667 -8.83301 73.334 -26.5 98.001s-43.5 37 -77.5 37s-60 -12.333 -78 -37zM914 266.996c-18 -24.667 -27 -57.334 -27 -98.001
c0 -40 9 -72.333 27 -97s44 -37 78 -37s59.833 12.333 77.5 37s26.5 57 26.5 97c0 40.667 -8.83301 73.334 -26.5 98.001s-43.5 37 -77.5 37s-60 -12.333 -78 -37z" />
    <glyph glyph-name="guilsinglleft" unicode="&#x2039;" horiz-adv-x="290" 
d="M103 265l136 -196h-56l-134 196l134 196h56z" />
    <glyph glyph-name="guilsinglright" unicode="&#x203a;" horiz-adv-x="290" 
d="M107 461l135 -196l-135 -196h-56l136 196l-136 196h56z" />
    <glyph glyph-name="fraction" unicode="&#x2044;" horiz-adv-x="226" 
d="M323 660h51l-471 -660h-51z" />
    <glyph glyph-name="uni2070" unicode="&#x2070;" horiz-adv-x="378" 
d="M75 379c-26 34.667 -39 85.334 -39 152.001s13 117.334 39 152.001s64 52 114 52s88 -17.333 114 -52s39 -85.334 39 -152.001s-13 -117.334 -39 -152.001s-64 -52 -114 -52s-88 17.333 -114 52zM270.5 406.5c18.333 28.333 27.5 69.833 27.5 124.5
s-9.16699 96.167 -27.5 124.5s-45.5 42.5 -81.5 42.5c-35.333 0 -62.166 -14.167 -80.499 -42.5s-27.5 -69.833 -27.5 -124.5s9.16699 -96.167 27.5 -124.5s45.166 -42.5 80.499 -42.5c36 0 63.167 14.167 81.5 42.5z" />
    <glyph glyph-name="uni2074" unicode="&#x2074;" horiz-adv-x="344" 
d="M325 442h-76v-109h-39v109h-198v26l187 262h50v-255h76v-33zM210 475v156.999c0 13.333 0.666992 33.333 2 60h-2l-12 -20l-9 -14c-3.33301 -5.33301 -7 -10.666 -11 -15.999l-122 -167h154z" />
    <glyph glyph-name="uni2075" unicode="&#x2075;" horiz-adv-x="345" 
d="M279.5 549c23.667 -23.333 35.5 -53.332 35.5 -89.999c0 -40.667 -13 -72.667 -39 -96s-60 -35 -102 -35c-74.667 0 -122.334 30.333 -143.001 91l40 21c10.667 -50 44.667 -75 102 -75c28.667 0 52 8.66699 70 26s27 39.666 27 66.999
c0 28.667 -8.16699 51.167 -24.5 67.5s-39.5 24.5 -69.5 24.5c-24 0 -43.667 -3.66699 -59 -11s-27.666 -18.333 -36.999 -33h-36l19 224h233v-37h-198l-11 -119c-2 -14.667 -3.66699 -24 -5 -28h1c10.667 12 24.167 21.333 40.5 28s37.5 10 63.5 10
c38 0 68.833 -11.667 92.5 -35z" />
    <glyph glyph-name="uni2076" unicode="&#x2076;" horiz-adv-x="358" 
d="M75.5 379.5c-26.333 35 -39.502 85.498 -39.502 151.498s14.833 116.5 44.5 151.5s68.167 52.5 115.5 52.5c61.333 0 102 -26.333 122 -79l-37 -18c-6.66699 18.667 -17 33.334 -31 44.001s-32.333 16 -55 16c-38.667 0 -67.834 -16.333 -87.501 -49
s-29.5 -72.667 -29.5 -120c0 -14 0.333008 -24 1 -30h1c8.66699 25.333 22.834 44.833 42.501 58.5s43.5 20.5 71.5 20.5c40.667 0 72.834 -11.333 96.501 -34s35.5 -53 35.5 -91c0 -39.333 -12.167 -70.166 -36.5 -92.499s-57.833 -33.5 -100.5 -33.5
c-49.333 0 -87.166 17.5 -113.499 52.5zM257.998 386.998c16.667 16 25.001 38 25.001 66c0 27.333 -8.33301 49 -25 65s-39.334 24 -68.001 24c-28 0 -51.167 -9 -69.5 -27s-27.5 -38.667 -27.5 -62c0 -26 9 -47.5 27 -64.5s41 -25.5 69 -25.5c29.333 0 52.333 8 69 24z
" />
    <glyph glyph-name="uni2077" unicode="&#x2077;" horiz-adv-x="304" 
d="M296 730v-36.999c-49.333 -52 -85.833 -107.333 -109.5 -166s-35.5 -123.334 -35.5 -194.001h-44c0 67.333 12 131.333 36 192s60 116.667 108 168h-247v37h292z" />
    <glyph glyph-name="uni2078" unicode="&#x2078;" horiz-adv-x="366" 
d="M278.5 706c23.667 -18.667 35.5 -43.6699 35.5 -75.0029c0 -22 -6.33301 -41 -19 -57s-30.334 -27.333 -53.001 -34v-1c27.333 -7.33301 49 -19.666 65 -36.999s24 -38.666 24 -63.999c0 -34 -13.5 -61 -40.5 -81s-62.833 -30 -107.5 -30s-80.5 10 -107.5 30
s-40.5 47 -40.5 81c0 24.667 8 45.834 24 63.501s37.667 30.167 65 37.5v1c-22.667 6.66699 -40.5 18 -53.5 34s-19.5 35 -19.5 57c0 31.333 11.833 56.333 35.5 75s55.834 28 96.501 28c40 0 71.833 -9.33301 95.5 -28zM119.5 680.497
c-15.667 -13 -23.5 -30.167 -23.5 -51.5s7.83301 -38.666 23.5 -51.999s36.834 -20 63.501 -20s47.834 6.66699 63.501 20s23.5 30.666 23.5 51.999s-7.83301 38.5 -23.5 51.5s-36.834 19.5 -63.501 19.5s-47.834 -6.5 -63.501 -19.5zM257.5 383.997
c19 14.667 28.5 33.667 28.5 57c0 24 -9.5 43.333 -28.5 58s-43.833 22 -74.5 22s-55.5 -7.33301 -74.5 -22s-28.5 -34 -28.5 -58c0 -23.333 9.5 -42.333 28.5 -57s43.833 -22 74.5 -22s55.5 7.33301 74.5 22z" />
    <glyph glyph-name="uni2079" unicode="&#x2079;" horiz-adv-x="366" 
d="M289.5 681c27 -36 40.501 -86.335 40.501 -151.002c0 -65.333 -13.833 -115.5 -41.5 -150.5s-65.5 -52.5 -113.5 -52.5c-35.333 0 -64.833 7.33301 -88.5 22s-40.167 36 -49.5 64l42 18c10 -45.333 42.333 -68 97 -68c38.667 0 67.167 15.667 85.5 47s27.5 69 27.5 113
c0 11.333 -1.33301 26.333 -4 45h-1c-2.66699 -23.333 -15.334 -43.166 -38.001 -59.499s-47 -24.5 -73 -24.5c-42.667 0 -76.167 11.333 -100.5 34s-36.5 53 -36.5 91c0 38.667 12.667 69.334 38 92.001s59.333 34 102 34c48.667 0 86.5 -18 113.5 -54zM106.001 673.998
c-17.333 -16 -25.999 -37.667 -25.999 -65s8.66699 -49 26 -65s40.666 -24 69.999 -24c28 0 51.167 8.66699 69.5 26s27.5 38 27.5 62c0 26 -9 47.5 -27 64.5s-41 25.5 -69 25.5c-30 0 -53.667 -8 -71 -24z" />
    <glyph glyph-name="uni207A" unicode="&#x207a;" horiz-adv-x="336" 
d="M306 515h-119v-122h-37v122h-119v32h119v122h37v-122h119v-32z" />
    <glyph glyph-name="uni207B" unicode="&#x207b;" horiz-adv-x="336" 
d="M33 547h270v-32h-270v32z" />
    <glyph glyph-name="uni207C" unicode="&#x207c;" horiz-adv-x="386" 
d="M58 608h270v-35h-270v35zM58 489h270v-34h-270v34z" />
    <glyph glyph-name="uni207D" unicode="&#x207d;" horiz-adv-x="209" 
d="M217 794c-35.333 -36.667 -61.5 -75.832 -78.5 -117.499s-25.5 -90.167 -25.5 -145.5s8.33301 -103.666 25 -144.999s43 -80.333 79 -117l-25 -23c-39.333 36 -69.5 78.167 -90.5 126.5s-31.5 101.166 -31.5 158.499s10.5 110.166 31.5 158.499s51.167 90.5 90.5 126.5z
" />
    <glyph glyph-name="uni207E" unicode="&#x207e;" horiz-adv-x="209" 
d="M107.5 689.5c21 -48.333 31.5 -101.171 31.5 -158.504s-10.5 -110.166 -31.5 -158.499s-50.833 -90.5 -89.5 -126.5l-25 23c35.333 36.667 61.333 75.834 78 117.501s25 89.834 25 144.501c0 55.333 -8.33301 103.833 -25 145.5s-42.667 80.834 -78 117.501l25 22
c38.667 -36 68.5 -78.167 89.5 -126.5z" />
    <glyph glyph-name="uni2080" unicode="&#x2080;" horiz-adv-x="378" 
d="M75 -143c-26 34.667 -39 85.334 -39 152.001s13 117.334 39 152.001s64 52 114 52s88 -17.333 114 -52s39 -85.334 39 -152.001s-13 -117.334 -39 -152.001s-64 -52 -114 -52s-88 17.333 -114 52zM270.5 -115.5c18.333 28.333 27.5 69.833 27.5 124.5
s-9.16699 96.167 -27.5 124.5s-45.5 42.5 -81.5 42.5c-35.333 0 -62.166 -14.167 -80.499 -42.5s-27.5 -69.833 -27.5 -124.5s9.16699 -96.167 27.5 -124.5s45.166 -42.5 80.499 -42.5c36 0 63.167 14.167 81.5 42.5z" />
    <glyph glyph-name="uni2081" unicode="&#x2081;" horiz-adv-x="220" 
d="M164 208l0.00195312 -397h-45v279c0 21.333 1 44 3 68c-14.667 -15.333 -31.834 -28.833 -51.501 -40.5s-39.834 -20.167 -60.501 -25.5v38c20 5.33301 41.667 15.5 65 30.5s40 30.833 50 47.5h39z" />
    <glyph glyph-name="uni2082" unicode="&#x2082;" horiz-adv-x="348" 
d="M38 -156l102.001 80.9971c42 33.333 72.5 62.5 91.5 87.5s28.5 50.167 28.5 75.5c0 26.667 -8.16699 48 -24.5 64s-38.5 24 -66.5 24c-30 0 -53.833 -9.16699 -71.5 -27.5s-27.167 -43.166 -28.5 -74.499l-40 13c2.66699 38.667 16.5 69.334 41.5 92.001
s58.167 34 99.5 34c42.667 0 76 -11.5 100 -34.5s36 -52.5 36 -88.5c0 -55.333 -44.667 -116.666 -134 -183.999l-75 -59v-1c13.333 1.33301 28.666 2 45.999 2h175v-37h-280v33z" />
    <glyph glyph-name="uni2083" unicode="&#x2083;" horiz-adv-x="336" 
d="M256.5 183.5c22.333 -19.667 33.501 -45.498 33.501 -77.498c0 -25.333 -7.33301 -46.5 -22 -63.5s-32.667 -27.5 -54 -31.5v-1c23.333 -1.33301 43.333 -10.5 60 -27.5s25 -38.833 25 -65.5c0 -33.333 -12.833 -60.333 -38.5 -81s-58.834 -31 -99.501 -31
c-37.333 0 -68 8 -92 24s-40.667 39.333 -50 70l42 19c10.667 -50.667 44.334 -76 101.001 -76c27.333 0 49.333 7.16699 66 21.5s25 33.833 25 58.5c0 22.667 -7.5 40.167 -22.5 52.5s-37.167 18.5 -66.5 18.5h-25v34h23c26 0 46 6.83301 60 20.5s21 31.5 21 53.5
c0 23.333 -7.16699 41.666 -21.5 54.999s-34.5 20 -60.5 20c-24 0 -43.667 -5.83301 -59 -17.5s-25.333 -27.834 -30 -48.501l-41 15c8 28 23.667 49.667 47 65s51.666 23 84.999 23c40 0 71.167 -9.83301 93.5 -29.5z" />
    <glyph glyph-name="uni2084" unicode="&#x2084;" horiz-adv-x="344" 
d="M325 -80h-76v-109h-39v109h-198v26l187 262h50v-255h76v-33zM210 -47v156.999c0 13.333 0.666992 33.333 2 60h-2l-12 -20l-9 -14c-3.33301 -5.33301 -7 -10.666 -11 -15.999l-122 -167h154z" />
    <glyph glyph-name="uni2085" unicode="&#x2085;" horiz-adv-x="345" 
d="M279.5 27c23.667 -23.333 35.5 -53.332 35.5 -89.999c0 -40.667 -13 -72.667 -39 -96s-60 -35 -102 -35c-74.667 0 -122.334 30.333 -143.001 91l40 21c10.667 -50 44.667 -75 102 -75c28.667 0 52 8.66699 70 26s27 39.666 27 66.999
c0 28.667 -8.16699 51.167 -24.5 67.5s-39.5 24.5 -69.5 24.5c-24 0 -43.667 -3.66699 -59 -11s-27.666 -18.333 -36.999 -33h-36l19 224h233v-37h-198l-11 -119c-2 -14.667 -3.66699 -24 -5 -28h1c10.667 12 24.167 21.333 40.5 28s37.5 10 63.5 10
c38 0 68.833 -11.667 92.5 -35z" />
    <glyph glyph-name="uni2086" unicode="&#x2086;" horiz-adv-x="358" 
d="M75.5 -142.5c-26.333 35 -39.502 85.498 -39.502 151.498s14.833 116.5 44.5 151.5s68.167 52.5 115.5 52.5c61.333 0 102 -26.333 122 -79l-37 -18c-6.66699 18.667 -17 33.334 -31 44.001s-32.333 16 -55 16c-38.667 0 -67.834 -16.333 -87.501 -49
s-29.5 -72.667 -29.5 -120c0 -14 0.333008 -24 1 -30h1c8.66699 25.333 22.834 44.833 42.501 58.5s43.5 20.5 71.5 20.5c40.667 0 72.834 -11.333 96.501 -34s35.5 -53 35.5 -91c0 -39.333 -12.167 -70.166 -36.5 -92.499s-57.833 -33.5 -100.5 -33.5
c-49.333 0 -87.166 17.5 -113.499 52.5zM257.998 -135.002c16.667 16 25.001 38 25.001 66c0 27.333 -8.33301 49 -25 65s-39.334 24 -68.001 24c-28 0 -51.167 -9 -69.5 -27s-27.5 -38.667 -27.5 -62c0 -26 9 -47.5 27 -64.5s41 -25.5 69 -25.5c29.333 0 52.333 8 69 24z
" />
    <glyph glyph-name="uni2087" unicode="&#x2087;" horiz-adv-x="304" 
d="M296 208v-36.999c-49.333 -52 -85.833 -107.333 -109.5 -166s-35.5 -123.334 -35.5 -194.001h-44c0 67.333 12 131.333 36 192s60 116.667 108 168h-247v37h292z" />
    <glyph glyph-name="uni2088" unicode="&#x2088;" horiz-adv-x="366" 
d="M278.5 184c23.667 -18.667 35.5 -43.6699 35.5 -75.0029c0 -22 -6.33301 -41 -19 -57s-30.334 -27.333 -53.001 -34v-1c27.333 -7.33301 49 -19.666 65 -36.999s24 -38.666 24 -63.999c0 -34 -13.5 -61 -40.5 -81s-62.833 -30 -107.5 -30s-80.5 10 -107.5 30
s-40.5 47 -40.5 81c0 24.667 8 45.834 24 63.501s37.667 30.167 65 37.5v1c-22.667 6.66699 -40.5 18 -53.5 34s-19.5 35 -19.5 57c0 31.333 11.833 56.333 35.5 75s55.834 28 96.501 28c40 0 71.833 -9.33301 95.5 -28zM119.5 158.497
c-15.667 -13 -23.5 -30.167 -23.5 -51.5s7.83301 -38.666 23.5 -51.999s36.834 -20 63.501 -20s47.834 6.66699 63.501 20s23.5 30.666 23.5 51.999s-7.83301 38.5 -23.5 51.5s-36.834 19.5 -63.501 19.5s-47.834 -6.5 -63.501 -19.5zM257.5 -138.003
c19 14.667 28.5 33.667 28.5 57c0 24 -9.5 43.333 -28.5 58s-43.833 22 -74.5 22s-55.5 -7.33301 -74.5 -22s-28.5 -34 -28.5 -58c0 -23.333 9.5 -42.333 28.5 -57s43.833 -22 74.5 -22s55.5 7.33301 74.5 22z" />
    <glyph glyph-name="uni2089" unicode="&#x2089;" horiz-adv-x="366" 
d="M289.5 159c27 -36 40.501 -86.335 40.501 -151.002c0 -65.333 -13.833 -115.5 -41.5 -150.5s-65.5 -52.5 -113.5 -52.5c-35.333 0 -64.833 7.33301 -88.5 22s-40.167 36 -49.5 64l42 18c10 -45.333 42.333 -68 97 -68c38.667 0 67.167 15.667 85.5 47s27.5 69 27.5 113
c0 11.333 -1.33301 26.333 -4 45h-1c-2.66699 -23.333 -15.334 -43.166 -38.001 -59.499s-47 -24.5 -73 -24.5c-42.667 0 -76.167 11.333 -100.5 34s-36.5 53 -36.5 91c0 38.667 12.667 69.334 38 92.001s59.333 34 102 34c48.667 0 86.5 -18 113.5 -54zM106.001 151.998
c-17.333 -16 -25.999 -37.667 -25.999 -65s8.66699 -49 26 -65s40.666 -24 69.999 -24c28 0 51.167 8.66699 69.5 26s27.5 38 27.5 62c0 26 -9 47.5 -27 64.5s-41 25.5 -69 25.5c-30 0 -53.667 -8 -71 -24z" />
    <glyph glyph-name="uni208A" unicode="&#x208a;" horiz-adv-x="336" 
d="M306 -7h-119v-122h-37v122h-119v32h119v122h37v-122h119v-32z" />
    <glyph glyph-name="uni208B" unicode="&#x208b;" horiz-adv-x="336" 
d="M33 25h270v-32h-270v32z" />
    <glyph glyph-name="uni208C" unicode="&#x208c;" horiz-adv-x="386" 
d="M58 86h270v-35h-270v35zM58 -33h270v-34h-270v34z" />
    <glyph glyph-name="uni208D" unicode="&#x208d;" horiz-adv-x="209" 
d="M217 272c-35.333 -36.667 -61.5 -75.832 -78.5 -117.499s-25.5 -90.167 -25.5 -145.5s8.33301 -103.666 25 -144.999s43 -80.333 79 -117l-25 -23c-39.333 36 -69.5 78.167 -90.5 126.5s-31.5 101.166 -31.5 158.499s10.5 110.166 31.5 158.499s51.167 90.5 90.5 126.5z
" />
    <glyph glyph-name="uni208E" unicode="&#x208e;" horiz-adv-x="209" 
d="M107.5 167.5c21 -48.333 31.5 -101.171 31.5 -158.504s-10.5 -110.166 -31.5 -158.499s-50.833 -90.5 -89.5 -126.5l-25 23c35.333 36.667 61.333 75.834 78 117.501s25 89.834 25 144.501c0 55.333 -8.33301 103.833 -25 145.5s-42.667 80.834 -78 117.501l25 22
c38.667 -36 68.5 -78.167 89.5 -126.5z" />
    <glyph glyph-name="Euro" unicode="&#x20ac;" horiz-adv-x="676" 
d="M630 169c-16 -56.667 -45.168 -100.665 -87.501 -131.998s-90.166 -47 -143.499 -47c-70 0 -127.5 21 -172.5 63s-74.5 101 -88.5 177h-89v42h84c-2 18 -3 37.333 -3 58c0 12 0.666992 28.667 2 50h-83v42h88c13.333 78.667 42.5 139.667 87.5 183s102.5 65 172.5 65
c54.667 0 101.334 -12.667 140.001 -38s66.334 -62 83.001 -110l-44 -23c-12.667 41.333 -34.334 72.833 -65.001 94.5s-67.334 32.5 -110.001 32.5c-55.333 0 -101.666 -17.833 -138.999 -53.5s-62 -85.834 -74 -150.501h264l-15 -42h-255c-1.33301 -21.333 -2 -38 -2 -50
c0 -20.667 1 -40 3 -58h229l-15 -42h-208c13.333 -62.667 38.166 -111 74.499 -145s81.833 -51 136.5 -51c42.667 0 81 13.167 115 39.5s57.333 64.166 70 113.499z" />
    <glyph glyph-name="uni20BA" unicode="&#x20ba;" horiz-adv-x="614" 
d="M572 263c-2 -86 -24.167 -151.333 -66.5 -196s-102.833 -67 -181.5 -67h-147v271l-123 -36v38l123 36v103l-123 -37v38l123 36v211h48v-197l218 64v-38l-218 -64v-103l218 64v-38l-218 -63v-242h91c67.333 0 118.833 18.667 154.5 56s53.5 92 53.5 164h48z" />
    <glyph glyph-name="uni20BD" unicode="&#x20bd;" horiz-adv-x="618" 
d="M186 275v-84.001h205v-40h-205v-151h-47v151h-98v40h98v84h-98v44h98v341h220c68 0 122.167 -17.167 162.5 -51.5s60.5 -81.5 60.5 -141.5c0 -59.333 -20.167 -106.166 -60.5 -140.499s-94.5 -51.5 -162.5 -51.5h-173zM186 318.999h166c58 0 102.167 12.667 132.5 38
s45.5 62 45.5 110c0 47.333 -15.167 83.833 -45.5 109.5s-74.5 38.5 -132.5 38.5h-166v-296z" />
    <glyph glyph-name="uni2113" unicode="&#x2113;" horiz-adv-x="364" 
d="M283 37c11.333 2.66699 24.333 6.66699 39 12l-4 -43c-19.333 -10.667 -45 -16 -77 -16c-42 0 -73 10 -93 30s-30 51.667 -30 95v116c-26 -16 -51 -28.333 -75 -37v44c28 10.667 53 23.334 75 38.001v272c0 81.333 32 122 96 122c32 0 55.833 -9.33301 71.5 -28
s23.5 -48.334 23.5 -89.001c0 -52.667 -12.833 -104.834 -38.5 -156.501s-61.5 -96.167 -107.5 -133.5v-143c0 -27.333 6.83301 -48.666 20.5 -63.999s34.167 -23 61.5 -23c14 0 26.667 1.33301 38 4zM163 312c32.667 32 57.999 69.168 75.999 111.501s27 86.166 27 131.499
c0 26 -4.16699 45 -12.5 57s-21.166 18 -38.499 18c-18 0 -31.167 -6.5 -39.5 -19.5s-12.5 -33.167 -12.5 -60.5v-238z" />
    <glyph glyph-name="trademark" unicode="&#x2122;" horiz-adv-x="799" 
d="M314 625h-112v-295h-45v295h-114v35h271v-35zM713 660v-330h-44v210l5 62h-1l-8 -25l-103 -247h-34l-103 247l-9 25h-1l5 -62v-210h-44v330h55l98 -238l16 -41h1l14 41l100 238h53z" />
    <glyph glyph-name="uni2126" unicode="&#x2126;" horiz-adv-x="751" 
d="M685 43v-43h-247v43c59.333 18.667 106 52.834 140 102.501s51 112.834 51 189.501c0 58.667 -10.5 109.834 -31.5 153.501s-50.5 77.167 -88.5 100.5s-82.333 35 -133 35c-51.333 0 -96 -11.667 -134 -35s-67.5 -56.833 -88.5 -100.5s-31.5 -94.834 -31.5 -153.501
c0 -76.667 17 -139.834 51 -189.501s80.667 -83.834 140 -102.501v-43h-247v43h170c-52 27.333 -92.333 65.833 -121 115.5s-43 108.5 -43 176.5c0 67.333 12.333 126.333 37 177s60 89.667 106 117s99.667 41 161 41s114.833 -13.667 160.5 -41
s80.834 -66.333 105.501 -117s37 -109.667 37 -177c0 -68 -14.333 -126.833 -43 -176.5s-69.334 -88.167 -122.001 -115.5h171z" />
    <glyph glyph-name="estimated" unicode="&#x212e;" horiz-adv-x="794" 
d="M652 576c60 -62.667 89.667 -151.668 89 -267.001h-560v-186c28 -30 62.333 -52.833 103 -68.5s87 -23.5 139 -23.5c59.333 0 113.5 13.333 162.5 40s90.167 66 123.5 118v-58c-29.333 -47.333 -68.5 -82.666 -117.5 -105.999s-105.5 -35 -169.5 -35
c-74.667 0 -139 14 -193 42s-95.333 67.5 -124 118.5s-43 110.833 -43 179.5c0 68 14 127.667 42 179s67.667 91 119 119s111 42 179 42c106.667 0 190 -31.333 250 -94zM276.5 606.499c-37.667 -15 -69.5 -36.833 -95.5 -65.5v-189h442v183c-26 30 -57.667 53.167 -95 69.5
s-79.333 24.5 -126 24.5c-46 0 -87.833 -7.5 -125.5 -22.5z" />
    <glyph glyph-name="arrowleft" unicode="&#x2190;" horiz-adv-x="750" 
d="M257 306c-48.667 0 -96.335 1.66797 -143.002 5.00098c42 -26.667 85.333 -63 130 -109s88.667 -99.667 132 -161l-41 -33c-46 70 -92.667 129.5 -140 178.5s-102.666 96.5 -165.999 142.5v4c62.667 45.333 117.834 92.666 165.501 141.999s94.5 109 140.5 179l41 -33
c-44 -62 -88.333 -116 -133 -162s-88 -82 -130 -108c46.667 3.33301 94.667 5 144 5h439v-50h-439z" />
    <glyph glyph-name="arrowup" unicode="&#x2191;" horiz-adv-x="750" 
d="M518.5 502c49 -47.333 108.501 -94 178.501 -140l-33 -41c-61.333 42.667 -115 86.5 -161 131.5s-82.333 88.5 -109 130.5c3.33301 -46.667 5 -94.667 5 -144v-439h-50v439c0 49.333 1.66699 97.333 5 144c-26.667 -42 -63 -85.5 -109 -130.5
s-99.667 -88.833 -161 -131.5l-33 41c70 46 129.667 92.667 179 140s96.666 102.333 141.999 165h4c46 -62.667 93.5 -117.667 142.5 -165z" />
    <glyph glyph-name="arrowright" unicode="&#x2192;" horiz-adv-x="750" 
d="M555.5 475c47.667 -49.333 102.833 -96.667 165.5 -142v-4c-63.333 -46 -118.666 -93.5 -165.999 -142.5s-94 -108.5 -140 -178.5l-41 33c43.333 61.333 87.333 115 132 161s88 82.333 130 109c-46.667 -3.33301 -94.334 -5 -143.001 -5h-439v50h439
c49.333 0 97.333 -1.66699 144 -5c-42 26 -85.333 62 -130 108s-89 100 -133 162l41 33c46 -70 92.833 -129.667 140.5 -179z" />
    <glyph glyph-name="arrowdown" unicode="&#x2193;" horiz-adv-x="750" 
d="M699 298c-70 -46 -129.667 -92.666 -179 -139.999s-96.666 -102.333 -141.999 -165h-4c-46 62.667 -93.5 117.667 -142.5 165s-108.5 94 -178.5 140l33 41c61.333 -42.667 115 -86.334 161 -131.001s82.333 -88 109 -130c-3.33301 45.333 -5 93 -5 143v439h50v-439
c0 -50.667 -1.66699 -98.667 -5 -144c26 42 62.167 85.333 108.5 130s100.166 88.667 161.499 132z" />
    <glyph glyph-name="arrowboth" unicode="&#x2194;" horiz-adv-x="1005" 
d="M811.5 492.5c47 -49 101.833 -96.167 164.5 -141.5v-4c-62.667 -46 -117.667 -93.5 -165 -142.5s-94 -108.5 -140 -178.5l-45 27c90.667 129.333 178.667 221 264 275c-48 -2.66699 -88 -4 -120 -4h-535c-32 0 -72 1.33301 -120 4c85.333 -54 173.333 -145.667 264 -275
l-45 -27c-46 70 -92.667 129.5 -140 178.5s-102.333 96.5 -165 142.5v4c62.667 45.333 117.5 92.5 164.5 141.5s93.833 108.833 140.5 179.5l45 -27c-44.667 -63.333 -89.5 -118.333 -134.5 -165s-88.5 -83.334 -130.5 -110.001c48 2.66699 88.333 4 121 4h535
c32.667 0 73 -1.33301 121 -4c-42 26.667 -85.5 63.334 -130.5 110.001s-89.833 101.667 -134.5 165l45 27c46.667 -70.667 93.5 -130.5 140.5 -179.5z" />
    <glyph glyph-name="arrowupdn" unicode="&#x2195;" horiz-adv-x="750" 
d="M505 72c46.667 45.333 101.667 90.333 165 135l27 -45c-70 -46 -129.5 -92.667 -178.5 -140s-96.5 -102.666 -142.5 -165.999h-4c-46 63.333 -93.5 118.666 -142.5 165.999s-108.5 94 -178.5 140l27 45c63.333 -44.667 118.333 -89.667 165 -135
s83.334 -88.666 110.001 -129.999c-2.66699 48 -4 88.333 -4 121v534c0 32.667 1.33301 73 4 121c-26.667 -42 -63.334 -85.5 -110.001 -130.5s-101.667 -89.5 -165 -133.5l-27 44c70 46 129.5 92.667 178.5 140s96.5 102.666 142.5 165.999h4
c46 -63.333 93.5 -118.666 142.5 -165.999s108.5 -94 178.5 -140l-27 -44c-63.333 44 -118.333 88.5 -165 133.5s-83.334 88.5 -110.001 130.5c2.66699 -48 4 -88.333 4 -121v-534c0 -32.667 -1.33301 -73 -4 -121c26.667 41.333 63.334 84.666 110.001 129.999z" />
    <glyph glyph-name="uni2196" unicode="&#x2196;" horiz-adv-x="750" 
d="M613 126l-34.998 -36l-291 291c-32.667 32.667 -68.334 70.667 -107.001 114c14 -64.667 21 -141.667 21 -231c0 -50 -2.66699 -102.667 -8 -158l-51 4c8 66 12 129.667 12 191c0 86 -7.33301 175 -22 267l4 4c90.667 -14.667 179.667 -22 267 -22c60.667 0 124 4 190 12
l5 -51c-55.333 -5.33301 -108.333 -8 -159 -8c-86.667 0 -163.334 6.66699 -230.001 20c35.333 -30 73.333 -65.333 114 -106z" />
    <glyph glyph-name="uni2197" unicode="&#x2197;" horiz-adv-x="750" 
d="M596 301c0 -61.333 4 -125.001 12 -191.001l-51 -4c-5.33301 53.333 -8 105 -8 155c0 90.667 7 169 21 235c-44 -49.333 -79.667 -87.666 -107 -114.999l-291 -291l-35 36l291 291c30.667 31.333 68.667 67 114 107c-65.333 -14 -142.333 -21 -231 -21
c-50.667 0 -103.667 2.66699 -159 8l5 51c66 -8 129.333 -12 190 -12c87.333 0 176.333 7.33301 267 22l4 -4c-14.667 -92 -22 -181 -22 -267z" />
    <glyph glyph-name="uni2198" unicode="&#x2198;" horiz-adv-x="750" 
d="M583 378c0 -82.667 7.66699 -172.665 23 -269.998l-4 -4c-90.667 14.667 -179.667 22 -267 22c-61.333 0 -125 -4 -191 -12l-4 51c55.333 5.33301 108 8 158 8c88.667 0 165.667 -7 231 -21c-50 45.333 -88 81 -114 107l-291 291l36 36l291 -291
c32 -32 67.667 -70.667 107 -116c-14 65.333 -21 142.666 -21 231.999c0 50.667 2.66699 103.667 8 159l50 -4c-8 -64.667 -12 -127.334 -12 -188.001z" />
    <glyph glyph-name="uni2199" unicode="&#x2199;" horiz-adv-x="750" 
d="M452 173c50 0 102.667 -2.66895 158 -8.00195l-4 -51c-66 8 -129.667 12 -191 12c-87.333 0 -176.333 -7.33301 -267 -22l-4 4c15.333 97.333 23 187.333 23 270c0 60.667 -4 123.334 -12 188.001l50 4c5.33301 -55.333 8 -108.333 8 -159
c0 -89.333 -7 -166.666 -21 -231.999c39.333 45.333 75 84 107 116l291 291l36 -36l-291 -291c-26 -26 -64 -61.667 -114 -107c64.667 14 141.667 21 231 21z" />
    <glyph glyph-name="partialdiff" unicode="&#x2202;" horiz-adv-x="589" 
d="M458 584.5c41.333 -57 62.001 -141.834 62.001 -254.501c0 -110 -21.167 -194.167 -63.5 -252.5s-103.166 -87.5 -182.499 -87.5c-43.333 0 -81.833 9.33301 -115.5 28s-59.667 44.5 -78 77.5s-27.5 70.833 -27.5 113.5s9.33301 80.5 28 113.5s44.5 58.667 77.5 77
s70.167 27.5 111.5 27.5c45.333 0 85.666 -9.83301 120.999 -29.5s62.666 -47.167 81.999 -82.5l1 15c0 102.667 -17.333 177.834 -52 225.501s-87.667 71.5 -159 71.5c-30.667 0 -57 -5 -79 -15s-42 -26 -60 -48l-28 36c45.333 46.667 101.333 70 168 70
c88 0 152.667 -28.5 194 -85.5zM405.001 88.499c32.667 35.667 53.6641 88.167 62.9971 157.5c-13.333 43.333 -37.166 76.833 -71.499 100.5s-76.833 35.5 -127.5 35.5s-91 -15.667 -121 -47s-45 -73 -45 -125c0 -52.667 15.333 -95 46 -127s72.334 -48 125.001 -48
c54.667 0 98.334 17.833 131.001 53.5z" />
    <glyph glyph-name="uni2206" unicode="&#x2206;" horiz-adv-x="655" 
d="M621 42v-42h-587v42l263 618h62zM82 42h491l-246 580z" />
    <glyph glyph-name="product" unicode="&#x220f;" horiz-adv-x="664" 
d="M579 -128h-50v742h-394v-742h-50v788h494v-788z" />
    <glyph glyph-name="summation" unicode="&#x2211;" horiz-adv-x="606" 
d="M552 614h-442l334 -338v-8l-336 -350h444v-46h-507v46l337 354l-337 342v46h507v-46z" />
    <glyph glyph-name="minus" unicode="&#x2212;" 
d="M537 293h-470v46h470v-46z" />
    <glyph glyph-name="uni2215" unicode="&#x2215;" horiz-adv-x="226" 
d="M323 660h51l-471 -660h-51z" />
    <glyph glyph-name="uni2219" unicode="&#x2219;" horiz-adv-x="210" 
d="M137.5 377.5c8.33301 -8.33301 12.5 -19.166 12.5 -32.499s-4.16699 -24.166 -12.5 -32.499s-19.166 -12.5 -32.499 -12.5s-24.166 4.16699 -32.499 12.5s-12.5 19.166 -12.5 32.499s4.16699 24.166 12.5 32.499s19.166 12.5 32.499 12.5s24.166 -4.16699 32.499 -12.5z
" />
    <glyph glyph-name="radical" unicode="&#x221a;" horiz-adv-x="637" 
d="M634 818l-321 -818h-51l-139 346h-103v46h133l115 -285l20 -61l20 62l276 710h50z" />
    <glyph glyph-name="infinity" unicode="&#x221e;" horiz-adv-x="877" 
d="M733.5 474.5c23.667 -15.667 42.499 -38.332 56.499 -67.999s21 -64.834 21 -105.501s-7 -75.667 -21 -105s-32.833 -51.833 -56.5 -67.5s-49.834 -23.5 -78.501 -23.5c-26 0 -48.333 4.16699 -67 12.5s-38.834 23.166 -60.501 44.499s-52.5 55.666 -92.5 102.999
c-42.667 -52 -74.5 -88.5 -95.5 -109.5s-39.333 -34.667 -55 -41s-36.5 -9.5 -62.5 -9.5c-28.667 0 -54.834 7.83301 -78.501 23.5s-42.5 38.167 -56.5 67.5s-21 64.333 -21 105s7 75.834 21 105.501s32.833 52.334 56.5 68.001s49.834 23.5 78.501 23.5
c26 0 48.5 -4.16699 67.5 -12.5s39.333 -23.333 61 -45s51.834 -55.834 90.501 -102.501c42 50.667 74.167 86.834 96.5 108.501s41.333 35.667 57 42s35.834 9.5 60.501 9.5c28.667 0 54.834 -7.83301 78.501 -23.5zM708.999 173.002
c16 12.667 28.835 30.501 38.502 53.501s14.5 49.5 14.5 79.5c0 30.667 -5 57.667 -15 81s-23.167 41.166 -39.5 53.499s-33.833 18.5 -52.5 18.5s-34.834 -3.33301 -48.501 -10s-30.334 -20.5 -50.001 -41.5s-49.167 -55.167 -88.5 -102.5
c36.667 -44.667 65.167 -77.167 85.5 -97.5s38 -34.333 53 -42s31.833 -11.5 50.5 -11.5s36 6.33301 52 19zM269.501 152.003c12.333 6 27.668 18.8301 46.001 38.4971s48.833 55.5 91.5 107.5c-38.667 46.667 -67.5 79.834 -86.5 99.501s-35.5 33.167 -49.5 40.5
s-30.333 11 -49 11s-36.167 -6.16699 -52.5 -18.5s-29.5 -30.166 -39.5 -53.499s-15 -50.333 -15 -81s5 -57.667 15 -81s23.167 -41.166 39.5 -53.499s33.833 -18.5 52.5 -18.5c19.333 0 35.166 3 47.499 9z" />
    <glyph glyph-name="integral" unicode="&#x222b;" horiz-adv-x="425" 
d="M373 753c11.333 -3.33301 22.667 -8.66699 34 -16l-9 -44c-18.667 13.333 -40.667 20 -66 20c-28.667 0 -51.334 -8.33301 -68.001 -25s-25 -42 -25 -76v-598c0 -44.667 -12.167 -79.5 -36.5 -104.5s-58.166 -37.5 -101.499 -37.5c-18.667 0 -34 1.83301 -46 5.5
s-24 9.16699 -36 16.5l9 44c20.667 -14 43 -21 67 -21c29.333 0 52.333 8.33301 69 25s25 42 25 76v598c0 44.667 12.333 79.5 37 104.5s58.667 37.5 102 37.5c18.667 0 33.667 -1.66699 45 -5z" />
    <glyph glyph-name="approxequal" unicode="&#x2248;" 
d="M246.5 463c17 -6 37.833 -14.999 62.5 -26.999c22.667 -10.667 41.834 -18.834 57.501 -24.501s31.5 -8.5 47.5 -8.5c20 0 39.167 4 57.5 12s37.833 22.333 58.5 43v-48c-35.333 -34.667 -74.333 -52 -117 -52c-16.667 0 -33.5 3 -50.5 9s-36.833 14.667 -59.5 26
c-24 11.333 -44.167 19.833 -60.5 25.5s-32.833 8.5 -49.5 8.5c-24.667 0 -45.834 -4.33301 -63.501 -13s-36.167 -22.667 -55.5 -42v47c20.667 19.333 39.667 33 57 41s38 12 62 12c18.667 0 36.5 -3 53.5 -9zM245.5 269.501
c16.333 -5.66699 37.501 -14.499 63.501 -26.499c22.667 -10.667 41.834 -18.834 57.501 -24.501s31.5 -8.5 47.5 -8.5c20 0 39.333 4 58 12s38 22.333 58 43v-48c-35.333 -34.667 -74.333 -52 -117 -52c-16.667 0 -33.334 2.83301 -50.001 8.5s-36.667 14.167 -60 25.5
c-24 11.333 -44.167 19.833 -60.5 25.5s-32.833 8.5 -49.5 8.5c-24.667 0 -45.834 -4.33301 -63.501 -13s-36.167 -22.667 -55.5 -42v48c20.667 18.667 39.667 32 57 40s38 12 62 12c18.667 0 36.167 -2.83301 52.5 -8.5z" />
    <glyph glyph-name="notequal" unicode="&#x2260;" 
d="M368 388l-79 -160h240v-44h-261l-57 -115h-50l56 115h-142v44h164l79 160h-243v44h264l55 113h50l-55 -113h140v-44h-161z" />
    <glyph glyph-name="lessequal" unicode="&#x2264;" 
d="M538 573l-428 -197l428 -202v-54l-464 225v62l464 220v-54zM74 46h464v-46h-464v46z" />
    <glyph glyph-name="greaterequal" unicode="&#x2265;" 
d="M530 407v-62l-464 -225v54l428 202l-428 197v54zM66 46h464v-46h-464v46z" />
    <glyph glyph-name="uni25AA" unicode="&#x25aa;" horiz-adv-x="600" 
d="M529 479v-458h-458v458h458z" />
    <glyph glyph-name="uni25AB" unicode="&#x25ab;" horiz-adv-x="600" 
d="M71 479h458v-458h-458v458zM479 65v370h-358v-370h358z" />
    <glyph glyph-name="uni25C6" unicode="&#x25c6;" horiz-adv-x="600" 
d="M39 255l261 262l261 -262l-261 -261z" />
    <glyph glyph-name="uni25C7" unicode="&#x25c7;" horiz-adv-x="600" 
d="M39 255l261 262l261 -262l-261 -261zM488 255l-188 188l-188 -188l188 -188z" />
    <glyph glyph-name="lozenge" unicode="&#x25ca;" horiz-adv-x="534" 
d="M490 330l-193 -330h-61l-191 330l191 330h61zM434 330l-167 294l-165 -294l165 -294z" />
    <glyph glyph-name="circle" unicode="&#x25cb;" horiz-adv-x="600" 
d="M179 42.5c-36 21 -64.5 49.667 -85.5 86s-31.5 76.833 -31.5 121.5s10.5 85.167 31.5 121.5s49.5 65 85.5 86s76.333 31.5 121 31.5s85 -10.5 121 -31.5s64.5 -49.667 85.5 -86s31.5 -76.833 31.5 -121.5s-10.5 -85.167 -31.5 -121.5s-49.5 -65 -85.5 -86
s-76.333 -31.5 -121 -31.5s-85 10.5 -121 31.5zM396 83c28.667 16.667 51.167 39.667 67.5 69s24.5 62 24.5 98s-8.16699 68.667 -24.5 98s-38.833 52.5 -67.5 69.5s-60.667 25.5 -96 25.5s-67.333 -8.5 -96 -25.5s-51.167 -40.167 -67.5 -69.5s-24.5 -62 -24.5 -98
s8.16699 -68.667 24.5 -98s38.833 -52.333 67.5 -69s60.667 -25 96 -25s67.333 8.33301 96 25z" />
    <glyph glyph-name="uni25CF" unicode="&#x25cf;" horiz-adv-x="600" 
d="M178.5 42.5c-36.333 21 -65 49.667 -86 86s-31.5 76.833 -31.5 121.5s10.5 85.167 31.5 121.5s49.667 65 86 86s76.833 31.5 121.5 31.5s85.167 -10.5 121.5 -31.5s65 -49.667 86 -86s31.5 -76.833 31.5 -121.5s-10.5 -85.167 -31.5 -121.5s-49.667 -65 -86 -86
s-76.833 -31.5 -121.5 -31.5s-85.167 10.5 -121.5 31.5z" />
    <glyph glyph-name="uni275B" unicode="&#x275b;" horiz-adv-x="703" 
d="M607 619c-28 1.33301 -48.001 2 -60.001 2c-90 0 -163.333 -11.167 -220 -33.5s-99.834 -50.5 -129.501 -84.5s-53.834 -73.667 -72.501 -119l8 -5c28 32 60.833 55.333 98.5 70s83.834 22 138.501 22c84.667 0 152.334 -20.667 203.001 -62s76 -100 76 -176
c0 -78 -24.667 -138 -74 -180s-119.666 -63 -210.999 -63c-105.333 0 -182.5 25.5 -231.5 76.5s-73.5 120.833 -73.5 209.5c0 114 35.833 207.167 107.5 279.5s192.167 108.5 361.5 108.5c20.667 0 36.667 -0.333008 48 -1z" />
    <glyph glyph-name="uni275C" unicode="&#x275c;" horiz-adv-x="703" 
d="M96 -89c28 -1.33301 47.998 -2.00098 59.998 -2.00098c90 0 163.333 11.167 220 33.5s99.834 50.5 129.501 84.5s53.834 73.667 72.501 119l-7 5c-28 -32 -61 -55.333 -99 -70s-84.333 -22 -139 -22c-84.667 0 -152.167 20.667 -202.5 62s-75.5 100 -75.5 176
c0 78.667 24.5 138.834 73.5 180.501s119.167 62.5 210.5 62.5c106 0 183.333 -25.5 232 -76.5s73 -120.833 73 -209.5c0 -114 -35.833 -207.167 -107.5 -279.5s-192.167 -108.5 -361.5 -108.5c-20.667 0 -36.667 0.333008 -48 1z" />
    <glyph glyph-name="uni275D" unicode="&#x275d;" horiz-adv-x="1238" 
d="M1108 409c50.667 -41.333 76.001 -100.001 76.001 -176.001c0 -78 -24.667 -138 -74 -180s-119.666 -63 -210.999 -63c-136 0 -226.667 44 -272 132c-19.333 -43.333 -51.333 -76.166 -96 -98.499s-100.334 -33.5 -167.001 -33.5c-105.333 0 -182.5 25.5 -231.5 76.5
s-73.5 120.833 -73.5 209.5c0 114 35.833 207.167 107.5 279.5s192.167 108.5 361.5 108.5c20.667 0 36.667 -0.333008 48 -1l31 -44c-28 1.33301 -48 2 -60 2c-90 0 -163.333 -11.167 -220 -33.5s-99.834 -50.5 -129.501 -84.5s-53.834 -73.667 -72.501 -119l8 -5
c28 32 60.833 55.333 98.5 70s83.834 22 138.501 22c52 0 98 -8 138 -24s72 -39.333 96 -70c17.333 87.333 62.5 157 135.5 209s180.833 78 323.5 78c21.333 0 37.333 -0.333008 48 -1l31 -44c-28 1.33301 -48 2 -60 2c-90 0 -163.333 -11.167 -220 -33.5
s-99.834 -50.5 -129.501 -84.5s-53.834 -73.667 -72.501 -119l8 -5c28 32 60.833 55.333 98.5 70s83.834 22 138.501 22c84.667 0 152.334 -20.667 203.001 -62z" />
    <glyph glyph-name="uni275E" unicode="&#x275e;" horiz-adv-x="1238" 
d="M1106 463.5c48.667 -51 72.999 -120.834 72.999 -209.501c0 -114 -35.833 -207.167 -107.5 -279.5s-192.167 -108.5 -361.5 -108.5c-20.667 0 -36.667 0.333008 -48 1l-31 44c28 -1.33301 48 -2 60 -2c90 0 163.333 11.167 220 33.5s99.834 50.5 129.501 84.5
s53.834 73.667 72.501 119l-7 5c-28 -32 -61 -55.333 -99 -70s-84.333 -22 -139 -22c-52 0 -98 8 -138 24s-72 39.667 -96 71c-17.333 -87.333 -62.5 -157.166 -135.5 -209.499s-180.833 -78.5 -323.5 -78.5c-21.333 0 -37.333 0.333008 -48 1l-31 44
c28 -1.33301 48 -2 60 -2c90 0 163.333 11.167 220 33.5s99.834 50.5 129.501 84.5s53.834 73.667 72.501 119l-8 5c-28 -32 -60.833 -55.333 -98.5 -70s-83.834 -22 -138.501 -22c-84.667 0 -152.334 20.667 -203.001 62s-76 100 -76 176c0 78 24.667 138 74 180
s119.666 63 210.999 63c136 0 226.667 -44.333 272 -133c19.333 43.333 51.5 76.333 96.5 99s100.833 34 167.5 34c105.333 0 182.333 -25.5 231 -76.5z" />
    <glyph glyph-name="uni2761" unicode="&#x2761;" horiz-adv-x="591" 
d="M505 28c0 -162 -84.332 -243.001 -252.999 -243.001c-50 0 -90.167 12 -120.5 36s-45.5 55.667 -45.5 95c0 14 2 28.667 6 44l37 8c-4 -14 -6 -27.333 -6 -40c0 -31.333 10 -56.666 30 -75.999s45.333 -29 76 -29c69.333 0 104 42.667 104 128v270h-53
c-48.667 0 -91.334 9.16699 -128.001 27.5s-65.167 44 -85.5 77s-30.5 71.167 -30.5 114.5c0 44 10.5 82.5 31.5 115.5s50.667 58.667 89 77s82.5 27.5 132.5 27.5h216v-632zM333.001 262.999v355h-53c-60.667 0 -108.5 -16.167 -143.5 -48.5s-52.5 -75.5 -52.5 -129.5
s17.5 -97 52.5 -129s82.833 -48 143.5 -48h53zM374.001 617.999v-680.999c0 -24 -4.83301 -46.667 -14.5 -68s-23.167 -36 -40.5 -44l2 -3c92.667 25.333 139 91.666 139 198.999v597h-86z" />
    <glyph glyph-name="uni2780" unicode="&#x2780;" horiz-adv-x="910" 
d="M263 7c-56 31.333 -99.5 75 -130.5 131s-46.5 120 -46.5 192s15.5 136 46.5 192s74.5 99.667 130.5 131s120 47 192 47s136 -15.667 192 -47s99.5 -75 130.5 -131s46.5 -120 46.5 -192s-15.5 -136 -46.5 -192s-74.5 -99.667 -130.5 -131s-120 -47 -192 -47
s-136 15.667 -192 47zM624.5 40.5c49.667 28.333 88.334 67.666 116.001 117.999s41.5 107.5 41.5 171.5s-13.833 121.167 -41.5 171.5s-66.334 89.666 -116.001 117.999s-106.167 42.5 -169.5 42.5s-119.833 -14.167 -169.5 -42.5s-88.334 -67.666 -116.001 -117.999
s-41.5 -107.5 -41.5 -171.5s13.833 -121.167 41.5 -171.5s66.334 -89.666 116.001 -117.999s106.167 -42.5 169.5 -42.5s119.833 14.167 169.5 42.5zM495 533l0.00195312 -397h-45v279c0 21.333 1 44 3 68c-14.667 -15.333 -31.834 -28.833 -51.501 -40.5
s-39.834 -20.167 -60.501 -25.5v38c20 5.33301 41.667 15.5 65 30.5s40 30.833 50 47.5h39z" />
    <glyph glyph-name="uni2781" unicode="&#x2781;" horiz-adv-x="910" 
d="M263 7c-56 31.333 -99.5 75 -130.5 131s-46.5 120 -46.5 192s15.5 136 46.5 192s74.5 99.667 130.5 131s120 47 192 47s136 -15.667 192 -47s99.5 -75 130.5 -131s46.5 -120 46.5 -192s-15.5 -136 -46.5 -192s-74.5 -99.667 -130.5 -131s-120 -47 -192 -47
s-136 15.667 -192 47zM624.5 40.5c49.667 28.333 88.334 67.666 116.001 117.999s41.5 107.5 41.5 171.5s-13.833 121.167 -41.5 171.5s-66.334 89.666 -116.001 117.999s-106.167 42.5 -169.5 42.5s-119.833 -14.167 -169.5 -42.5s-88.334 -67.666 -116.001 -117.999
s-41.5 -107.5 -41.5 -171.5s13.833 -121.167 41.5 -171.5s66.334 -89.666 116.001 -117.999s106.167 -42.5 169.5 -42.5s119.833 14.167 169.5 42.5zM320 179l102.001 80.9971c42 33.333 72.5 62.5 91.5 87.5s28.5 50.167 28.5 75.5c0 26.667 -8.16699 48 -24.5 64
s-38.5 24 -66.5 24c-30 0 -53.833 -9.16699 -71.5 -27.5s-27.167 -43.166 -28.5 -74.499l-40 13c2.66699 38.667 16.5 69.334 41.5 92.001s58.167 34 99.5 34c42.667 0 76 -11.5 100 -34.5s36 -52.5 36 -88.5c0 -55.333 -44.667 -116.666 -134 -183.999l-75 -59v-1
c13.333 1.33301 28.666 2 45.999 2h175v-37h-280v33z" />
    <glyph glyph-name="uni2782" unicode="&#x2782;" horiz-adv-x="910" 
d="M263 7c-56 31.333 -99.5 75 -130.5 131s-46.5 120 -46.5 192s15.5 136 46.5 192s74.5 99.667 130.5 131s120 47 192 47s136 -15.667 192 -47s99.5 -75 130.5 -131s46.5 -120 46.5 -192s-15.5 -136 -46.5 -192s-74.5 -99.667 -130.5 -131s-120 -47 -192 -47
s-136 15.667 -192 47zM624.5 40.5c49.667 28.333 88.334 67.666 116.001 117.999s41.5 107.5 41.5 171.5s-13.833 121.167 -41.5 171.5s-66.334 89.666 -116.001 117.999s-106.167 42.5 -169.5 42.5s-119.833 -14.167 -169.5 -42.5s-88.334 -67.666 -116.001 -117.999
s-41.5 -107.5 -41.5 -171.5s13.833 -121.167 41.5 -171.5s66.334 -89.666 116.001 -117.999s106.167 -42.5 169.5 -42.5s119.833 14.167 169.5 42.5zM552.5 505.5c22.333 -19.667 33.501 -45.498 33.501 -77.498c0 -25.333 -7.33301 -46.5 -22 -63.5
s-32.667 -27.5 -54 -31.5v-1c23.333 -1.33301 43.333 -10.5 60 -27.5s25 -38.833 25 -65.5c0 -33.333 -12.833 -60.333 -38.5 -81s-58.834 -31 -99.501 -31c-37.333 0 -68 8 -92 24s-40.667 39.333 -50 70l42 19c10.667 -50.667 44.334 -76 101.001 -76
c27.333 0 49.333 7.16699 66 21.5s25 33.833 25 58.5c0 22.667 -7.5 40.167 -22.5 52.5s-37.167 18.5 -66.5 18.5h-25v34h23c26 0 46 6.83301 60 20.5s21 31.5 21 53.5c0 23.333 -7.16699 41.666 -21.5 54.999s-34.5 20 -60.5 20c-24 0 -43.667 -5.83301 -59 -17.5
s-25.333 -27.834 -30 -48.501l-41 15c8 28 23.667 49.667 47 65s51.666 23 84.999 23c40 0 71.167 -9.83301 93.5 -29.5z" />
    <glyph glyph-name="uni2783" unicode="&#x2783;" horiz-adv-x="910" 
d="M263 7c-56 31.333 -99.5 75 -130.5 131s-46.5 120 -46.5 192s15.5 136 46.5 192s74.5 99.667 130.5 131s120 47 192 47s136 -15.667 192 -47s99.5 -75 130.5 -131s46.5 -120 46.5 -192s-15.5 -136 -46.5 -192s-74.5 -99.667 -130.5 -131s-120 -47 -192 -47
s-136 15.667 -192 47zM624.5 40.5c49.667 28.333 88.334 67.666 116.001 117.999s41.5 107.5 41.5 171.5s-13.833 121.167 -41.5 171.5s-66.334 89.666 -116.001 117.999s-106.167 42.5 -169.5 42.5s-119.833 -14.167 -169.5 -42.5s-88.334 -67.666 -116.001 -117.999
s-41.5 -107.5 -41.5 -171.5s13.833 -121.167 41.5 -171.5s66.334 -89.666 116.001 -117.999s106.167 -42.5 169.5 -42.5s119.833 14.167 169.5 42.5zM589 245h-76v-109h-39v109h-198v26l187 262h50v-255h76v-33zM474 278v156.999c0 13.333 0.666992 33.333 2 60h-2l-12 -20
l-9 -14c-3.33301 -5.33301 -7 -10.666 -11 -15.999l-122 -167h154z" />
    <glyph glyph-name="uni2784" unicode="&#x2784;" horiz-adv-x="910" 
d="M263 7c-56 31.333 -99.5 75 -130.5 131s-46.5 120 -46.5 192s15.5 136 46.5 192s74.5 99.667 130.5 131s120 47 192 47s136 -15.667 192 -47s99.5 -75 130.5 -131s46.5 -120 46.5 -192s-15.5 -136 -46.5 -192s-74.5 -99.667 -130.5 -131s-120 -47 -192 -47
s-136 15.667 -192 47zM624.5 40.5c49.667 28.333 88.334 67.666 116.001 117.999s41.5 107.5 41.5 171.5s-13.833 121.167 -41.5 171.5s-66.334 89.666 -116.001 117.999s-106.167 42.5 -169.5 42.5s-119.833 -14.167 -169.5 -42.5s-88.334 -67.666 -116.001 -117.999
s-41.5 -107.5 -41.5 -171.5s13.833 -121.167 41.5 -171.5s66.334 -89.666 116.001 -117.999s106.167 -42.5 169.5 -42.5s119.833 14.167 169.5 42.5zM560.5 344c23.667 -23.333 35.5 -53.332 35.5 -89.999c0 -40.667 -13 -72.667 -39 -96s-60 -35 -102 -35
c-74.667 0 -122.334 30.333 -143.001 91l40 21c10.667 -50 44.667 -75 102 -75c28.667 0 52 8.66699 70 26s27 39.666 27 66.999c0 28.667 -8.16699 51.167 -24.5 67.5s-39.5 24.5 -69.5 24.5c-24 0 -43.667 -3.66699 -59 -11s-27.666 -18.333 -36.999 -33h-36l19 224h233
v-37h-198l-11 -119c-2 -14.667 -3.66699 -24 -5 -28h1c10.667 12 24.167 21.333 40.5 28s37.5 10 63.5 10c38 0 68.833 -11.667 92.5 -35z" />
    <glyph glyph-name="uni2785" unicode="&#x2785;" horiz-adv-x="910" 
d="M263 7c-56 31.333 -99.5 75 -130.5 131s-46.5 120 -46.5 192s15.5 136 46.5 192s74.5 99.667 130.5 131s120 47 192 47s136 -15.667 192 -47s99.5 -75 130.5 -131s46.5 -120 46.5 -192s-15.5 -136 -46.5 -192s-74.5 -99.667 -130.5 -131s-120 -47 -192 -47
s-136 15.667 -192 47zM624.5 40.5c49.667 28.333 88.334 67.666 116.001 117.999s41.5 107.5 41.5 171.5s-13.833 121.167 -41.5 171.5s-66.334 89.666 -116.001 117.999s-106.167 42.5 -169.5 42.5s-119.833 -14.167 -169.5 -42.5s-88.334 -67.666 -116.001 -117.999
s-41.5 -107.5 -41.5 -171.5s13.833 -121.167 41.5 -171.5s66.334 -89.666 116.001 -117.999s106.167 -42.5 169.5 -42.5s119.833 14.167 169.5 42.5zM339.5 179.5c-26.333 35 -39.502 85.498 -39.502 151.498s14.833 116.5 44.5 151.5s68.167 52.5 115.5 52.5
c61.333 0 102 -26.333 122 -79l-37 -18c-6.66699 18.667 -17 33.334 -31 44.001s-32.333 16 -55 16c-38.667 0 -67.834 -16.333 -87.501 -49s-29.5 -72.667 -29.5 -120c0 -14 0.333008 -24 1 -30h1c8.66699 25.333 22.834 44.833 42.501 58.5s43.5 20.5 71.5 20.5
c40.667 0 72.834 -11.333 96.501 -34s35.5 -53 35.5 -91c0 -39.333 -12.167 -70.166 -36.5 -92.499s-57.833 -33.5 -100.5 -33.5c-49.333 0 -87.166 17.5 -113.499 52.5zM521.998 186.998c16.667 16 25.001 38 25.001 66c0 27.333 -8.33301 49 -25 65s-39.334 24 -68.001 24
c-28 0 -51.167 -9 -69.5 -27s-27.5 -38.667 -27.5 -62c0 -26 9 -47.5 27 -64.5s41 -25.5 69 -25.5c29.333 0 52.333 8 69 24z" />
    <glyph glyph-name="uni2786" unicode="&#x2786;" horiz-adv-x="910" 
d="M263 7c-56 31.333 -99.5 75 -130.5 131s-46.5 120 -46.5 192s15.5 136 46.5 192s74.5 99.667 130.5 131s120 47 192 47s136 -15.667 192 -47s99.5 -75 130.5 -131s46.5 -120 46.5 -192s-15.5 -136 -46.5 -192s-74.5 -99.667 -130.5 -131s-120 -47 -192 -47
s-136 15.667 -192 47zM624.5 40.5c49.667 28.333 88.334 67.666 116.001 117.999s41.5 107.5 41.5 171.5s-13.833 121.167 -41.5 171.5s-66.334 89.666 -116.001 117.999s-106.167 42.5 -169.5 42.5s-119.833 -14.167 -169.5 -42.5s-88.334 -67.666 -116.001 -117.999
s-41.5 -107.5 -41.5 -171.5s13.833 -121.167 41.5 -171.5s66.334 -89.666 116.001 -117.999s106.167 -42.5 169.5 -42.5s119.833 14.167 169.5 42.5zM606 517v-36.999c-49.333 -52 -85.833 -107.333 -109.5 -166s-35.5 -123.334 -35.5 -194.001h-44
c0 67.333 12 131.333 36 192s60 116.667 108 168h-247v37h292z" />
    <glyph glyph-name="uni2787" unicode="&#x2787;" horiz-adv-x="910" 
d="M263 7c-56 31.333 -99.5 75 -130.5 131s-46.5 120 -46.5 192s15.5 136 46.5 192s74.5 99.667 130.5 131s120 47 192 47s136 -15.667 192 -47s99.5 -75 130.5 -131s46.5 -120 46.5 -192s-15.5 -136 -46.5 -192s-74.5 -99.667 -130.5 -131s-120 -47 -192 -47
s-136 15.667 -192 47zM624.5 40.5c49.667 28.333 88.334 67.666 116.001 117.999s41.5 107.5 41.5 171.5s-13.833 121.167 -41.5 171.5s-66.334 89.666 -116.001 117.999s-106.167 42.5 -169.5 42.5s-119.833 -14.167 -169.5 -42.5s-88.334 -67.666 -116.001 -117.999
s-41.5 -107.5 -41.5 -171.5s13.833 -121.167 41.5 -171.5s66.334 -89.666 116.001 -117.999s106.167 -42.5 169.5 -42.5s119.833 14.167 169.5 42.5zM550.5 506c23.667 -18.667 35.5 -43.6699 35.5 -75.0029c0 -22 -6.33301 -41 -19 -57s-30.334 -27.333 -53.001 -34v-1
c27.333 -7.33301 49 -19.666 65 -36.999s24 -38.666 24 -63.999c0 -34 -13.5 -61 -40.5 -81s-62.833 -30 -107.5 -30s-80.5 10 -107.5 30s-40.5 47 -40.5 81c0 24.667 8 45.834 24 63.501s37.667 30.167 65 37.5v1c-22.667 6.66699 -40.5 18 -53.5 34s-19.5 35 -19.5 57
c0 31.333 11.833 56.333 35.5 75s55.834 28 96.501 28c40 0 71.833 -9.33301 95.5 -28zM391.5 480.497c-15.667 -13 -23.5 -30.167 -23.5 -51.5s7.83301 -38.666 23.5 -51.999s36.834 -20 63.501 -20s47.834 6.66699 63.501 20s23.5 30.666 23.5 51.999
s-7.83301 38.5 -23.5 51.5s-36.834 19.5 -63.501 19.5s-47.834 -6.5 -63.501 -19.5zM529.5 183.997c19 14.667 28.5 33.667 28.5 57c0 24 -9.5 43.333 -28.5 58s-43.833 22 -74.5 22s-55.5 -7.33301 -74.5 -22s-28.5 -34 -28.5 -58c0 -23.333 9.5 -42.333 28.5 -57
s43.833 -22 74.5 -22s55.5 7.33301 74.5 22z" />
    <glyph glyph-name="uni2788" unicode="&#x2788;" horiz-adv-x="910" 
d="M263 7c-56 31.333 -99.5 75 -130.5 131s-46.5 120 -46.5 192s15.5 136 46.5 192s74.5 99.667 130.5 131s120 47 192 47s136 -15.667 192 -47s99.5 -75 130.5 -131s46.5 -120 46.5 -192s-15.5 -136 -46.5 -192s-74.5 -99.667 -130.5 -131s-120 -47 -192 -47
s-136 15.667 -192 47zM624.5 40.5c49.667 28.333 88.334 67.666 116.001 117.999s41.5 107.5 41.5 171.5s-13.833 121.167 -41.5 171.5s-66.334 89.666 -116.001 117.999s-106.167 42.5 -169.5 42.5s-119.833 -14.167 -169.5 -42.5s-88.334 -67.666 -116.001 -117.999
s-41.5 -107.5 -41.5 -171.5s13.833 -121.167 41.5 -171.5s66.334 -89.666 116.001 -117.999s106.167 -42.5 169.5 -42.5s119.833 14.167 169.5 42.5zM568.5 481c27 -36 40.501 -86.335 40.501 -151.002c0 -65.333 -13.833 -115.5 -41.5 -150.5s-65.5 -52.5 -113.5 -52.5
c-35.333 0 -64.833 7.33301 -88.5 22s-40.167 36 -49.5 64l42 18c10 -45.333 42.333 -68 97 -68c38.667 0 67.167 15.667 85.5 47s27.5 69 27.5 113c0 11.333 -1.33301 26.333 -4 45h-1c-2.66699 -23.333 -15.334 -43.166 -38.001 -59.499s-47 -24.5 -73 -24.5
c-42.667 0 -76.167 11.333 -100.5 34s-36.5 53 -36.5 91c0 38.667 12.667 69.334 38 92.001s59.333 34 102 34c48.667 0 86.5 -18 113.5 -54zM385.001 473.998c-17.333 -16 -25.999 -37.667 -25.999 -65s8.66699 -49 26 -65s40.666 -24 69.999 -24
c28 0 51.167 8.66699 69.5 26s27.5 38 27.5 62c0 26 -9 47.5 -27 64.5s-41 25.5 -69 25.5c-30 0 -53.667 -8 -71 -24z" />
    <glyph glyph-name="uniF8FF" unicode="&#xf8ff;" horiz-adv-x="1130" 
d="M1081 283l-62.999 -30l41 -51l-69 -12l28 -61l-61 -4c-9.33301 -6 -18.666 -11 -27.999 -15v-81c0 -19.333 -9.66699 -29 -29 -29h-46c-19.333 0 -29 7.66699 -29 23c0 16.667 9.66699 25 29 25h11v39c-18.667 -4.66699 -40.667 -8 -66 -10v-48
c0 -19.333 -9.66699 -29 -29 -29h-46c-19.333 0 -29 7.66699 -29 23c0 16.667 9.66699 25 29 25h11v27h-226v-46c0 -19.333 -9.66699 -29 -29 -29h-46c-20 0 -30 7.66699 -30 23c0 8 2.66699 14.167 8 18.5s12.666 6.5 21.999 6.5h12v27h-88v-46c0 -19.333 -10 -29 -30 -29
h-44c-20.667 0 -31 7.66699 -31 23c0 16.667 10.333 25 31 25h10v37c-44.667 2 -87.834 10.333 -129.501 25s-75.5 33.334 -101.5 56.001h-5c-10.667 0 -20.167 4.16699 -28.5 12.5s-12.5 17.833 -12.5 28.5c0 11.333 4.16699 21 12.5 29s17.833 12 28.5 12
c3.33301 0 7 -0.666992 11 -2c25.333 19.333 47.5 45.666 66.5 78.999s28.5 64.333 28.5 93l4 83l56 -28v69l56 -30l-4 62l67 -26l5 66l65 -33l8 65l67 -36l17 65l57 -50l30 64l49 -50l49 54l37 -59l50 55l26 -64l63 44l7 -69l70 31l-11 -69l76 16l-21 -64l73 3l-40 -56
l66 -23l-54 -38l57 -39l-59 -35zM431.001 272.5c8.66699 11.667 12.998 25.834 12.998 42.501c0 23.333 -7.66699 42.166 -23 56.499s-34.333 21.5 -57 21.5c-7.33301 0 -14.666 -1.66699 -21.999 -5s-13.666 -7.33301 -18.999 -12l11 -19c8 7.33301 17 11.333 27 12
c17.333 0.666992 31 -4 41 -14s15 -24 15 -42c0 -24.667 -11.333 -39.667 -34 -45l12 -21c15.333 5.33301 27.333 13.833 36 25.5zM285.499 249c11.667 11.333 17.5 27 17.5 47h-24c0 -13.333 -3.33301 -22.833 -10 -28.5s-17 -8.5 -31 -8.5s-24.333 2.83301 -31 8.5
s-10 15.167 -10 28.5h-24c0 -20 5.83301 -35.667 17.5 -47s27.5 -17 47.5 -17s35.833 5.66699 47.5 17z" />
    <glyph glyph-name=".null" horiz-adv-x="0" 
 />
    <glyph glyph-name="nonmarkingreturn" horiz-adv-x="333" 
 />
    <glyph glyph-name="E.swsh.001" horiz-adv-x="719" 
d="M678.5 262c20.333 -26.667 30.501 -61.334 30.501 -104.001c0 -52 -16.833 -91.333 -50.5 -118s-80.834 -40 -141.501 -40h-413v660h486v-46h-436v-260h251v-46h-251v-262h351c52 0 90.667 8.83301 116 26.5s38 46.5 38 86.5c0 32.667 -7.33301 58.334 -22 77.001
s-34.667 29.667 -60 33l22 39c32.667 -4 59.167 -19.333 79.5 -46z" />
    <glyph glyph-name="Eacute.swsh.001" horiz-adv-x="719" 
d="M380 743h-41l65 148h59zM678.5 262c20.333 -26.667 30.501 -61.334 30.501 -104.001c0 -52 -16.833 -91.333 -50.5 -118s-80.834 -40 -141.501 -40h-413v660h486v-46h-436v-260h251v-46h-251v-262h351c52 0 90.667 8.83301 116 26.5s38 46.5 38 86.5
c0 32.667 -7.33301 58.334 -22 77.001s-34.667 29.667 -60 33l22 39c32.667 -4 59.167 -19.333 79.5 -46z" />
    <glyph glyph-name="Ecaron.swsh.001" horiz-adv-x="719" 
d="M332 740l-111 156h47l93 -122l94 122h46l-111 -156h-58zM678.5 262c20.333 -26.667 30.501 -61.334 30.501 -104.001c0 -52 -16.833 -91.333 -50.5 -118s-80.834 -40 -141.501 -40h-413v660h486v-46h-436v-260h251v-46h-251v-262h351c52 0 90.667 8.83301 116 26.5
s38 46.5 38 86.5c0 32.667 -7.33301 58.334 -22 77.001s-34.667 29.667 -60 33l22 39c32.667 -4 59.167 -19.333 79.5 -46z" />
    <glyph glyph-name="Ecircumflex.swsh.001" horiz-adv-x="719" 
d="M268 739h-47l111 156h58l111 -156h-46l-94 122zM678.5 262c20.333 -26.667 30.501 -61.334 30.501 -104.001c0 -52 -16.833 -91.333 -50.5 -118s-80.834 -40 -141.501 -40h-413v660h486v-46h-436v-260h251v-46h-251v-262h351c52 0 90.667 8.83301 116 26.5
s38 46.5 38 86.5c0 32.667 -7.33301 58.334 -22 77.001s-34.667 29.667 -60 33l22 39c32.667 -4 59.167 -19.333 79.5 -46z" />
    <glyph glyph-name="Edieresis.swsh.001" horiz-adv-x="719" 
d="M678.5 262c20.333 -26.667 30.501 -61.334 30.501 -104.001c0 -52 -16.833 -91.333 -50.5 -118s-80.834 -40 -141.501 -40h-413v660h486v-46h-436v-260h251v-46h-251v-262h351c52 0 90.667 8.83301 116 26.5s38 46.5 38 86.5c0 32.667 -7.33301 58.334 -22 77.001
s-34.667 29.667 -60 33l22 39c32.667 -4 59.167 -19.333 79.5 -46zM295.001 819.5c7.33301 -7.66699 11 -17.5 11 -29.5s-3.66699 -21.667 -11 -29s-17 -11 -29 -11s-21.833 3.66699 -29.5 11s-11.5 17 -11.5 29s3.83301 21.833 11.5 29.5s17.5 11.5 29.5 11.5
s21.667 -3.83301 29 -11.5zM484.501 819.5c7.66699 -7.66699 11.5 -17.5 11.5 -29.5s-3.83301 -21.667 -11.5 -29s-17.5 -11 -29.5 -11s-21.833 3.66699 -29.5 11s-11.5 17 -11.5 29s3.83301 21.833 11.5 29.5s17.5 11.5 29.5 11.5s21.833 -3.83301 29.5 -11.5z" />
    <glyph glyph-name="Edotaccent.swsh.001" horiz-adv-x="719" 
d="M678.5 262c20.333 -26.667 30.501 -61.334 30.501 -104.001c0 -52 -16.833 -91.333 -50.5 -118s-80.834 -40 -141.501 -40h-413v660h486v-46h-436v-260h251v-46h-251v-262h351c52 0 90.667 8.83301 116 26.5s38 46.5 38 86.5c0 32.667 -7.33301 58.334 -22 77.001
s-34.667 29.667 -60 33l22 39c32.667 -4 59.167 -19.333 79.5 -46zM392.501 829.5c7.66699 -7.66699 11.5 -17.834 11.5 -30.501s-3.83301 -22.834 -11.5 -30.501s-17.834 -11.5 -30.501 -11.5s-22.834 3.83301 -30.501 11.5s-11.5 17.834 -11.5 30.501
s3.83301 22.834 11.5 30.501s17.834 11.5 30.501 11.5s22.834 -3.83301 30.501 -11.5z" />
    </font>
</defs>
</svg>
